<?xml version="1.0" encoding="UTF-8" standalone="no"?>
<!DOCTYPE svg PUBLIC "-//W3C//DTD SVG 1.1//EN"
 "http://www.w3.org/Graphics/SVG/1.1/DTD/svg11.dtd">
<!-- Generated by graphviz version 2.38.0 (20140413.2041)
 -->
<!-- Title: expandShorthands Pages: 1 -->
<svg width="463pt" height="104pt"
 viewBox="0.00 0.00 463.00 104.00" xmlns="http://www.w3.org/2000/svg" xmlns:xlink="http://www.w3.org/1999/xlink">
<g id="graph0" class="graph" transform="scale(1 1) rotate(0) translate(4 100)">
<title>expandShorthands</title>
<polygon fill="white" stroke="none" points="-4,4 -4,-100 459,-100 459,4 -4,4"/>
<!-- Node1 -->
<g id="node1" class="node"><title>Node1</title>
<polygon fill="#bfbfbf" stroke="black" points="0,-38.5 0,-57.5 100,-57.5 100,-38.5 0,-38.5"/>
<text text-anchor="middle" x="50" y="-45.5" font-family="Helvetica,sans-Serif" font-size="10.00">expandShorthands</text>
</g>
<!-- Node2 -->
<g id="node2" class="node"><title>Node2</title>
<g id="a_node2"><a xlink:href="class_sabberworm_1_1_c_s_s_1_1_rule_set_1_1_declaration_block.html#a9dd0036775357fd3c53cafaa10f45b55" target="_top" xlink:title="Split shorthand border declarations (e.g. ">
<polygon fill="white" stroke="black" points="147.5,-76.5 147.5,-95.5 272.5,-95.5 272.5,-76.5 147.5,-76.5"/>
<text text-anchor="middle" x="210" y="-83.5" font-family="Helvetica,sans-Serif" font-size="10.00">expandBorderShorthand</text>
</a>
</g>
</g>
<!-- Node1&#45;&gt;Node2 -->
<g id="edge1" class="edge"><title>Node1&#45;&gt;Node2</title>
<path fill="none" stroke="midnightblue" d="M90.8701,-57.589C111.72,-62.6035 137.435,-68.7881 159.543,-74.1053"/>
<polygon fill="midnightblue" stroke="midnightblue" points="158.875,-77.5445 169.417,-76.4799 160.512,-70.7385 158.875,-77.5445"/>
</g>
<!-- Node5 -->
<g id="node5" class="node"><title>Node5</title>
<g id="a_node5"><a xlink:href="class_sabberworm_1_1_c_s_s_1_1_rule_set_1_1_declaration_block.html#a9ecde3bc4b8030c61ee2fc2a151728d7" target="_top" xlink:title="Split shorthand dimensional declarations (e.g. ">
<polygon fill="white" stroke="black" points="136,-38.5 136,-57.5 284,-57.5 284,-38.5 136,-38.5"/>
<text text-anchor="middle" x="210" y="-45.5" font-family="Helvetica,sans-Serif" font-size="10.00">expandDimensionsShorthand</text>
</a>
</g>
</g>
<!-- Node1&#45;&gt;Node5 -->
<g id="edge4" class="edge"><title>Node1&#45;&gt;Node5</title>
<path fill="none" stroke="midnightblue" d="M100.126,-48C108.265,-48 116.9,-48 125.606,-48"/>
<polygon fill="midnightblue" stroke="midnightblue" points="125.834,-51.5001 135.834,-48 125.834,-44.5001 125.834,-51.5001"/>
</g>
<!-- Node6 -->
<g id="node6" class="node"><title>Node6</title>
<g id="a_node6"><a xlink:href="class_sabberworm_1_1_c_s_s_1_1_rule_set_1_1_declaration_block.html#ac04ad57b57030456e7e2b9e456a7dc42" target="_top" xlink:title="Convert shorthand font declarations (e.g. ">
<polygon fill="white" stroke="black" points="152.5,-0.5 152.5,-19.5 267.5,-19.5 267.5,-0.5 152.5,-0.5"/>
<text text-anchor="middle" x="210" y="-7.5" font-family="Helvetica,sans-Serif" font-size="10.00">expandFontShorthand</text>
</a>
</g>
</g>
<!-- Node1&#45;&gt;Node6 -->
<g id="edge7" class="edge"><title>Node1&#45;&gt;Node6</title>
<path fill="none" stroke="midnightblue" d="M90.8701,-38.411C111.72,-33.3965 137.435,-27.2119 159.543,-21.8947"/>
<polygon fill="midnightblue" stroke="midnightblue" points="160.512,-25.2615 169.417,-19.5201 158.875,-18.4555 160.512,-25.2615"/>
</g>
<!-- Node3 -->
<g id="node3" class="node"><title>Node3</title>
<g id="a_node3"><a xlink:href="class_sabberworm_1_1_c_s_s_1_1_rule_set_1_1_rule_set.html#a4c3d0bd0fd1b0755a724d99b93af944b" target="_top" xlink:title="Returns all rules matching the given pattern and returns them in an associative array with the rule’...">
<polygon fill="white" stroke="black" points="320,-57 320,-87 455,-87 455,-57 320,-57"/>
<text text-anchor="start" x="328" y="-75" font-family="Helvetica,sans-Serif" font-size="10.00">Sabberworm\CSS\RuleSet</text>
<text text-anchor="middle" x="387.5" y="-64" font-family="Helvetica,sans-Serif" font-size="10.00">\RuleSet\getRulesAssoc</text>
</a>
</g>
</g>
<!-- Node2&#45;&gt;Node3 -->
<g id="edge2" class="edge"><title>Node2&#45;&gt;Node3</title>
<path fill="none" stroke="midnightblue" d="M272.875,-81.0641C284.748,-80.117 297.315,-79.1145 309.595,-78.1349"/>
<polygon fill="midnightblue" stroke="midnightblue" points="310.131,-81.6034 319.821,-77.3192 309.574,-74.6255 310.131,-81.6034"/>
</g>
<!-- Node4 -->
<g id="node4" class="node"><title>Node4</title>
<g id="a_node4"><a xlink:href="class_sabberworm_1_1_c_s_s_1_1_rule_set_1_1_rule_set.html#aca06340187f0b4dd11186527e6a0faae" target="_top" xlink:title="Remove a rule from this RuleSet. ">
<polygon fill="white" stroke="black" points="320,-8 320,-38 455,-38 455,-8 320,-8"/>
<text text-anchor="start" x="328" y="-26" font-family="Helvetica,sans-Serif" font-size="10.00">Sabberworm\CSS\RuleSet</text>
<text text-anchor="middle" x="387.5" y="-15" font-family="Helvetica,sans-Serif" font-size="10.00">\RuleSet\removeRule</text>
</a>
</g>
</g>
<!-- Node2&#45;&gt;Node4 -->
<g id="edge3" class="edge"><title>Node2&#45;&gt;Node4</title>
<path fill="none" stroke="midnightblue" d="M254.372,-76.4728C264.249,-73.8199 274.599,-70.6476 284,-67 300.867,-60.4557 303.5,-55.4201 320,-48 324.661,-45.9038 329.556,-43.8312 334.486,-41.8295"/>
<polygon fill="midnightblue" stroke="midnightblue" points="335.949,-45.0146 343.959,-38.0798 333.373,-38.5059 335.949,-45.0146"/>
</g>
<!-- Node5&#45;&gt;Node3 -->
<g id="edge5" class="edge"><title>Node5&#45;&gt;Node3</title>
<path fill="none" stroke="midnightblue" d="M280.614,-57.5199C290.203,-58.8312 300.094,-60.1838 309.801,-61.5113"/>
<polygon fill="midnightblue" stroke="midnightblue" points="309.449,-64.9956 319.831,-62.8828 310.397,-58.0601 309.449,-64.9956"/>
</g>
<!-- Node5&#45;&gt;Node4 -->
<g id="edge6" class="edge"><title>Node5&#45;&gt;Node4</title>
<path fill="none" stroke="midnightblue" d="M277.85,-38.4773C288.274,-36.9924 299.115,-35.448 309.739,-33.9347"/>
<polygon fill="midnightblue" stroke="midnightblue" points="310.43,-37.3716 319.836,-32.4963 309.443,-30.4416 310.43,-37.3716"/>
</g>
<!-- Node6&#45;&gt;Node3 -->
<g id="edge8" class="edge"><title>Node6&#45;&gt;Node3</title>
<path fill="none" stroke="midnightblue" d="M254.372,-19.5272C264.249,-22.1801 274.599,-25.3524 284,-29 300.867,-35.5443 303.451,-40.6893 320,-48 324.089,-49.8065 328.361,-51.5847 332.68,-53.3062"/>
<polygon fill="midnightblue" stroke="midnightblue" points="331.571,-56.6299 342.161,-56.9731 334.097,-50.1012 331.571,-56.6299"/>
</g>
<!-- Node6&#45;&gt;Node4 -->
<g id="edge9" class="edge"><title>Node6&#45;&gt;Node4</title>
<path fill="none" stroke="midnightblue" d="M267.98,-14.2207C281.269,-15.2051 295.636,-16.2693 309.628,-17.3058"/>
<polygon fill="midnightblue" stroke="midnightblue" points="309.498,-20.8057 319.73,-18.054 310.015,-13.8248 309.498,-20.8057"/>
</g>
</g>
</svg>
