<?xml version="1.0" encoding="UTF-8" standalone="no"?>
<!DOCTYPE svg PUBLIC "-//W3C//DTD SVG 1.1//EN"
 "http://www.w3.org/Graphics/SVG/1.1/DTD/svg11.dtd">
<!-- Generated by graphviz version 2.38.0 (20140413.2041)
 -->
<!-- Title: CSSFunction Pages: 1 -->
<svg width="83pt" height="196pt"
 viewBox="0.00 0.00 83.00 196.00" xmlns="http://www.w3.org/2000/svg" xmlns:xlink="http://www.w3.org/1999/xlink">
<g id="graph0" class="graph" transform="scale(1 1) rotate(0) translate(4 192)">
<title>CSSFunction</title>
<polygon fill="white" stroke="none" points="-4,4 -4,-192 79,-192 79,4 -4,4"/>
<!-- Node1 -->
<g id="node1" class="node"><title>Node1</title>
<polygon fill="#bfbfbf" stroke="black" points="0,-0.5 0,-19.5 75,-19.5 75,-0.5 0,-0.5"/>
<text text-anchor="middle" x="37.5" y="-7.5" font-family="Helvetica,sans-Serif" font-size="10.00">CSSFunction</text>
</g>
<!-- Node2 -->
<g id="node2" class="node"><title>Node2</title>
<g id="a_node2"><a xlink:href="class_sabberworm_1_1_c_s_s_1_1_value_1_1_value_list.html" target="_top" target="_top" xlink:title="ValueList">
<polygon fill="white" stroke="black" points="8.5,-56.5 8.5,-75.5 66.5,-75.5 66.5,-56.5 8.5,-56.5"/>
<text text-anchor="middle" x="37.5" y="-63.5" font-family="Helvetica,sans-Serif" font-size="10.00">ValueList</text>
</a>
</g>
</g>
<!-- Node2&#45;&gt;Node1 -->
<g id="edge1" class="edge"><title>Node2&#45;&gt;Node1</title>
<path fill="none" stroke="midnightblue" d="M37.5,-45.8045C37.5,-36.9102 37.5,-26.7798 37.5,-19.7511"/>
<polygon fill="midnightblue" stroke="midnightblue" points="34.0001,-46.083 37.5,-56.083 41.0001,-46.083 34.0001,-46.083"/>
</g>
<!-- Node3 -->
<g id="node3" class="node"><title>Node3</title>
<g id="a_node3"><a xlink:href="class_sabberworm_1_1_c_s_s_1_1_value_1_1_value.html" target="_top" target="_top" xlink:title="Value">
<polygon fill="white" stroke="black" points="16.5,-112.5 16.5,-131.5 58.5,-131.5 58.5,-112.5 16.5,-112.5"/>
<text text-anchor="middle" x="37.5" y="-119.5" font-family="Helvetica,sans-Serif" font-size="10.00">Value</text>
</a>
</g>
</g>
<!-- Node3&#45;&gt;Node2 -->
<g id="edge2" class="edge"><title>Node3&#45;&gt;Node2</title>
<path fill="none" stroke="midnightblue" d="M37.5,-101.805C37.5,-92.9102 37.5,-82.7798 37.5,-75.7511"/>
<polygon fill="midnightblue" stroke="midnightblue" points="34.0001,-102.083 37.5,-112.083 41.0001,-102.083 34.0001,-102.083"/>
</g>
<!-- Node4 -->
<g id="node4" class="node"><title>Node4</title>
<g id="a_node4"><a xlink:href="interface_sabberworm_1_1_c_s_s_1_1_renderable.html" target="_top" target="_top" xlink:title="Renderable">
<polygon fill="white" stroke="black" points="3.5,-168.5 3.5,-187.5 71.5,-187.5 71.5,-168.5 3.5,-168.5"/>
<text text-anchor="middle" x="37.5" y="-175.5" font-family="Helvetica,sans-Serif" font-size="10.00">Renderable</text>
</a>
</g>
</g>
<!-- Node4&#45;&gt;Node3 -->
<g id="edge3" class="edge"><title>Node4&#45;&gt;Node3</title>
<path fill="none" stroke="midnightblue" d="M37.5,-157.805C37.5,-148.91 37.5,-138.78 37.5,-131.751"/>
<polygon fill="midnightblue" stroke="midnightblue" points="34.0001,-158.083 37.5,-168.083 41.0001,-158.083 34.0001,-158.083"/>
</g>
</g>
</svg>
