<?xml version="1.0" encoding="UTF-8" standalone="no"?>
<!DOCTYPE svg PUBLIC "-//W3C//DTD SVG 1.1//EN"
 "http://www.w3.org/Graphics/SVG/1.1/DTD/svg11.dtd">
<!-- Generated by graphviz version 2.38.0 (20140413.2041)
 -->
<!-- Title: Document Pages: 1 -->
<svg width="85pt" height="137pt"
 viewBox="0.00 0.00 84.58 137.00" xmlns="http://www.w3.org/2000/svg" xmlns:xlink="http://www.w3.org/1999/xlink">
<g id="graph0" class="graph" transform="scale(1 1) rotate(0) translate(4 133)">
<title>Document</title>
<polygon fill="white" stroke="none" points="-4,4 -4,-133 80.5762,-133 80.5762,4 -4,4"/>
<!-- Node1 -->
<g id="node1" class="node"><title>Node1</title>
<polygon fill="#bfbfbf" stroke="black" points="7.5,-0.5 7.5,-18.5 69.0762,-18.5 69.0762,-0.5 7.5,-0.5"/>
<text text-anchor="middle" x="38.2881" y="-6.5" font-family="Helvetica,sans-Serif" font-size="10.00">Document</text>
</g>
<!-- Node2 -->
<g id="node2" class="node"><title>Node2</title>
<g id="a_node2"><a xlink:href="class_sabberworm_1_1_c_s_s_1_1_c_s_s_list_1_1_c_s_s_block_list.html" target="_top" xlink:title="A CSSBlockList is a CSSList whose DeclarationBlocks are guaranteed to contain valid declaration block...">
<polygon fill="white" stroke="black" points="0,-55.5 0,-73.5 76.5762,-73.5 76.5762,-55.5 0,-55.5"/>
<text text-anchor="middle" x="38.2881" y="-61.5" font-family="Helvetica,sans-Serif" font-size="10.00">CSSBlockList</text>
</a>
</g>
</g>
<!-- Node2&#45;&gt;Node1 -->
<g id="edge1" class="edge"><title>Node2&#45;&gt;Node1</title>
<path fill="none" stroke="midnightblue" d="M38.2881,-45.1746C38.2881,-36.0945 38.2881,-25.5949 38.2881,-18.5496"/>
<polygon fill="midnightblue" stroke="midnightblue" points="34.7882,-45.2187 38.2881,-55.2188 41.7882,-45.2188 34.7882,-45.2187"/>
</g>
<!-- Node3 -->
<g id="node3" class="node"><title>Node3</title>
<g id="a_node3"><a xlink:href="class_sabberworm_1_1_c_s_s_1_1_c_s_s_list_1_1_c_s_s_list.html" target="_top" xlink:title="A CSSList is the most generic container available. ">
<polygon fill="white" stroke="black" points="12.2266,-110.5 12.2266,-128.5 64.3496,-128.5 64.3496,-110.5 12.2266,-110.5"/>
<text text-anchor="middle" x="38.2881" y="-116.5" font-family="Helvetica,sans-Serif" font-size="10.00">CSSList</text>
</a>
</g>
</g>
<!-- Node3&#45;&gt;Node2 -->
<g id="edge2" class="edge"><title>Node3&#45;&gt;Node2</title>
<path fill="none" stroke="midnightblue" d="M38.2881,-100.175C38.2881,-91.0945 38.2881,-80.5949 38.2881,-73.5496"/>
<polygon fill="midnightblue" stroke="midnightblue" points="34.7882,-100.219 38.2881,-110.219 41.7882,-100.219 34.7882,-100.219"/>
</g>
</g>
</svg>
