<?xml version="1.0" encoding="UTF-8" standalone="no"?>
<!DOCTYPE svg PUBLIC "-//W3C//DTD SVG 1.1//EN"
 "http://www.w3.org/Graphics/SVG/1.1/DTD/svg11.dtd">
<!-- Generated by graphviz version 2.38.0 (20140413.2041)
 -->
<!-- Title: removeRule Pages: 1 -->
<svg width="512pt" height="275pt"
 viewBox="0.00 0.00 512.10 275.00" xmlns="http://www.w3.org/2000/svg" xmlns:xlink="http://www.w3.org/1999/xlink">
<g id="graph0" class="graph" transform="scale(1 1) rotate(0) translate(4 271)">
<title>removeRule</title>
<polygon fill="white" stroke="none" points="-4,4 -4,-271 508.097,-271 508.097,4 -4,4"/>
<!-- Node1 -->
<g id="node1" class="node"><title>Node1</title>
<polygon fill="#bfbfbf" stroke="black" points="0,-124.5 0,-142.5 69.9111,-142.5 69.9111,-124.5 0,-124.5"/>
<text text-anchor="middle" x="34.9556" y="-130.5" font-family="Helvetica,sans-Serif" font-size="10.00">removeRule</text>
</g>
<!-- Node2 -->
<g id="node2" class="node"><title>Node2</title>
<g id="a_node2"><a xlink:href="class_sabberworm_1_1_c_s_s_1_1_rule_set_1_1_declaration_block.html#a9dd0036775357fd3c53cafaa10f45b55" target="_top" xlink:title="Split shorthand border declarations (e.g. ">
<polygon fill="white" stroke="black" points="117.024,-228.5 117.024,-266.5 276.438,-266.5 276.438,-228.5 117.024,-228.5"/>
<text text-anchor="start" x="125.024" y="-254.5" font-family="Helvetica,sans-Serif" font-size="10.00">Sabberworm\CSS\RuleSet</text>
<text text-anchor="start" x="125.024" y="-244.5" font-family="Helvetica,sans-Serif" font-size="10.00">\DeclarationBlock\expandBorder</text>
<text text-anchor="middle" x="196.731" y="-234.5" font-family="Helvetica,sans-Serif" font-size="10.00">Shorthand</text>
</a>
</g>
</g>
<!-- Node1&#45;&gt;Node2 -->
<g id="edge1" class="edge"><title>Node1&#45;&gt;Node2</title>
<path fill="none" stroke="midnightblue" d="M46.0131,-151.287C57.904,-170.762 79.4597,-201.595 105.911,-219.5 110.781,-222.796 116.057,-225.719 121.529,-228.308"/>
<polygon fill="midnightblue" stroke="midnightblue" points="48.9303,-149.344 40.8369,-142.507 42.9001,-152.899 48.9303,-149.344"/>
</g>
<!-- Node4 -->
<g id="node4" class="node"><title>Node4</title>
<g id="a_node4"><a xlink:href="class_sabberworm_1_1_c_s_s_1_1_rule_set_1_1_declaration_block.html#a9ecde3bc4b8030c61ee2fc2a151728d7" target="_top" xlink:title="Split shorthand dimensional declarations (e.g. ">
<polygon fill="white" stroke="black" points="105.911,-171.5 105.911,-209.5 287.551,-209.5 287.551,-171.5 105.911,-171.5"/>
<text text-anchor="start" x="113.911" y="-197.5" font-family="Helvetica,sans-Serif" font-size="10.00">Sabberworm\CSS\RuleSet</text>
<text text-anchor="start" x="113.911" y="-187.5" font-family="Helvetica,sans-Serif" font-size="10.00">\DeclarationBlock\expandDimensions</text>
<text text-anchor="middle" x="196.731" y="-177.5" font-family="Helvetica,sans-Serif" font-size="10.00">Shorthand</text>
</a>
</g>
</g>
<!-- Node1&#45;&gt;Node4 -->
<g id="edge3" class="edge"><title>Node1&#45;&gt;Node4</title>
<path fill="none" stroke="midnightblue" d="M65.9148,-146.621C78.2097,-151.822 92.6462,-157.694 105.911,-162.5 114.358,-165.56 123.32,-168.598 132.188,-171.481"/>
<polygon fill="midnightblue" stroke="midnightblue" points="67.1477,-143.342 56.577,-142.628 64.3952,-149.778 67.1477,-143.342"/>
</g>
<!-- Node5 -->
<g id="node5" class="node"><title>Node5</title>
<g id="a_node5"><a xlink:href="class_sabberworm_1_1_c_s_s_1_1_rule_set_1_1_declaration_block.html#ac04ad57b57030456e7e2b9e456a7dc42" target="_top" xlink:title="Convert shorthand font declarations (e.g. ">
<polygon fill="white" stroke="black" points="122.027,-114.5 122.027,-152.5 271.435,-152.5 271.435,-114.5 122.027,-114.5"/>
<text text-anchor="start" x="130.027" y="-140.5" font-family="Helvetica,sans-Serif" font-size="10.00">Sabberworm\CSS\RuleSet</text>
<text text-anchor="start" x="130.027" y="-130.5" font-family="Helvetica,sans-Serif" font-size="10.00">\DeclarationBlock\expandFont</text>
<text text-anchor="middle" x="196.731" y="-120.5" font-family="Helvetica,sans-Serif" font-size="10.00">Shorthand</text>
</a>
</g>
</g>
<!-- Node1&#45;&gt;Node5 -->
<g id="edge5" class="edge"><title>Node1&#45;&gt;Node5</title>
<path fill="none" stroke="midnightblue" d="M80.5927,-133.5C93.3967,-133.5 107.712,-133.5 121.78,-133.5"/>
<polygon fill="midnightblue" stroke="midnightblue" points="80.2314,-130 70.2314,-133.5 80.2314,-137 80.2314,-130"/>
</g>
<!-- Node6 -->
<g id="node6" class="node"><title>Node6</title>
<g id="a_node6"><a xlink:href="class_sabberworm_1_1_c_s_s_1_1_rule_set_1_1_declaration_block.html#a4e9f90d5de60211f6bef2a1152a32e7d" target="_top" xlink:title="Combine border&#45;color, border&#45;style and border&#45;width into border Should be run after create_dimensions...">
<polygon fill="white" stroke="black" points="119.532,-57.5 119.532,-95.5 273.93,-95.5 273.93,-57.5 119.532,-57.5"/>
<text text-anchor="start" x="127.532" y="-83.5" font-family="Helvetica,sans-Serif" font-size="10.00">Sabberworm\CSS\RuleSet</text>
<text text-anchor="start" x="127.532" y="-73.5" font-family="Helvetica,sans-Serif" font-size="10.00">\DeclarationBlock\createBorder</text>
<text text-anchor="middle" x="196.731" y="-63.5" font-family="Helvetica,sans-Serif" font-size="10.00">Shorthand</text>
</a>
</g>
</g>
<!-- Node1&#45;&gt;Node6 -->
<g id="edge7" class="edge"><title>Node1&#45;&gt;Node6</title>
<path fill="none" stroke="midnightblue" d="M67.1545,-120.482C79.1951,-115.598 93.1263,-110.116 105.911,-105.5 115.159,-102.161 125.005,-98.794 134.662,-95.5957"/>
<polygon fill="midnightblue" stroke="midnightblue" points="65.4809,-117.385 57.5516,-124.412 68.1322,-123.864 65.4809,-117.385"/>
</g>
<!-- Node8 -->
<g id="node8" class="node"><title>Node8</title>
<g id="a_node8"><a xlink:href="class_sabberworm_1_1_c_s_s_1_1_rule_set_1_1_declaration_block.html#a9957285c5dd0d6372e958d4b35f9ffcf" target="_top" xlink:title="Looks for long format CSS font properties (e.g. ">
<polygon fill="white" stroke="black" points="124.534,-0.5 124.534,-38.5 268.928,-38.5 268.928,-0.5 124.534,-0.5"/>
<text text-anchor="start" x="132.534" y="-26.5" font-family="Helvetica,sans-Serif" font-size="10.00">Sabberworm\CSS\RuleSet</text>
<text text-anchor="start" x="132.534" y="-16.5" font-family="Helvetica,sans-Serif" font-size="10.00">\DeclarationBlock\createFont</text>
<text text-anchor="middle" x="196.731" y="-6.5" font-family="Helvetica,sans-Serif" font-size="10.00">Shorthand</text>
</a>
</g>
</g>
<!-- Node1&#45;&gt;Node8 -->
<g id="edge9" class="edge"><title>Node1&#45;&gt;Node8</title>
<path fill="none" stroke="midnightblue" d="M46.2819,-115.674C58.2844,-96.4572 79.8186,-66.2454 105.911,-48.5 111.602,-44.6297 117.843,-41.2487 124.301,-38.3007"/>
<polygon fill="midnightblue" stroke="midnightblue" points="43.2106,-113.989 41.0387,-124.359 49.2033,-117.607 43.2106,-113.989"/>
</g>
<!-- Node3 -->
<g id="node3" class="node"><title>Node3</title>
<g id="a_node3"><a xlink:href="class_sabberworm_1_1_c_s_s_1_1_rule_set_1_1_declaration_block.html#af0432da015f2bfee3dd9d81d39d8b4e6" target="_top" xlink:title="Split shorthand declarations (e.g. ">
<polygon fill="white" stroke="black" points="323.551,-176.5 323.551,-204.5 504.097,-204.5 504.097,-176.5 323.551,-176.5"/>
<text text-anchor="start" x="331.551" y="-192.5" font-family="Helvetica,sans-Serif" font-size="10.00">Sabberworm\CSS\RuleSet</text>
<text text-anchor="middle" x="413.824" y="-182.5" font-family="Helvetica,sans-Serif" font-size="10.00">\DeclarationBlock\expandShorthands</text>
</a>
</g>
</g>
<!-- Node2&#45;&gt;Node3 -->
<g id="edge2" class="edge"><title>Node2&#45;&gt;Node3</title>
<path fill="none" stroke="midnightblue" d="M279.441,-225.847C306.326,-218.722 335.502,-210.99 359.691,-204.58"/>
<polygon fill="midnightblue" stroke="midnightblue" points="278.423,-222.496 269.653,-228.441 280.216,-229.262 278.423,-222.496"/>
</g>
<!-- Node4&#45;&gt;Node3 -->
<g id="edge4" class="edge"><title>Node4&#45;&gt;Node3</title>
<path fill="none" stroke="midnightblue" d="M297.944,-190.5C306.376,-190.5 314.867,-190.5 323.211,-190.5"/>
<polygon fill="midnightblue" stroke="midnightblue" points="297.703,-187 287.703,-190.5 297.703,-194 297.703,-187"/>
</g>
<!-- Node5&#45;&gt;Node3 -->
<g id="edge6" class="edge"><title>Node5&#45;&gt;Node3</title>
<path fill="none" stroke="midnightblue" d="M279.441,-155.153C306.326,-162.278 335.502,-170.01 359.691,-176.42"/>
<polygon fill="midnightblue" stroke="midnightblue" points="280.216,-151.738 269.653,-152.559 278.423,-158.504 280.216,-151.738"/>
</g>
<!-- Node7 -->
<g id="node7" class="node"><title>Node7</title>
<g id="a_node7"><a xlink:href="class_sabberworm_1_1_c_s_s_1_1_rule_set_1_1_declaration_block.html#a02455b5dac22d0760454fc03c0880feb" target="_top" xlink:title="Create shorthand declarations (e.g. ">
<polygon fill="white" stroke="black" points="326.058,-34.5 326.058,-62.5 501.589,-62.5 501.589,-34.5 326.058,-34.5"/>
<text text-anchor="start" x="334.058" y="-50.5" font-family="Helvetica,sans-Serif" font-size="10.00">Sabberworm\CSS\RuleSet</text>
<text text-anchor="middle" x="413.824" y="-40.5" font-family="Helvetica,sans-Serif" font-size="10.00">\DeclarationBlock\createShorthands</text>
</a>
</g>
</g>
<!-- Node6&#45;&gt;Node7 -->
<g id="edge8" class="edge"><title>Node6&#45;&gt;Node7</title>
<path fill="none" stroke="midnightblue" d="M284.118,-65.2545C297.915,-63.4584 312.196,-61.5994 326.003,-59.802"/>
<polygon fill="midnightblue" stroke="midnightblue" points="283.635,-61.7877 274.17,-66.5494 284.538,-68.7292 283.635,-61.7877"/>
</g>
<!-- Node8&#45;&gt;Node7 -->
<g id="edge10" class="edge"><title>Node8&#45;&gt;Node7</title>
<path fill="none" stroke="midnightblue" d="M279.015,-30.4592C294.36,-32.528 310.464,-34.6994 325.972,-36.7902"/>
<polygon fill="midnightblue" stroke="midnightblue" points="279.433,-26.9839 269.055,-29.1163 278.498,-33.9212 279.433,-26.9839"/>
</g>
</g>
</svg>
