<?xml version="1.0" encoding="UTF-8" standalone="no"?>
<!DOCTYPE svg PUBLIC "-//W3C//DTD SVG 1.1//EN"
 "http://www.w3.org/Graphics/SVG/1.1/DTD/svg11.dtd">
<!-- Generated by graphviz version 2.38.0 (20140413.2041)
 -->
<!-- Title: RuleValueList Pages: 1 -->
<svg width="85pt" height="192pt"
 viewBox="0.00 0.00 84.97 192.00" xmlns="http://www.w3.org/2000/svg" xmlns:xlink="http://www.w3.org/1999/xlink">
<g id="graph0" class="graph" transform="scale(1 1) rotate(0) translate(4 188)">
<title>RuleValueList</title>
<polygon fill="white" stroke="none" points="-4,4 -4,-188 80.9668,-188 80.9668,4 -4,4"/>
<!-- Node1 -->
<g id="node1" class="node"><title>Node1</title>
<polygon fill="#bfbfbf" stroke="black" points="0,-0.5 0,-18.5 76.9668,-18.5 76.9668,-0.5 0,-0.5"/>
<text text-anchor="middle" x="38.4834" y="-6.5" font-family="Helvetica,sans-Serif" font-size="10.00">RuleValueList</text>
</g>
<!-- Node2 -->
<g id="node2" class="node"><title>Node2</title>
<g id="a_node2"><a xlink:href="class_sabberworm_1_1_c_s_s_1_1_value_1_1_value_list.html" target="_top" xlink:title="ValueList">
<polygon fill="white" stroke="black" points="10.2832,-55.5 10.2832,-73.5 66.6836,-73.5 66.6836,-55.5 10.2832,-55.5"/>
<text text-anchor="middle" x="38.4834" y="-61.5" font-family="Helvetica,sans-Serif" font-size="10.00">ValueList</text>
</a>
</g>
</g>
<!-- Node2&#45;&gt;Node1 -->
<g id="edge1" class="edge"><title>Node2&#45;&gt;Node1</title>
<path fill="none" stroke="midnightblue" d="M38.4834,-45.1746C38.4834,-36.0945 38.4834,-25.5949 38.4834,-18.5496"/>
<polygon fill="midnightblue" stroke="midnightblue" points="34.9835,-45.2187 38.4834,-55.2188 41.9835,-45.2188 34.9835,-45.2187"/>
</g>
<!-- Node3 -->
<g id="node3" class="node"><title>Node3</title>
<g id="a_node3"><a xlink:href="class_sabberworm_1_1_c_s_s_1_1_value_1_1_value.html" target="_top" xlink:title="Value">
<polygon fill="white" stroke="black" points="18.064,-110.5 18.064,-128.5 58.9028,-128.5 58.9028,-110.5 18.064,-110.5"/>
<text text-anchor="middle" x="38.4834" y="-116.5" font-family="Helvetica,sans-Serif" font-size="10.00">Value</text>
</a>
</g>
</g>
<!-- Node3&#45;&gt;Node2 -->
<g id="edge2" class="edge"><title>Node3&#45;&gt;Node2</title>
<path fill="none" stroke="midnightblue" d="M38.4834,-100.175C38.4834,-91.0945 38.4834,-80.5949 38.4834,-73.5496"/>
<polygon fill="midnightblue" stroke="midnightblue" points="34.9835,-100.219 38.4834,-110.219 41.9835,-100.219 34.9835,-100.219"/>
</g>
<!-- Node4 -->
<g id="node4" class="node"><title>Node4</title>
<g id="a_node4"><a xlink:href="interface_sabberworm_1_1_c_s_s_1_1_renderable.html" target="_top" xlink:title="Renderable">
<polygon fill="white" stroke="black" points="4.63135,-165.5 4.63135,-183.5 72.3354,-183.5 72.3354,-165.5 4.63135,-165.5"/>
<text text-anchor="middle" x="38.4834" y="-171.5" font-family="Helvetica,sans-Serif" font-size="10.00">Renderable</text>
</a>
</g>
</g>
<!-- Node4&#45;&gt;Node3 -->
<g id="edge3" class="edge"><title>Node4&#45;&gt;Node3</title>
<path fill="none" stroke="midnightblue" d="M38.4834,-155.175C38.4834,-146.094 38.4834,-135.595 38.4834,-128.55"/>
<polygon fill="midnightblue" stroke="midnightblue" points="34.9835,-155.219 38.4834,-165.219 41.9835,-155.219 34.9835,-155.219"/>
</g>
</g>
</svg>
