<?xml version="1.0" encoding="UTF-8" standalone="no"?>
<!DOCTYPE svg PUBLIC "-//W3C//DTD SVG 1.1//EN"
 "http://www.w3.org/Graphics/SVG/1.1/DTD/svg11.dtd">
<!-- Generated by graphviz version 2.38.0 (20140413.2041)
 -->
<!-- Title: expandFontShorthand Pages: 1 -->
<svg width="294pt" height="88pt"
 viewBox="0.00 0.00 294.00 88.00" xmlns="http://www.w3.org/2000/svg" xmlns:xlink="http://www.w3.org/1999/xlink">
<g id="graph0" class="graph" transform="scale(1 1) rotate(0) translate(4 84)">
<title>expandFontShorthand</title>
<polygon fill="white" stroke="none" points="-4,4 -4,-84 290,-84 290,4 -4,4"/>
<!-- Node1 -->
<g id="node1" class="node"><title>Node1</title>
<polygon fill="#bfbfbf" stroke="black" points="0,-30 0,-49 115,-49 115,-30 0,-30"/>
<text text-anchor="middle" x="57.5" y="-37" font-family="Helvetica,sans-Serif" font-size="10.00">expandFontShorthand</text>
</g>
<!-- Node2 -->
<g id="node2" class="node"><title>Node2</title>
<g id="a_node2"><a xlink:href="class_sabberworm_1_1_c_s_s_1_1_rule_set_1_1_rule_set.html#a4c3d0bd0fd1b0755a724d99b93af944b" target="_top" target="_top" xlink:title="Returns all rules matching the given pattern and returns them in an associative array with the rule’...">
<polygon fill="white" stroke="black" points="151,-49.5 151,-79.5 286,-79.5 286,-49.5 151,-49.5"/>
<text text-anchor="start" x="159" y="-67.5" font-family="Helvetica,sans-Serif" font-size="10.00">Sabberworm\CSS\RuleSet</text>
<text text-anchor="middle" x="218.5" y="-56.5" font-family="Helvetica,sans-Serif" font-size="10.00">\RuleSet\getRulesAssoc</text>
</a>
</g>
</g>
<!-- Node1&#45;&gt;Node2 -->
<g id="edge1" class="edge"><title>Node1&#45;&gt;Node2</title>
<path fill="none" stroke="midnightblue" d="M115.005,-48.3845C123.345,-49.6958 132.055,-51.0653 140.722,-52.4279"/>
<polygon fill="midnightblue" stroke="midnightblue" points="140.428,-55.9247 150.851,-54.0206 141.516,-49.0097 140.428,-55.9247"/>
</g>
<!-- Node3 -->
<g id="node3" class="node"><title>Node3</title>
<g id="a_node3"><a xlink:href="class_sabberworm_1_1_c_s_s_1_1_rule_set_1_1_rule_set.html#aca06340187f0b4dd11186527e6a0faae" target="_top" target="_top" xlink:title="Remove a rule from this RuleSet. ">
<polygon fill="white" stroke="black" points="151,-0.5 151,-30.5 286,-30.5 286,-0.5 151,-0.5"/>
<text text-anchor="start" x="159" y="-18.5" font-family="Helvetica,sans-Serif" font-size="10.00">Sabberworm\CSS\RuleSet</text>
<text text-anchor="middle" x="218.5" y="-7.5" font-family="Helvetica,sans-Serif" font-size="10.00">\RuleSet\removeRule</text>
</a>
</g>
</g>
<!-- Node1&#45;&gt;Node3 -->
<g id="edge2" class="edge"><title>Node1&#45;&gt;Node3</title>
<path fill="none" stroke="midnightblue" d="M115.005,-30.9709C123.345,-29.712 132.055,-28.3974 140.722,-27.0892"/>
<polygon fill="midnightblue" stroke="midnightblue" points="141.485,-30.5137 150.851,-25.5603 140.44,-23.5921 141.485,-30.5137"/>
</g>
</g>
</svg>
