<?xml version="1.0" encoding="UTF-8" standalone="no"?>
<!DOCTYPE svg PUBLIC "-//W3C//DTD SVG 1.1//EN"
 "http://www.w3.org/Graphics/SVG/1.1/DTD/svg11.dtd">
<!-- Generated by graphviz version 2.38.0 (20140413.2041)
 -->
<!-- Title: Value Pages: 1 -->
<svg width="366pt" height="247pt"
 viewBox="0.00 0.00 365.83 247.00" xmlns="http://www.w3.org/2000/svg" xmlns:xlink="http://www.w3.org/1999/xlink">
<g id="graph0" class="graph" transform="scale(1 1) rotate(0) translate(4 243)">
<title>Value</title>
<polygon fill="white" stroke="none" points="-4,4 -4,-243 361.826,-243 361.826,4 -4,4"/>
<!-- Node1 -->
<g id="node1" class="node"><title>Node1</title>
<polygon fill="#bfbfbf" stroke="black" points="160.923,-165.5 160.923,-183.5 201.762,-183.5 201.762,-165.5 160.923,-165.5"/>
<text text-anchor="middle" x="181.342" y="-171.5" font-family="Helvetica,sans-Serif" font-size="10.00">Value</text>
</g>
<!-- Node3 -->
<g id="node3" class="node"><title>Node3</title>
<g id="a_node3"><a xlink:href="class_sabberworm_1_1_c_s_s_1_1_value_1_1_primitive_value.html" target="_top" xlink:title="PrimitiveValue">
<polygon fill="white" stroke="black" points="78.7554,-110.5 78.7554,-128.5 157.929,-128.5 157.929,-110.5 78.7554,-110.5"/>
<text text-anchor="middle" x="118.342" y="-116.5" font-family="Helvetica,sans-Serif" font-size="10.00">PrimitiveValue</text>
</a>
</g>
</g>
<!-- Node1&#45;&gt;Node3 -->
<g id="edge2" class="edge"><title>Node1&#45;&gt;Node3</title>
<path fill="none" stroke="midnightblue" d="M164.018,-158.926C152.412,-149.162 137.562,-136.669 128.001,-128.625"/>
<polygon fill="midnightblue" stroke="midnightblue" points="161.868,-161.691 171.774,-165.45 166.375,-156.334 161.868,-161.691"/>
</g>
<!-- Node7 -->
<g id="node7" class="node"><title>Node7</title>
<g id="a_node7"><a xlink:href="class_sabberworm_1_1_c_s_s_1_1_value_1_1_value_list.html" target="_top" xlink:title="ValueList">
<polygon fill="white" stroke="black" points="197.142,-110.5 197.142,-128.5 253.542,-128.5 253.542,-110.5 197.142,-110.5"/>
<text text-anchor="middle" x="225.342" y="-116.5" font-family="Helvetica,sans-Serif" font-size="10.00">ValueList</text>
</a>
</g>
</g>
<!-- Node1&#45;&gt;Node7 -->
<g id="edge6" class="edge"><title>Node1&#45;&gt;Node7</title>
<path fill="none" stroke="midnightblue" d="M194.839,-157.243C202.736,-147.73 212.361,-136.137 218.66,-128.55"/>
<polygon fill="midnightblue" stroke="midnightblue" points="191.912,-155.289 188.217,-165.219 197.298,-159.76 191.912,-155.289"/>
</g>
<!-- Node2 -->
<g id="node2" class="node"><title>Node2</title>
<g id="a_node2"><a xlink:href="interface_sabberworm_1_1_c_s_s_1_1_renderable.html" target="_top" xlink:title="Renderable">
<polygon fill="white" stroke="black" points="147.49,-220.5 147.49,-238.5 215.194,-238.5 215.194,-220.5 147.49,-220.5"/>
<text text-anchor="middle" x="181.342" y="-226.5" font-family="Helvetica,sans-Serif" font-size="10.00">Renderable</text>
</a>
</g>
</g>
<!-- Node2&#45;&gt;Node1 -->
<g id="edge1" class="edge"><title>Node2&#45;&gt;Node1</title>
<path fill="none" stroke="midnightblue" d="M181.342,-210.175C181.342,-201.094 181.342,-190.595 181.342,-183.55"/>
<polygon fill="midnightblue" stroke="midnightblue" points="177.842,-210.219 181.342,-220.219 184.842,-210.219 177.842,-210.219"/>
</g>
<!-- Node4 -->
<g id="node4" class="node"><title>Node4</title>
<g id="a_node4"><a xlink:href="class_sabberworm_1_1_c_s_s_1_1_value_1_1_c_s_s_string.html" target="_top" xlink:title="CSSString">
<polygon fill="white" stroke="black" points="0,-55.5 0,-73.5 62.6846,-73.5 62.6846,-55.5 0,-55.5"/>
<text text-anchor="middle" x="31.3423" y="-61.5" font-family="Helvetica,sans-Serif" font-size="10.00">CSSString</text>
</a>
</g>
</g>
<!-- Node3&#45;&gt;Node4 -->
<g id="edge3" class="edge"><title>Node3&#45;&gt;Node4</title>
<path fill="none" stroke="midnightblue" d="M96.2651,-105.051C79.9954,-95.1393 58.3972,-81.9817 44.6801,-73.6253"/>
<polygon fill="midnightblue" stroke="midnightblue" points="94.7678,-108.237 105.129,-110.45 98.4097,-102.259 94.7678,-108.237"/>
</g>
<!-- Node5 -->
<g id="node5" class="node"><title>Node5</title>
<g id="a_node5"><a xlink:href="class_sabberworm_1_1_c_s_s_1_1_value_1_1_size.html" target="_top" xlink:title="Size">
<polygon fill="white" stroke="black" points="80.6157,-55.5 80.6157,-73.5 116.069,-73.5 116.069,-55.5 80.6157,-55.5"/>
<text text-anchor="middle" x="98.3423" y="-61.5" font-family="Helvetica,sans-Serif" font-size="10.00">Size</text>
</a>
</g>
</g>
<!-- Node3&#45;&gt;Node5 -->
<g id="edge4" class="edge"><title>Node3&#45;&gt;Node5</title>
<path fill="none" stroke="midnightblue" d="M111.652,-100.771C108.175,-91.5577 104.097,-80.7498 101.38,-73.5496"/>
<polygon fill="midnightblue" stroke="midnightblue" points="108.412,-102.098 115.217,-110.219 114.961,-99.627 108.412,-102.098"/>
</g>
<!-- Node6 -->
<g id="node6" class="node"><title>Node6</title>
<g id="a_node6"><a xlink:href="class_sabberworm_1_1_c_s_s_1_1_value_1_1_u_r_l.html" target="_top" xlink:title="URL">
<polygon fill="white" stroke="black" points="134.34,-55.5 134.34,-73.5 170.345,-73.5 170.345,-55.5 134.34,-55.5"/>
<text text-anchor="middle" x="152.342" y="-61.5" font-family="Helvetica,sans-Serif" font-size="10.00">URL</text>
</a>
</g>
</g>
<!-- Node3&#45;&gt;Node6 -->
<g id="edge5" class="edge"><title>Node3&#45;&gt;Node6</title>
<path fill="none" stroke="midnightblue" d="M129.147,-101.658C135.176,-92.2587 142.41,-80.9821 147.178,-73.5496"/>
<polygon fill="midnightblue" stroke="midnightblue" points="126.108,-99.9119 123.655,-110.219 132,-103.692 126.108,-99.9119"/>
</g>
<!-- Node8 -->
<g id="node8" class="node"><title>Node8</title>
<g id="a_node8"><a xlink:href="class_sabberworm_1_1_c_s_s_1_1_value_1_1_c_s_s_function.html" target="_top" xlink:title="CSSFunction">
<polygon fill="white" stroke="black" points="187.884,-55.5 187.884,-73.5 262.8,-73.5 262.8,-55.5 187.884,-55.5"/>
<text text-anchor="middle" x="225.342" y="-61.5" font-family="Helvetica,sans-Serif" font-size="10.00">CSSFunction</text>
</a>
</g>
</g>
<!-- Node7&#45;&gt;Node8 -->
<g id="edge7" class="edge"><title>Node7&#45;&gt;Node8</title>
<path fill="none" stroke="midnightblue" d="M225.342,-100.175C225.342,-91.0945 225.342,-80.5949 225.342,-73.5496"/>
<polygon fill="midnightblue" stroke="midnightblue" points="221.842,-100.219 225.342,-110.219 228.842,-100.219 221.842,-100.219"/>
</g>
<!-- Node10 -->
<g id="node10" class="node"><title>Node10</title>
<g id="a_node10"><a xlink:href="class_sabberworm_1_1_c_s_s_1_1_value_1_1_rule_value_list.html" target="_top" xlink:title="RuleValueList">
<polygon fill="white" stroke="black" points="280.859,-55.5 280.859,-73.5 357.826,-73.5 357.826,-55.5 280.859,-55.5"/>
<text text-anchor="middle" x="319.342" y="-61.5" font-family="Helvetica,sans-Serif" font-size="10.00">RuleValueList</text>
</a>
</g>
</g>
<!-- Node7&#45;&gt;Node10 -->
<g id="edge9" class="edge"><title>Node7&#45;&gt;Node10</title>
<path fill="none" stroke="midnightblue" d="M248.704,-105.328C266.338,-95.3856 289.972,-82.0598 304.931,-73.6253"/>
<polygon fill="midnightblue" stroke="midnightblue" points="246.611,-102.49 239.619,-110.45 250.049,-108.588 246.611,-102.49"/>
</g>
<!-- Node9 -->
<g id="node9" class="node"><title>Node9</title>
<g id="a_node9"><a xlink:href="class_sabberworm_1_1_c_s_s_1_1_value_1_1_color.html" target="_top" xlink:title="Color">
<polygon fill="white" stroke="black" points="205.394,-0.5 205.394,-18.5 245.291,-18.5 245.291,-0.5 205.394,-0.5"/>
<text text-anchor="middle" x="225.342" y="-6.5" font-family="Helvetica,sans-Serif" font-size="10.00">Color</text>
</a>
</g>
</g>
<!-- Node8&#45;&gt;Node9 -->
<g id="edge8" class="edge"><title>Node8&#45;&gt;Node9</title>
<path fill="none" stroke="midnightblue" d="M225.342,-45.1746C225.342,-36.0945 225.342,-25.5949 225.342,-18.5496"/>
<polygon fill="midnightblue" stroke="midnightblue" points="221.842,-45.2187 225.342,-55.2188 228.842,-45.2188 221.842,-45.2187"/>
</g>
</g>
</svg>
