<?xml version="1.0" encoding="UTF-8" standalone="no"?>
<!DOCTYPE svg PUBLIC "-//W3C//DTD SVG 1.1//EN"
 "http://www.w3.org/Graphics/SVG/1.1/DTD/svg11.dtd">
<!-- Generated by graphviz version 2.38.0 (20140413.2041)
 -->
<!-- Title: getRulesAssoc Pages: 1 -->
<!--zoomable 275 -->
<svg id="main" version="1.1" xmlns="http://www.w3.org/2000/svg" xmlns:xlink="http://www.w3.org/1999/xlink" xml:space="preserve" onload="init(evt)">
<style type="text/css"><![CDATA[
.edge:hover path { stroke: red; }
.edge:hover polygon { stroke: red; fill: red; }
]]></style>
<script type="text/javascript"><![CDATA[
var edges = document.getElementsByTagName('g');
if (edges && edges.length) {
  for (var i=0;i<edges.length;i++) {
    if (edges[i].id.substr(0,4)=='edge') {
      edges[i].setAttribute('class','edge');
    }
  }
}
]]></script>
        <defs>
                <circle id="rim" cx="0" cy="0" r="7"/>
                <circle id="rim2" cx="0" cy="0" r="3.5"/>
                <g id="zoomPlus">
                        <use xlink:href="#rim" fill="#404040">
                                <set attributeName="fill" to="#808080" begin="zoomplus.mouseover" end="zoomplus.mouseout"/>
                        </use>
                        <path d="M-4,0h8M0,-4v8" fill="none" stroke="white" stroke-width="1.5" pointer-events="none"/>
                </g>
                <g id="zoomMin">
                        <use xlink:href="#rim" fill="#404040">
                                <set attributeName="fill" to="#808080" begin="zoomminus.mouseover" end="zoomminus.mouseout"/>
                        </use>
                        <path d="M-4,0h8" fill="none" stroke="white" stroke-width="1.5" pointer-events="none"/>
                </g>
                <g id="dirArrow">
                        <path fill="none" stroke="white" stroke-width="1.5" d="M0,-3.0v7 M-2.5,-0.5L0,-3.0L2.5,-0.5"/>
                </g>
               <g id="resetDef">
                       <use xlink:href="#rim2" fill="#404040">
                               <set attributeName="fill" to="#808080" begin="reset.mouseover" end="reset.mouseout"/>
                       </use>
               </g>
        </defs>

<script type="text/javascript">
var viewWidth = 525;
var viewHeight = 275;
var sectionId = 'dynsection-2';
</script>
<script xlink:href="svgpan.js"/>
<svg id="graph" class="graph">
<g id="viewport">
<title>getRulesAssoc</title>
<polygon fill="white" stroke="none" points="-4,4 -4,-271 520.885,-271 520.885,4 -4,4"/>
<!-- Node1 -->
<g id="node1" class="node"><title>Node1</title>
<polygon fill="#bfbfbf" stroke="black" points="0,-124.5 0,-142.5 82.6992,-142.5 82.6992,-124.5 0,-124.5"/>
<text text-anchor="middle" x="41.3496" y="-130.5" font-family="Helvetica,sans-Serif" font-size="10.00">getRulesAssoc</text>
</g>
<!-- Node2 -->
<g id="node2" class="node"><title>Node2</title>
<g id="a_node2"><a xlink:href="class_sabberworm_1_1_c_s_s_1_1_rule_set_1_1_declaration_block.html#a9dd0036775357fd3c53cafaa10f45b55" target="_top" xlink:title="Split shorthand border declarations (e.g. ">
<polygon fill="white" stroke="black" points="129.812,-228.5 129.812,-266.5 289.226,-266.5 289.226,-228.5 129.812,-228.5"/>
<text text-anchor="start" x="137.812" y="-254.5" font-family="Helvetica,sans-Serif" font-size="10.00">Sabberworm\CSS\RuleSet</text>
<text text-anchor="start" x="137.812" y="-244.5" font-family="Helvetica,sans-Serif" font-size="10.00">\DeclarationBlock\expandBorder</text>
<text text-anchor="middle" x="209.519" y="-234.5" font-family="Helvetica,sans-Serif" font-size="10.00">Shorthand</text>
</a>
</g>
</g>
<!-- Node1&#45;&gt;Node2 -->
<g id="edge1" class="edge"><title>Node1&#45;&gt;Node2</title>
<path fill="none" stroke="midnightblue" d="M53.7351,-151.296C67.0615,-170.748 90.8823,-201.533 118.699,-219.5 123.913,-222.868 129.558,-225.852 135.392,-228.494"/>
<polygon fill="midnightblue" stroke="midnightblue" points="56.5143,-149.155 48.0645,-142.763 50.6843,-153.029 56.5143,-149.155"/>
</g>
<!-- Node4 -->
<g id="node4" class="node"><title>Node4</title>
<g id="a_node4"><a xlink:href="class_sabberworm_1_1_c_s_s_1_1_rule_set_1_1_declaration_block.html#a9ecde3bc4b8030c61ee2fc2a151728d7" target="_top" xlink:title="Split shorthand dimensional declarations (e.g. ">
<polygon fill="white" stroke="black" points="118.699,-171.5 118.699,-209.5 300.339,-209.5 300.339,-171.5 118.699,-171.5"/>
<text text-anchor="start" x="126.699" y="-197.5" font-family="Helvetica,sans-Serif" font-size="10.00">Sabberworm\CSS\RuleSet</text>
<text text-anchor="start" x="126.699" y="-187.5" font-family="Helvetica,sans-Serif" font-size="10.00">\DeclarationBlock\expandDimensions</text>
<text text-anchor="middle" x="209.519" y="-177.5" font-family="Helvetica,sans-Serif" font-size="10.00">Shorthand</text>
</a>
</g>
</g>
<!-- Node1&#45;&gt;Node4 -->
<g id="edge3" class="edge"><title>Node1&#45;&gt;Node4</title>
<path fill="none" stroke="midnightblue" d="M74.6488,-146.266C88.189,-151.488 104.14,-157.471 118.699,-162.5 127.345,-165.486 136.506,-168.506 145.544,-171.402"/>
<polygon fill="midnightblue" stroke="midnightblue" points="75.8588,-142.982 65.27,-142.623 73.3241,-149.507 75.8588,-142.982"/>
</g>
<!-- Node5 -->
<g id="node5" class="node"><title>Node5</title>
<g id="a_node5"><a xlink:href="class_sabberworm_1_1_c_s_s_1_1_rule_set_1_1_declaration_block.html#ac04ad57b57030456e7e2b9e456a7dc42" target="_top" xlink:title="Convert shorthand font declarations (e.g. ">
<polygon fill="white" stroke="black" points="134.815,-114.5 134.815,-152.5 284.223,-152.5 284.223,-114.5 134.815,-114.5"/>
<text text-anchor="start" x="142.815" y="-140.5" font-family="Helvetica,sans-Serif" font-size="10.00">Sabberworm\CSS\RuleSet</text>
<text text-anchor="start" x="142.815" y="-130.5" font-family="Helvetica,sans-Serif" font-size="10.00">\DeclarationBlock\expandFont</text>
<text text-anchor="middle" x="209.519" y="-120.5" font-family="Helvetica,sans-Serif" font-size="10.00">Shorthand</text>
</a>
</g>
</g>
<!-- Node1&#45;&gt;Node5 -->
<g id="edge5" class="edge"><title>Node1&#45;&gt;Node5</title>
<path fill="none" stroke="midnightblue" d="M93.181,-133.5C106.252,-133.5 120.584,-133.5 134.567,-133.5"/>
<polygon fill="midnightblue" stroke="midnightblue" points="92.9993,-130 82.9992,-133.5 92.9992,-137 92.9993,-130"/>
</g>
<!-- Node6 -->
<g id="node6" class="node"><title>Node6</title>
<g id="a_node6"><a xlink:href="class_sabberworm_1_1_c_s_s_1_1_rule_set_1_1_declaration_block.html#a4e9f90d5de60211f6bef2a1152a32e7d" target="_top" xlink:title="Combine border&#45;color, border&#45;style and border&#45;width into border Should be run after create_dimensions...">
<polygon fill="white" stroke="black" points="132.32,-57.5 132.32,-95.5 286.718,-95.5 286.718,-57.5 132.32,-57.5"/>
<text text-anchor="start" x="140.32" y="-83.5" font-family="Helvetica,sans-Serif" font-size="10.00">Sabberworm\CSS\RuleSet</text>
<text text-anchor="start" x="140.32" y="-73.5" font-family="Helvetica,sans-Serif" font-size="10.00">\DeclarationBlock\createBorder</text>
<text text-anchor="middle" x="209.519" y="-63.5" font-family="Helvetica,sans-Serif" font-size="10.00">Shorthand</text>
</a>
</g>
</g>
<!-- Node1&#45;&gt;Node6 -->
<g id="edge7" class="edge"><title>Node1&#45;&gt;Node6</title>
<path fill="none" stroke="midnightblue" d="M76.0036,-120.835C89.2666,-115.929 104.659,-110.339 118.699,-105.5 128.304,-102.19 138.525,-98.7817 148.5,-95.5176"/>
<polygon fill="midnightblue" stroke="midnightblue" points="74.4876,-117.665 66.3342,-124.43 76.927,-124.226 74.4876,-117.665"/>
</g>
<!-- Node8 -->
<g id="node8" class="node"><title>Node8</title>
<g id="a_node8"><a xlink:href="class_sabberworm_1_1_c_s_s_1_1_rule_set_1_1_declaration_block.html#a9957285c5dd0d6372e958d4b35f9ffcf" target="_top" xlink:title="Looks for long format CSS font properties (e.g. ">
<polygon fill="white" stroke="black" points="137.322,-0.5 137.322,-38.5 281.716,-38.5 281.716,-0.5 137.322,-0.5"/>
<text text-anchor="start" x="145.322" y="-26.5" font-family="Helvetica,sans-Serif" font-size="10.00">Sabberworm\CSS\RuleSet</text>
<text text-anchor="start" x="145.322" y="-16.5" font-family="Helvetica,sans-Serif" font-size="10.00">\DeclarationBlock\createFont</text>
<text text-anchor="middle" x="209.519" y="-6.5" font-family="Helvetica,sans-Serif" font-size="10.00">Shorthand</text>
</a>
</g>
</g>
<!-- Node1&#45;&gt;Node8 -->
<g id="edge9" class="edge"><title>Node1&#45;&gt;Node8</title>
<path fill="none" stroke="midnightblue" d="M53.8165,-115.967C67.2156,-96.7918 91.1012,-66.4095 118.699,-48.5 124.472,-44.7535 130.769,-41.4558 137.262,-38.5604"/>
<polygon fill="midnightblue" stroke="midnightblue" points="50.8291,-114.137 48.1108,-124.377 56.6217,-118.067 50.8291,-114.137"/>
</g>
<!-- Node3 -->
<g id="node3" class="node"><title>Node3</title>
<g id="a_node3"><a xlink:href="class_sabberworm_1_1_c_s_s_1_1_rule_set_1_1_declaration_block.html#af0432da015f2bfee3dd9d81d39d8b4e6" target="_top" xlink:title="Split shorthand declarations (e.g. ">
<polygon fill="white" stroke="black" points="336.339,-176.5 336.339,-204.5 516.885,-204.5 516.885,-176.5 336.339,-176.5"/>
<text text-anchor="start" x="344.339" y="-192.5" font-family="Helvetica,sans-Serif" font-size="10.00">Sabberworm\CSS\RuleSet</text>
<text text-anchor="middle" x="426.612" y="-182.5" font-family="Helvetica,sans-Serif" font-size="10.00">\DeclarationBlock\expandShorthands</text>
</a>
</g>
</g>
<!-- Node2&#45;&gt;Node3 -->
<g id="edge2" class="edge"><title>Node2&#45;&gt;Node3</title>
<path fill="none" stroke="midnightblue" d="M292.229,-225.847C319.115,-218.722 348.29,-210.99 372.479,-204.58"/>
<polygon fill="midnightblue" stroke="midnightblue" points="291.211,-222.496 282.441,-228.441 293.004,-229.262 291.211,-222.496"/>
</g>
<!-- Node4&#45;&gt;Node3 -->
<g id="edge4" class="edge"><title>Node4&#45;&gt;Node3</title>
<path fill="none" stroke="midnightblue" d="M310.732,-190.5C319.164,-190.5 327.656,-190.5 335.999,-190.5"/>
<polygon fill="midnightblue" stroke="midnightblue" points="310.491,-187 300.491,-190.5 310.491,-194 310.491,-187"/>
</g>
<!-- Node5&#45;&gt;Node3 -->
<g id="edge6" class="edge"><title>Node5&#45;&gt;Node3</title>
<path fill="none" stroke="midnightblue" d="M292.229,-155.153C319.115,-162.278 348.29,-170.01 372.479,-176.42"/>
<polygon fill="midnightblue" stroke="midnightblue" points="293.004,-151.738 282.441,-152.559 291.211,-158.504 293.004,-151.738"/>
</g>
<!-- Node7 -->
<g id="node7" class="node"><title>Node7</title>
<g id="a_node7"><a xlink:href="class_sabberworm_1_1_c_s_s_1_1_rule_set_1_1_declaration_block.html#a02455b5dac22d0760454fc03c0880feb" target="_top" xlink:title="Create shorthand declarations (e.g. ">
<polygon fill="white" stroke="black" points="338.846,-34.5 338.846,-62.5 514.377,-62.5 514.377,-34.5 338.846,-34.5"/>
<text text-anchor="start" x="346.846" y="-50.5" font-family="Helvetica,sans-Serif" font-size="10.00">Sabberworm\CSS\RuleSet</text>
<text text-anchor="middle" x="426.612" y="-40.5" font-family="Helvetica,sans-Serif" font-size="10.00">\DeclarationBlock\createShorthands</text>
</a>
</g>
</g>
<!-- Node6&#45;&gt;Node7 -->
<g id="edge8" class="edge"><title>Node6&#45;&gt;Node7</title>
<path fill="none" stroke="midnightblue" d="M296.906,-65.2545C310.703,-63.4584 324.984,-61.5994 338.791,-59.802"/>
<polygon fill="midnightblue" stroke="midnightblue" points="296.423,-61.7877 286.958,-66.5494 297.327,-68.7292 296.423,-61.7877"/>
</g>
<!-- Node8&#45;&gt;Node7 -->
<g id="edge10" class="edge"><title>Node8&#45;&gt;Node7</title>
<path fill="none" stroke="midnightblue" d="M291.803,-30.4592C307.148,-32.528 323.253,-34.6994 338.76,-36.7902"/>
<polygon fill="midnightblue" stroke="midnightblue" points="292.221,-26.9839 281.843,-29.1163 291.286,-33.9212 292.221,-26.9839"/>
</g>
</g>
</svg>
        <g id="navigator" transform="translate(0 0)" fill="#404254">
                <rect fill="#f2f5e9" fill-opacity="0.5" stroke="#606060" stroke-width=".5" x="0" y="0" width="60" height="60"/>
                <use id="zoomplus" xlink:href="#zoomPlus" x="17" y="9" onmousedown="handleZoom(evt,'in')"/>
                <use id="zoomminus" xlink:href="#zoomMin" x="42" y="9" onmousedown="handleZoom(evt,'out')"/>
                <use id="reset" xlink:href="#resetDef" x="30" y="36" onmousedown="handleReset()"/>
                <g id="arrowUp" xlink:href="#dirArrow" transform="translate(30 24)" onmousedown="handlePan(0,-1)">
                  <use xlink:href="#rim" fill="#404040">
                        <set attributeName="fill" to="#808080" begin="arrowUp.mouseover" end="arrowUp.mouseout"/>
                  </use>
                  <path fill="none" stroke="white" stroke-width="1.5" d="M0,-3.0v7 M-2.5,-0.5L0,-3.0L2.5,-0.5"/>
                </g>
                <g id="arrowRight" xlink:href="#dirArrow" transform="rotate(90) translate(36 -43)" onmousedown="handlePan(1,0)">
                  <use xlink:href="#rim" fill="#404040">
                        <set attributeName="fill" to="#808080" begin="arrowRight.mouseover" end="arrowRight.mouseout"/>
                  </use>
                  <path fill="none" stroke="white" stroke-width="1.5" d="M0,-3.0v7 M-2.5,-0.5L0,-3.0L2.5,-0.5"/>
                </g>
                <g id="arrowDown" xlink:href="#dirArrow" transform="rotate(180) translate(-30 -48)" onmousedown="handlePan(0,1)">
                  <use xlink:href="#rim" fill="#404040">
                        <set attributeName="fill" to="#808080" begin="arrowDown.mouseover" end="arrowDown.mouseout"/>
                  </use>
                  <path fill="none" stroke="white" stroke-width="1.5" d="M0,-3.0v7 M-2.5,-0.5L0,-3.0L2.5,-0.5"/>
                </g>
                <g id="arrowLeft" xlink:href="#dirArrow" transform="rotate(270) translate(-36 17)" onmousedown="handlePan(-1,0)">
                  <use xlink:href="#rim" fill="#404040">
                        <set attributeName="fill" to="#808080" begin="arrowLeft.mouseover" end="arrowLeft.mouseout"/>
                  </use>
                  <path fill="none" stroke="white" stroke-width="1.5" d="M0,-3.0v7 M-2.5,-0.5L0,-3.0L2.5,-0.5"/>
                </g>
        </g>
        <svg viewBox="0 0 15 15" width="100%" height="30px" preserveAspectRatio="xMaxYMin meet">
         <g id="arrow_out" transform="scale(0.3 0.3)">
          <a xlink:href="class_sabberworm_1_1_c_s_s_1_1_rule_set_1_1_rule_set_a4c3d0bd0fd1b0755a724d99b93af944b_icgraph_org.svg" target="_base">
           <rect id="button" ry="5" rx="5" y="6" x="6" height="38" width="38"
                fill="#f2f5e9" fill-opacity="0.5" stroke="#606060" stroke-width="1.0"/>
           <path id="arrow"
             d="M 11.500037,31.436501 C 11.940474,20.09759 22.043105,11.32322 32.158766,21.979434 L 37.068811,17.246167 C 37.068811,17.246167 37.088388,32 37.088388,32 L 22.160133,31.978069 C 22.160133,31.978069 26.997745,27.140456 26.997745,27.140456 C 18.528582,18.264221 13.291696,25.230495 11.500037,31.436501 z"
             style="fill:#404040;"/>
          </a>
         </g>
        </svg>
</svg>
