<?xml version="1.0" encoding="UTF-8" standalone="no"?>
<!DOCTYPE svg PUBLIC "-//W3C//DTD SVG 1.1//EN"
 "http://www.w3.org/Graphics/SVG/1.1/DTD/svg11.dtd">
<!-- Generated by graphviz version 2.38.0 (20140413.2041)
 -->
<!-- Title: AtRuleBlockList Pages: 1 -->
<svg width="159pt" height="137pt"
 viewBox="0.00 0.00 159.14 137.00" xmlns="http://www.w3.org/2000/svg" xmlns:xlink="http://www.w3.org/1999/xlink">
<g id="graph0" class="graph" transform="scale(1 1) rotate(0) translate(4 133)">
<title>AtRuleBlockList</title>
<polygon fill="white" stroke="none" points="-4,4 -4,-133 155.14,-133 155.14,4 -4,4"/>
<!-- Node1 -->
<g id="node1" class="node"><title>Node1</title>
<polygon fill="#bfbfbf" stroke="black" points="34.2734,-0.5 34.2734,-18.5 120.303,-18.5 120.303,-0.5 34.2734,-0.5"/>
<text text-anchor="middle" x="77.2881" y="-6.5" font-family="Helvetica,sans-Serif" font-size="10.00">AtRuleBlockList</text>
</g>
<!-- Node2 -->
<g id="node2" class="node"><title>Node2</title>
<g id="a_node2"><a xlink:href="class_sabberworm_1_1_c_s_s_1_1_c_s_s_list_1_1_c_s_s_block_list.html" target="_top" xlink:title="A CSSBlockList is a CSSList whose DeclarationBlocks are guaranteed to contain valid declaration block...">
<polygon fill="white" stroke="black" points="0,-55.5 0,-73.5 76.5762,-73.5 76.5762,-55.5 0,-55.5"/>
<text text-anchor="middle" x="38.2881" y="-61.5" font-family="Helvetica,sans-Serif" font-size="10.00">CSSBlockList</text>
</a>
</g>
</g>
<!-- Node2&#45;&gt;Node1 -->
<g id="edge1" class="edge"><title>Node2&#45;&gt;Node1</title>
<path fill="none" stroke="midnightblue" d="M50.4658,-46.9507C57.4245,-37.4941 65.8387,-26.0595 71.3648,-18.5496"/>
<polygon fill="midnightblue" stroke="midnightblue" points="47.4896,-45.09 44.3818,-55.2188 53.1277,-49.2388 47.4896,-45.09"/>
</g>
<!-- Node3 -->
<g id="node3" class="node"><title>Node3</title>
<g id="a_node3"><a xlink:href="class_sabberworm_1_1_c_s_s_1_1_c_s_s_list_1_1_c_s_s_list.html" target="_top" xlink:title="A CSSList is the most generic container available. ">
<polygon fill="white" stroke="black" points="12.2266,-110.5 12.2266,-128.5 64.3496,-128.5 64.3496,-110.5 12.2266,-110.5"/>
<text text-anchor="middle" x="38.2881" y="-116.5" font-family="Helvetica,sans-Serif" font-size="10.00">CSSList</text>
</a>
</g>
</g>
<!-- Node3&#45;&gt;Node2 -->
<g id="edge2" class="edge"><title>Node3&#45;&gt;Node2</title>
<path fill="none" stroke="midnightblue" d="M38.2881,-100.175C38.2881,-91.0945 38.2881,-80.5949 38.2881,-73.5496"/>
<polygon fill="midnightblue" stroke="midnightblue" points="34.7882,-100.219 38.2881,-110.219 41.7882,-100.219 34.7882,-100.219"/>
</g>
<!-- Node4 -->
<g id="node4" class="node"><title>Node4</title>
<g id="a_node4"><a xlink:href="interface_sabberworm_1_1_c_s_s_1_1_property_1_1_at_rule.html" target="_top" xlink:title="AtRule">
<polygon fill="white" stroke="black" points="94.2808,-55.5 94.2808,-73.5 140.295,-73.5 140.295,-55.5 94.2808,-55.5"/>
<text text-anchor="middle" x="117.288" y="-61.5" font-family="Helvetica,sans-Serif" font-size="10.00">AtRule</text>
</a>
</g>
</g>
<!-- Node4&#45;&gt;Node1 -->
<g id="edge3" class="edge"><title>Node4&#45;&gt;Node1</title>
<path fill="none" stroke="midnightblue" d="M104.798,-46.9507C97.661,-37.4941 89.0311,-26.0595 83.3632,-18.5496"/>
<polygon fill="midnightblue" stroke="midnightblue" points="102.22,-49.3453 111.038,-55.2188 107.808,-45.1284 102.22,-49.3453"/>
</g>
<!-- Node5 -->
<g id="node5" class="node"><title>Node5</title>
<g id="a_node5"><a xlink:href="interface_sabberworm_1_1_c_s_s_1_1_renderable.html" target="_top" xlink:title="Renderable">
<polygon fill="white" stroke="black" points="83.436,-110.5 83.436,-128.5 151.14,-128.5 151.14,-110.5 83.436,-110.5"/>
<text text-anchor="middle" x="117.288" y="-116.5" font-family="Helvetica,sans-Serif" font-size="10.00">Renderable</text>
</a>
</g>
</g>
<!-- Node5&#45;&gt;Node4 -->
<g id="edge4" class="edge"><title>Node5&#45;&gt;Node4</title>
<path fill="none" stroke="midnightblue" d="M117.288,-100.175C117.288,-91.0945 117.288,-80.5949 117.288,-73.5496"/>
<polygon fill="midnightblue" stroke="midnightblue" points="113.788,-100.219 117.288,-110.219 120.788,-100.219 113.788,-100.219"/>
</g>
</g>
</svg>
