<?xml version="1.0" encoding="UTF-8" standalone="no"?>
<!DOCTYPE svg PUBLIC "-//W3C//DTD SVG 1.1//EN"
 "http://www.w3.org/Graphics/SVG/1.1/DTD/svg11.dtd">
<!-- Generated by graphviz version 2.38.0 (20140413.2041)
 -->
<!-- Title: expandFontShorthand Pages: 1 -->
<svg width="293pt" height="84pt"
 viewBox="0.00 0.00 293.35 84.00" xmlns="http://www.w3.org/2000/svg" xmlns:xlink="http://www.w3.org/1999/xlink">
<g id="graph0" class="graph" transform="scale(1 1) rotate(0) translate(4 80)">
<title>expandFontShorthand</title>
<polygon fill="white" stroke="none" points="-4,4 -4,-80 289.349,-80 289.349,4 -4,4"/>
<!-- Node1 -->
<g id="node1" class="node"><title>Node1</title>
<polygon fill="#bfbfbf" stroke="black" points="0,-28.5 0,-46.5 114.965,-46.5 114.965,-28.5 0,-28.5"/>
<text text-anchor="middle" x="57.4824" y="-34.5" font-family="Helvetica,sans-Serif" font-size="10.00">expandFontShorthand</text>
</g>
<!-- Node2 -->
<g id="node2" class="node"><title>Node2</title>
<g id="a_node2"><a xlink:href="class_sabberworm_1_1_c_s_s_1_1_rule_set_1_1_rule_set.html#a4c3d0bd0fd1b0755a724d99b93af944b" target="_top" xlink:title="Returns all rules matching the given pattern and returns them in an associative array with the rule’...">
<polygon fill="white" stroke="black" points="150.965,-47.5 150.965,-75.5 285.349,-75.5 285.349,-47.5 150.965,-47.5"/>
<text text-anchor="start" x="158.965" y="-63.5" font-family="Helvetica,sans-Serif" font-size="10.00">Sabberworm\CSS\RuleSet</text>
<text text-anchor="middle" x="218.157" y="-53.5" font-family="Helvetica,sans-Serif" font-size="10.00">\RuleSet\getRulesAssoc</text>
</a>
</g>
</g>
<!-- Node1&#45;&gt;Node2 -->
<g id="edge1" class="edge"><title>Node1&#45;&gt;Node2</title>
<path fill="none" stroke="midnightblue" d="M115.319,-46.0968C123.564,-47.3439 132.163,-48.6444 140.716,-49.9382"/>
<polygon fill="midnightblue" stroke="midnightblue" points="140.302,-53.4152 150.713,-51.4502 141.349,-46.4939 140.302,-53.4152"/>
</g>
<!-- Node3 -->
<g id="node3" class="node"><title>Node3</title>
<g id="a_node3"><a xlink:href="class_sabberworm_1_1_c_s_s_1_1_rule_set_1_1_rule_set.html#aca06340187f0b4dd11186527e6a0faae" target="_top" xlink:title="Remove a rule from this RuleSet. ">
<polygon fill="white" stroke="black" points="150.965,-0.5 150.965,-28.5 285.349,-28.5 285.349,-0.5 150.965,-0.5"/>
<text text-anchor="start" x="158.965" y="-16.5" font-family="Helvetica,sans-Serif" font-size="10.00">Sabberworm\CSS\RuleSet</text>
<text text-anchor="middle" x="218.157" y="-6.5" font-family="Helvetica,sans-Serif" font-size="10.00">\RuleSet\removeRule</text>
</a>
</g>
</g>
<!-- Node1&#45;&gt;Node3 -->
<g id="edge2" class="edge"><title>Node1&#45;&gt;Node3</title>
<path fill="none" stroke="midnightblue" d="M115.319,-29.2614C123.564,-28.0663 132.163,-26.8199 140.716,-25.5801"/>
<polygon fill="midnightblue" stroke="midnightblue" points="141.319,-29.0295 150.713,-24.1311 140.314,-22.1019 141.319,-29.0295"/>
</g>
</g>
</svg>
