<?xml version="1.0" encoding="UTF-8" standalone="no"?>
<!DOCTYPE svg PUBLIC "-//W3C//DTD SVG 1.1//EN"
 "http://www.w3.org/Graphics/SVG/1.1/DTD/svg11.dtd">
<!-- Generated by graphviz version 2.38.0 (20140413.2041)
 -->
<!-- Title: AtRuleSet Pages: 1 -->
<svg width="124pt" height="137pt"
 viewBox="0.00 0.00 123.80 137.00" xmlns="http://www.w3.org/2000/svg" xmlns:xlink="http://www.w3.org/1999/xlink">
<g id="graph0" class="graph" transform="scale(1 1) rotate(0) translate(4 133)">
<title>AtRuleSet</title>
<polygon fill="white" stroke="none" points="-4,4 -4,-133 119.795,-133 119.795,4 -4,4"/>
<!-- Node1 -->
<g id="node1" class="node"><title>Node1</title>
<polygon fill="#bfbfbf" stroke="black" points="28.2759,-0.5 28.2759,-18.5 89.3003,-18.5 89.3003,-0.5 28.2759,-0.5"/>
<text text-anchor="middle" x="58.7881" y="-6.5" font-family="Helvetica,sans-Serif" font-size="10.00">AtRuleSet</text>
</g>
<!-- Node2 -->
<g id="node2" class="node"><title>Node2</title>
<g id="a_node2"><a xlink:href="class_sabberworm_1_1_c_s_s_1_1_rule_set_1_1_rule_set.html" target="_top" xlink:title="RuleSet is a generic superclass denoting rules. ">
<polygon fill="white" stroke="black" points="0,-55.5 0,-73.5 51.5762,-73.5 51.5762,-55.5 0,-55.5"/>
<text text-anchor="middle" x="25.7881" y="-61.5" font-family="Helvetica,sans-Serif" font-size="10.00">RuleSet</text>
</a>
</g>
</g>
<!-- Node2&#45;&gt;Node1 -->
<g id="edge1" class="edge"><title>Node2&#45;&gt;Node1</title>
<path fill="none" stroke="midnightblue" d="M36.2748,-46.6576C42.127,-37.2587 49.1483,-25.9821 53.7761,-18.5496"/>
<polygon fill="midnightblue" stroke="midnightblue" points="33.2588,-44.8798 30.9443,-55.2188 39.2011,-48.5797 33.2588,-44.8798"/>
</g>
<!-- Node3 -->
<g id="node3" class="node"><title>Node3</title>
<g id="a_node3"><a xlink:href="interface_sabberworm_1_1_c_s_s_1_1_renderable.html" target="_top" xlink:title="Renderable">
<polygon fill="white" stroke="black" points="24.936,-110.5 24.936,-128.5 92.6401,-128.5 92.6401,-110.5 24.936,-110.5"/>
<text text-anchor="middle" x="58.7881" y="-116.5" font-family="Helvetica,sans-Serif" font-size="10.00">Renderable</text>
</a>
</g>
</g>
<!-- Node3&#45;&gt;Node2 -->
<g id="edge2" class="edge"><title>Node3&#45;&gt;Node2</title>
<path fill="none" stroke="midnightblue" d="M48.3013,-101.658C42.4492,-92.2587 35.4279,-80.9821 30.8001,-73.5496"/>
<polygon fill="midnightblue" stroke="midnightblue" points="45.3751,-103.58 53.6318,-110.219 51.3173,-99.8798 45.3751,-103.58"/>
</g>
<!-- Node4 -->
<g id="node4" class="node"><title>Node4</title>
<g id="a_node4"><a xlink:href="interface_sabberworm_1_1_c_s_s_1_1_property_1_1_at_rule.html" target="_top" xlink:title="AtRule">
<polygon fill="white" stroke="black" points="69.7808,-55.5 69.7808,-73.5 115.795,-73.5 115.795,-55.5 69.7808,-55.5"/>
<text text-anchor="middle" x="92.7881" y="-61.5" font-family="Helvetica,sans-Serif" font-size="10.00">AtRule</text>
</a>
</g>
</g>
<!-- Node3&#45;&gt;Node4 -->
<g id="edge4" class="edge"><title>Node3&#45;&gt;Node4</title>
<path fill="none" stroke="midnightblue" d="M69.5926,-101.658C75.6221,-92.2587 82.8562,-80.9821 87.6242,-73.5496"/>
<polygon fill="midnightblue" stroke="midnightblue" points="66.5542,-99.9119 64.1006,-110.219 72.4461,-103.692 66.5542,-99.9119"/>
</g>
<!-- Node4&#45;&gt;Node1 -->
<g id="edge3" class="edge"><title>Node4&#45;&gt;Node1</title>
<path fill="none" stroke="midnightblue" d="M81.9836,-46.6576C75.9541,-37.2587 68.72,-25.9821 63.952,-18.5496"/>
<polygon fill="midnightblue" stroke="midnightblue" points="79.1301,-48.6917 87.4756,-55.2188 85.0219,-44.9119 79.1301,-48.6917"/>
</g>
</g>
</svg>
