<?xml version="1.0" encoding="UTF-8" standalone="no"?>
<!DOCTYPE svg PUBLIC "-//W3C//DTD SVG 1.1//EN"
 "http://www.w3.org/Graphics/SVG/1.1/DTD/svg11.dtd">
<!-- Generated by graphviz version 2.38.0 (20140413.2041)
 -->
<!-- Title: ValueList Pages: 1 -->
<svg width="180pt" height="252pt"
 viewBox="0.00 0.00 179.50 252.00" xmlns="http://www.w3.org/2000/svg" xmlns:xlink="http://www.w3.org/1999/xlink">
<g id="graph0" class="graph" transform="scale(1 1) rotate(0) translate(4 248)">
<title>ValueList</title>
<polygon fill="white" stroke="none" points="-4,4 -4,-248 175.5,-248 175.5,4 -4,4"/>
<!-- Node1 -->
<g id="node1" class="node"><title>Node1</title>
<polygon fill="#bfbfbf" stroke="black" points="55.5,-112.5 55.5,-131.5 113.5,-131.5 113.5,-112.5 55.5,-112.5"/>
<text text-anchor="middle" x="84.5" y="-119.5" font-family="Helvetica,sans-Serif" font-size="10.00">ValueList</text>
</g>
<!-- Node4 -->
<g id="node4" class="node"><title>Node4</title>
<g id="a_node4"><a xlink:href="class_sabberworm_1_1_c_s_s_1_1_value_1_1_c_s_s_function.html" target="_top" xlink:title="CSSFunction">
<polygon fill="white" stroke="black" points="0,-56.5 0,-75.5 75,-75.5 75,-56.5 0,-56.5"/>
<text text-anchor="middle" x="37.5" y="-63.5" font-family="Helvetica,sans-Serif" font-size="10.00">CSSFunction</text>
</a>
</g>
</g>
<!-- Node1&#45;&gt;Node4 -->
<g id="edge3" class="edge"><title>Node1&#45;&gt;Node4</title>
<path fill="none" stroke="midnightblue" d="M70.0792,-104.431C61.8419,-94.9673 51.8461,-83.4827 45.1167,-75.7511"/>
<polygon fill="midnightblue" stroke="midnightblue" points="67.5336,-106.838 76.7389,-112.083 72.8137,-102.242 67.5336,-106.838"/>
</g>
<!-- Node6 -->
<g id="node6" class="node"><title>Node6</title>
<g id="a_node6"><a xlink:href="class_sabberworm_1_1_c_s_s_1_1_value_1_1_rule_value_list.html" target="_top" xlink:title="RuleValueList">
<polygon fill="white" stroke="black" points="93.5,-56.5 93.5,-75.5 171.5,-75.5 171.5,-56.5 93.5,-56.5"/>
<text text-anchor="middle" x="132.5" y="-63.5" font-family="Helvetica,sans-Serif" font-size="10.00">RuleValueList</text>
</a>
</g>
</g>
<!-- Node1&#45;&gt;Node6 -->
<g id="edge5" class="edge"><title>Node1&#45;&gt;Node6</title>
<path fill="none" stroke="midnightblue" d="M99.2277,-104.431C107.64,-94.9673 117.849,-83.4827 124.721,-75.7511"/>
<polygon fill="midnightblue" stroke="midnightblue" points="96.454,-102.284 92.4262,-112.083 101.686,-106.934 96.454,-102.284"/>
</g>
<!-- Node2 -->
<g id="node2" class="node"><title>Node2</title>
<g id="a_node2"><a xlink:href="class_sabberworm_1_1_c_s_s_1_1_value_1_1_value.html" target="_top" xlink:title="Value">
<polygon fill="white" stroke="black" points="63.5,-168.5 63.5,-187.5 105.5,-187.5 105.5,-168.5 63.5,-168.5"/>
<text text-anchor="middle" x="84.5" y="-175.5" font-family="Helvetica,sans-Serif" font-size="10.00">Value</text>
</a>
</g>
</g>
<!-- Node2&#45;&gt;Node1 -->
<g id="edge1" class="edge"><title>Node2&#45;&gt;Node1</title>
<path fill="none" stroke="midnightblue" d="M84.5,-157.805C84.5,-148.91 84.5,-138.78 84.5,-131.751"/>
<polygon fill="midnightblue" stroke="midnightblue" points="81.0001,-158.083 84.5,-168.083 88.0001,-158.083 81.0001,-158.083"/>
</g>
<!-- Node3 -->
<g id="node3" class="node"><title>Node3</title>
<g id="a_node3"><a xlink:href="interface_sabberworm_1_1_c_s_s_1_1_renderable.html" target="_top" xlink:title="Renderable">
<polygon fill="white" stroke="black" points="50.5,-224.5 50.5,-243.5 118.5,-243.5 118.5,-224.5 50.5,-224.5"/>
<text text-anchor="middle" x="84.5" y="-231.5" font-family="Helvetica,sans-Serif" font-size="10.00">Renderable</text>
</a>
</g>
</g>
<!-- Node3&#45;&gt;Node2 -->
<g id="edge2" class="edge"><title>Node3&#45;&gt;Node2</title>
<path fill="none" stroke="midnightblue" d="M84.5,-213.805C84.5,-204.91 84.5,-194.78 84.5,-187.751"/>
<polygon fill="midnightblue" stroke="midnightblue" points="81.0001,-214.083 84.5,-224.083 88.0001,-214.083 81.0001,-214.083"/>
</g>
<!-- Node5 -->
<g id="node5" class="node"><title>Node5</title>
<g id="a_node5"><a xlink:href="class_sabberworm_1_1_c_s_s_1_1_value_1_1_color.html" target="_top" xlink:title="Color">
<polygon fill="white" stroke="black" points="17.5,-0.5 17.5,-19.5 57.5,-19.5 57.5,-0.5 17.5,-0.5"/>
<text text-anchor="middle" x="37.5" y="-7.5" font-family="Helvetica,sans-Serif" font-size="10.00">Color</text>
</a>
</g>
</g>
<!-- Node4&#45;&gt;Node5 -->
<g id="edge4" class="edge"><title>Node4&#45;&gt;Node5</title>
<path fill="none" stroke="midnightblue" d="M37.5,-45.8045C37.5,-36.9102 37.5,-26.7798 37.5,-19.7511"/>
<polygon fill="midnightblue" stroke="midnightblue" points="34.0001,-46.083 37.5,-56.083 41.0001,-46.083 34.0001,-46.083"/>
</g>
</g>
</svg>
