<?xml version="1.0" encoding="UTF-8" standalone="no"?>
<!DOCTYPE svg PUBLIC "-//W3C//DTD SVG 1.1//EN"
 "http://www.w3.org/Graphics/SVG/1.1/DTD/svg11.dtd">
<!-- Generated by graphviz version 2.38.0 (20140413.2041)
 -->
<!-- Title: AtRuleSet Pages: 1 -->
<svg width="126pt" height="140pt"
 viewBox="0.00 0.00 125.50 140.00" xmlns="http://www.w3.org/2000/svg" xmlns:xlink="http://www.w3.org/1999/xlink">
<g id="graph0" class="graph" transform="scale(1 1) rotate(0) translate(4 136)">
<title>AtRuleSet</title>
<polygon fill="white" stroke="none" points="-4,4 -4,-136 121.5,-136 121.5,4 -4,4"/>
<!-- Node1 -->
<g id="node1" class="node"><title>Node1</title>
<polygon fill="#bfbfbf" stroke="black" points="29,-0.5 29,-19.5 91,-19.5 91,-0.5 29,-0.5"/>
<text text-anchor="middle" x="60" y="-7.5" font-family="Helvetica,sans-Serif" font-size="10.00">AtRuleSet</text>
</g>
<!-- Node2 -->
<g id="node2" class="node"><title>Node2</title>
<g id="a_node2"><a xlink:href="class_sabberworm_1_1_c_s_s_1_1_rule_set_1_1_rule_set.html" target="_top" xlink:title="RuleSet is a generic superclass denoting rules. ">
<polygon fill="white" stroke="black" points="0,-56.5 0,-75.5 52,-75.5 52,-56.5 0,-56.5"/>
<text text-anchor="middle" x="26" y="-63.5" font-family="Helvetica,sans-Serif" font-size="10.00">RuleSet</text>
</a>
</g>
</g>
<!-- Node2&#45;&gt;Node1 -->
<g id="edge1" class="edge"><title>Node2&#45;&gt;Node1</title>
<path fill="none" stroke="midnightblue" d="M36.9772,-47.5656C42.827,-38.2747 49.7695,-27.2484 54.4901,-19.7511"/>
<polygon fill="midnightblue" stroke="midnightblue" points="33.9808,-45.7558 31.6144,-56.083 39.9044,-49.4855 33.9808,-45.7558"/>
</g>
<!-- Node3 -->
<g id="node3" class="node"><title>Node3</title>
<g id="a_node3"><a xlink:href="interface_sabberworm_1_1_c_s_s_1_1_renderable.html" target="_top" xlink:title="Renderable">
<polygon fill="white" stroke="black" points="26,-112.5 26,-131.5 94,-131.5 94,-112.5 26,-112.5"/>
<text text-anchor="middle" x="60" y="-119.5" font-family="Helvetica,sans-Serif" font-size="10.00">Renderable</text>
</a>
</g>
</g>
<!-- Node3&#45;&gt;Node2 -->
<g id="edge2" class="edge"><title>Node3&#45;&gt;Node2</title>
<path fill="none" stroke="midnightblue" d="M49.0228,-103.566C43.173,-94.2747 36.2305,-83.2484 31.5099,-75.7511"/>
<polygon fill="midnightblue" stroke="midnightblue" points="46.0956,-105.486 54.3856,-112.083 52.0192,-101.756 46.0956,-105.486"/>
</g>
<!-- Node4 -->
<g id="node4" class="node"><title>Node4</title>
<g id="a_node4"><a xlink:href="interface_sabberworm_1_1_c_s_s_1_1_property_1_1_at_rule.html" target="_top" xlink:title="AtRule">
<polygon fill="white" stroke="black" points="70.5,-56.5 70.5,-75.5 117.5,-75.5 117.5,-56.5 70.5,-56.5"/>
<text text-anchor="middle" x="94" y="-63.5" font-family="Helvetica,sans-Serif" font-size="10.00">AtRule</text>
</a>
</g>
</g>
<!-- Node3&#45;&gt;Node4 -->
<g id="edge4" class="edge"><title>Node3&#45;&gt;Node4</title>
<path fill="none" stroke="midnightblue" d="M70.9772,-103.566C76.827,-94.2747 83.7695,-83.2484 88.4901,-75.7511"/>
<polygon fill="midnightblue" stroke="midnightblue" points="67.9808,-101.756 65.6144,-112.083 73.9044,-105.486 67.9808,-101.756"/>
</g>
<!-- Node4&#45;&gt;Node1 -->
<g id="edge3" class="edge"><title>Node4&#45;&gt;Node1</title>
<path fill="none" stroke="midnightblue" d="M83.0228,-47.5656C77.173,-38.2747 70.2305,-27.2484 65.5099,-19.7511"/>
<polygon fill="midnightblue" stroke="midnightblue" points="80.0956,-49.4855 88.3856,-56.083 86.0192,-45.7558 80.0956,-49.4855"/>
</g>
</g>
</svg>
