<?xml version="1.0" encoding="UTF-8" standalone="no"?>
<!DOCTYPE svg PUBLIC "-//W3C//DTD SVG 1.1//EN"
 "http://www.w3.org/Graphics/SVG/1.1/DTD/svg11.dtd">
<!-- Generated by graphviz version 2.38.0 (20140413.2041)
 -->
<!-- Title: expandShorthands Pages: 1 -->
<svg width="462pt" height="101pt"
 viewBox="0.00 0.00 461.54 101.00" xmlns="http://www.w3.org/2000/svg" xmlns:xlink="http://www.w3.org/1999/xlink">
<g id="graph0" class="graph" transform="scale(1 1) rotate(0) translate(4 97)">
<title>expandShorthands</title>
<polygon fill="white" stroke="none" points="-4,4 -4,-97 457.535,-97 457.535,4 -4,4"/>
<!-- Node1 -->
<g id="node1" class="node"><title>Node1</title>
<polygon fill="#bfbfbf" stroke="black" points="0,-37.5 0,-55.5 99.9551,-55.5 99.9551,-37.5 0,-37.5"/>
<text text-anchor="middle" x="49.9775" y="-43.5" font-family="Helvetica,sans-Serif" font-size="10.00">expandShorthands</text>
</g>
<!-- Node2 -->
<g id="node2" class="node"><title>Node2</title>
<g id="a_node2"><a xlink:href="class_sabberworm_1_1_c_s_s_1_1_rule_set_1_1_declaration_block.html#a9dd0036775357fd3c53cafaa10f45b55" target="_top" xlink:title="Split shorthand border declarations (e.g. ">
<polygon fill="white" stroke="black" points="147.068,-74.5 147.068,-92.5 272.038,-92.5 272.038,-74.5 147.068,-74.5"/>
<text text-anchor="middle" x="209.553" y="-80.5" font-family="Helvetica,sans-Serif" font-size="10.00">expandBorderShorthand</text>
</a>
</g>
</g>
<!-- Node1&#45;&gt;Node2 -->
<g id="edge1" class="edge"><title>Node1&#45;&gt;Node2</title>
<path fill="none" stroke="midnightblue" d="M89.5249,-55.5512C110.875,-60.5644 137.614,-66.8429 160.337,-72.1785"/>
<polygon fill="midnightblue" stroke="midnightblue" points="159.596,-75.5995 170.131,-74.4782 161.196,-68.7849 159.596,-75.5995"/>
</g>
<!-- Node5 -->
<g id="node5" class="node"><title>Node5</title>
<g id="a_node5"><a xlink:href="class_sabberworm_1_1_c_s_s_1_1_rule_set_1_1_declaration_block.html#a9ecde3bc4b8030c61ee2fc2a151728d7" target="_top" xlink:title="Split shorthand dimensional declarations (e.g. ">
<polygon fill="white" stroke="black" points="135.955,-37.5 135.955,-55.5 283.151,-55.5 283.151,-37.5 135.955,-37.5"/>
<text text-anchor="middle" x="209.553" y="-43.5" font-family="Helvetica,sans-Serif" font-size="10.00">expandDimensionsShorthand</text>
</a>
</g>
</g>
<!-- Node1&#45;&gt;Node5 -->
<g id="edge4" class="edge"><title>Node1&#45;&gt;Node5</title>
<path fill="none" stroke="midnightblue" d="M99.9717,-46.5C108.154,-46.5 116.838,-46.5 125.592,-46.5"/>
<polygon fill="midnightblue" stroke="midnightblue" points="125.873,-50.0001 135.873,-46.5 125.873,-43.0001 125.873,-50.0001"/>
</g>
<!-- Node6 -->
<g id="node6" class="node"><title>Node6</title>
<g id="a_node6"><a xlink:href="class_sabberworm_1_1_c_s_s_1_1_rule_set_1_1_declaration_block.html#ac04ad57b57030456e7e2b9e456a7dc42" target="_top" xlink:title="Convert shorthand font declarations (e.g. ">
<polygon fill="white" stroke="black" points="152.071,-0.5 152.071,-18.5 267.036,-18.5 267.036,-0.5 152.071,-0.5"/>
<text text-anchor="middle" x="209.553" y="-6.5" font-family="Helvetica,sans-Serif" font-size="10.00">expandFontShorthand</text>
</a>
</g>
</g>
<!-- Node1&#45;&gt;Node6 -->
<g id="edge7" class="edge"><title>Node1&#45;&gt;Node6</title>
<path fill="none" stroke="midnightblue" d="M89.5249,-37.4488C110.875,-32.4356 137.614,-26.1571 160.337,-20.8215"/>
<polygon fill="midnightblue" stroke="midnightblue" points="161.196,-24.2151 170.131,-18.5218 159.596,-17.4005 161.196,-24.2151"/>
</g>
<!-- Node3 -->
<g id="node3" class="node"><title>Node3</title>
<g id="a_node3"><a xlink:href="class_sabberworm_1_1_c_s_s_1_1_rule_set_1_1_rule_set.html#a4c3d0bd0fd1b0755a724d99b93af944b" target="_top" xlink:title="Returns all rules matching the given pattern and returns them in an associative array with the rule’...">
<polygon fill="white" stroke="black" points="319.151,-55.5 319.151,-83.5 453.535,-83.5 453.535,-55.5 319.151,-55.5"/>
<text text-anchor="start" x="327.151" y="-71.5" font-family="Helvetica,sans-Serif" font-size="10.00">Sabberworm\CSS\RuleSet</text>
<text text-anchor="middle" x="386.343" y="-61.5" font-family="Helvetica,sans-Serif" font-size="10.00">\RuleSet\getRulesAssoc</text>
</a>
</g>
</g>
<!-- Node2&#45;&gt;Node3 -->
<g id="edge2" class="edge"><title>Node2&#45;&gt;Node3</title>
<path fill="none" stroke="midnightblue" d="M272.178,-78.5641C284.003,-77.617 296.519,-76.6145 308.749,-75.6349"/>
<polygon fill="midnightblue" stroke="midnightblue" points="309.245,-79.1065 318.934,-74.8192 308.686,-72.1288 309.245,-79.1065"/>
</g>
<!-- Node4 -->
<g id="node4" class="node"><title>Node4</title>
<g id="a_node4"><a xlink:href="class_sabberworm_1_1_c_s_s_1_1_rule_set_1_1_rule_set.html#aca06340187f0b4dd11186527e6a0faae" target="_top" xlink:title="Remove a rule from this RuleSet. ">
<polygon fill="white" stroke="black" points="319.151,-8.5 319.151,-36.5 453.535,-36.5 453.535,-8.5 319.151,-8.5"/>
<text text-anchor="start" x="327.151" y="-24.5" font-family="Helvetica,sans-Serif" font-size="10.00">Sabberworm\CSS\RuleSet</text>
<text text-anchor="middle" x="386.343" y="-14.5" font-family="Helvetica,sans-Serif" font-size="10.00">\RuleSet\removeRule</text>
</a>
</g>
</g>
<!-- Node2&#45;&gt;Node4 -->
<g id="edge3" class="edge"><title>Node2&#45;&gt;Node4</title>
<path fill="none" stroke="midnightblue" d="M254.462,-74.4339C264.052,-71.9521 274.052,-68.9703 283.151,-65.5 300.056,-59.0535 302.608,-53.823 319.151,-46.5 323.919,-44.3894 328.936,-42.3159 333.986,-40.3256"/>
<polygon fill="midnightblue" stroke="midnightblue" points="335.596,-43.4573 343.683,-36.613 333.093,-36.92 335.596,-43.4573"/>
</g>
<!-- Node5&#45;&gt;Node3 -->
<g id="edge5" class="edge"><title>Node5&#45;&gt;Node3</title>
<path fill="none" stroke="midnightblue" d="M279.133,-55.5242C288.858,-56.8038 298.909,-58.1264 308.773,-59.4244"/>
<polygon fill="midnightblue" stroke="midnightblue" points="308.593,-62.9307 318.964,-60.7654 309.506,-55.9906 308.593,-62.9307"/>
</g>
<!-- Node5&#45;&gt;Node4 -->
<g id="edge6" class="edge"><title>Node5&#45;&gt;Node4</title>
<path fill="none" stroke="midnightblue" d="M276.136,-37.495C286.89,-36.0184 298.115,-34.4771 309.101,-32.9687"/>
<polygon fill="midnightblue" stroke="midnightblue" points="309.671,-36.4233 319.102,-31.5954 308.719,-29.4884 309.671,-36.4233"/>
</g>
<!-- Node6&#45;&gt;Node3 -->
<g id="edge8" class="edge"><title>Node6&#45;&gt;Node3</title>
<path fill="none" stroke="midnightblue" d="M251.339,-18.5871C261.841,-21.3568 273.03,-24.6926 283.151,-28.5 299.894,-34.7985 302.668,-39.5498 319.151,-46.5 323.544,-48.3523 328.143,-50.1764 332.782,-51.9376"/>
<polygon fill="midnightblue" stroke="midnightblue" points="331.715,-55.2742 342.308,-55.4532 334.138,-48.7072 331.715,-55.2742"/>
</g>
<!-- Node6&#45;&gt;Node4 -->
<g id="edge9" class="edge"><title>Node6&#45;&gt;Node4</title>
<path fill="none" stroke="midnightblue" d="M267.303,-13.7207C280.538,-14.7051 294.847,-15.7693 308.782,-16.8058"/>
<polygon fill="midnightblue" stroke="midnightblue" points="308.611,-20.3026 318.843,-17.554 309.13,-13.3219 308.611,-20.3026"/>
</g>
</g>
</svg>
