<?xml version="1.0" encoding="UTF-8" standalone="no"?>
<!DOCTYPE svg PUBLIC "-//W3C//DTD SVG 1.1//EN"
 "http://www.w3.org/Graphics/SVG/1.1/DTD/svg11.dtd">
<!-- Generated by graphviz version 2.38.0 (20140413.2041)
 -->
<!-- Title: Charset Pages: 1 -->
<svg width="76pt" height="137pt"
 viewBox="0.00 0.00 75.70 137.00" xmlns="http://www.w3.org/2000/svg" xmlns:xlink="http://www.w3.org/1999/xlink">
<g id="graph0" class="graph" transform="scale(1 1) rotate(0) translate(4 133)">
<title>Charset</title>
<polygon fill="white" stroke="none" points="-4,4 -4,-133 71.7041,-133 71.7041,4 -4,4"/>
<!-- Node1 -->
<g id="node1" class="node"><title>Node1</title>
<polygon fill="#bfbfbf" stroke="black" points="8.34473,-0.5 8.34473,-18.5 59.3594,-18.5 59.3594,-0.5 8.34473,-0.5"/>
<text text-anchor="middle" x="33.8521" y="-6.5" font-family="Helvetica,sans-Serif" font-size="10.00">Charset</text>
</g>
<!-- Node2 -->
<g id="node2" class="node"><title>Node2</title>
<g id="a_node2"><a xlink:href="interface_sabberworm_1_1_c_s_s_1_1_property_1_1_at_rule.html" target="_top" xlink:title="AtRule">
<polygon fill="white" stroke="black" points="10.8447,-55.5 10.8447,-73.5 56.8594,-73.5 56.8594,-55.5 10.8447,-55.5"/>
<text text-anchor="middle" x="33.8521" y="-61.5" font-family="Helvetica,sans-Serif" font-size="10.00">AtRule</text>
</a>
</g>
</g>
<!-- Node2&#45;&gt;Node1 -->
<g id="edge1" class="edge"><title>Node2&#45;&gt;Node1</title>
<path fill="none" stroke="midnightblue" d="M33.8521,-45.1746C33.8521,-36.0945 33.8521,-25.5949 33.8521,-18.5496"/>
<polygon fill="midnightblue" stroke="midnightblue" points="30.3522,-45.2187 33.8521,-55.2188 37.3522,-45.2188 30.3522,-45.2187"/>
</g>
<!-- Node3 -->
<g id="node3" class="node"><title>Node3</title>
<g id="a_node3"><a xlink:href="interface_sabberworm_1_1_c_s_s_1_1_renderable.html" target="_top" xlink:title="Renderable">
<polygon fill="white" stroke="black" points="0,-110.5 0,-128.5 67.7041,-128.5 67.7041,-110.5 0,-110.5"/>
<text text-anchor="middle" x="33.8521" y="-116.5" font-family="Helvetica,sans-Serif" font-size="10.00">Renderable</text>
</a>
</g>
</g>
<!-- Node3&#45;&gt;Node2 -->
<g id="edge2" class="edge"><title>Node3&#45;&gt;Node2</title>
<path fill="none" stroke="midnightblue" d="M33.8521,-100.175C33.8521,-91.0945 33.8521,-80.5949 33.8521,-73.5496"/>
<polygon fill="midnightblue" stroke="midnightblue" points="30.3522,-100.219 33.8521,-110.219 37.3522,-100.219 30.3522,-100.219"/>
</g>
</g>
</svg>
