<?xml version="1.0" encoding="UTF-8" standalone="no"?>
<!DOCTYPE svg PUBLIC "-//W3C//DTD SVG 1.1//EN"
 "http://www.w3.org/Graphics/SVG/1.1/DTD/svg11.dtd">
<!-- Generated by graphviz version 2.38.0 (20140413.2041)
 -->
<!-- Title: Color Pages: 1 -->
<svg width="83pt" height="247pt"
 viewBox="0.00 0.00 82.92 247.00" xmlns="http://www.w3.org/2000/svg" xmlns:xlink="http://www.w3.org/1999/xlink">
<g id="graph0" class="graph" transform="scale(1 1) rotate(0) translate(4 243)">
<title>Color</title>
<polygon fill="white" stroke="none" points="-4,4 -4,-243 78.916,-243 78.916,4 -4,4"/>
<!-- Node1 -->
<g id="node1" class="node"><title>Node1</title>
<polygon fill="#bfbfbf" stroke="black" points="17.5098,-0.5 17.5098,-18.5 57.4062,-18.5 57.4062,-0.5 17.5098,-0.5"/>
<text text-anchor="middle" x="37.458" y="-6.5" font-family="Helvetica,sans-Serif" font-size="10.00">Color</text>
</g>
<!-- Node2 -->
<g id="node2" class="node"><title>Node2</title>
<g id="a_node2"><a xlink:href="class_sabberworm_1_1_c_s_s_1_1_value_1_1_c_s_s_function.html" target="_top" xlink:title="CSSFunction">
<polygon fill="white" stroke="black" points="0,-55.5 0,-73.5 74.916,-73.5 74.916,-55.5 0,-55.5"/>
<text text-anchor="middle" x="37.458" y="-61.5" font-family="Helvetica,sans-Serif" font-size="10.00">CSSFunction</text>
</a>
</g>
</g>
<!-- Node2&#45;&gt;Node1 -->
<g id="edge1" class="edge"><title>Node2&#45;&gt;Node1</title>
<path fill="none" stroke="midnightblue" d="M37.458,-45.1746C37.458,-36.0945 37.458,-25.5949 37.458,-18.5496"/>
<polygon fill="midnightblue" stroke="midnightblue" points="33.9581,-45.2187 37.458,-55.2188 40.9581,-45.2188 33.9581,-45.2187"/>
</g>
<!-- Node3 -->
<g id="node3" class="node"><title>Node3</title>
<g id="a_node3"><a xlink:href="class_sabberworm_1_1_c_s_s_1_1_value_1_1_value_list.html" target="_top" xlink:title="ValueList">
<polygon fill="white" stroke="black" points="9.25781,-110.5 9.25781,-128.5 65.6582,-128.5 65.6582,-110.5 9.25781,-110.5"/>
<text text-anchor="middle" x="37.458" y="-116.5" font-family="Helvetica,sans-Serif" font-size="10.00">ValueList</text>
</a>
</g>
</g>
<!-- Node3&#45;&gt;Node2 -->
<g id="edge2" class="edge"><title>Node3&#45;&gt;Node2</title>
<path fill="none" stroke="midnightblue" d="M37.458,-100.175C37.458,-91.0945 37.458,-80.5949 37.458,-73.5496"/>
<polygon fill="midnightblue" stroke="midnightblue" points="33.9581,-100.219 37.458,-110.219 40.9581,-100.219 33.9581,-100.219"/>
</g>
<!-- Node4 -->
<g id="node4" class="node"><title>Node4</title>
<g id="a_node4"><a xlink:href="class_sabberworm_1_1_c_s_s_1_1_value_1_1_value.html" target="_top" xlink:title="Value">
<polygon fill="white" stroke="black" points="17.0386,-165.5 17.0386,-183.5 57.8774,-183.5 57.8774,-165.5 17.0386,-165.5"/>
<text text-anchor="middle" x="37.458" y="-171.5" font-family="Helvetica,sans-Serif" font-size="10.00">Value</text>
</a>
</g>
</g>
<!-- Node4&#45;&gt;Node3 -->
<g id="edge3" class="edge"><title>Node4&#45;&gt;Node3</title>
<path fill="none" stroke="midnightblue" d="M37.458,-155.175C37.458,-146.094 37.458,-135.595 37.458,-128.55"/>
<polygon fill="midnightblue" stroke="midnightblue" points="33.9581,-155.219 37.458,-165.219 40.9581,-155.219 33.9581,-155.219"/>
</g>
<!-- Node5 -->
<g id="node5" class="node"><title>Node5</title>
<g id="a_node5"><a xlink:href="interface_sabberworm_1_1_c_s_s_1_1_renderable.html" target="_top" xlink:title="Renderable">
<polygon fill="white" stroke="black" points="3.60596,-220.5 3.60596,-238.5 71.3101,-238.5 71.3101,-220.5 3.60596,-220.5"/>
<text text-anchor="middle" x="37.458" y="-226.5" font-family="Helvetica,sans-Serif" font-size="10.00">Renderable</text>
</a>
</g>
</g>
<!-- Node5&#45;&gt;Node4 -->
<g id="edge4" class="edge"><title>Node5&#45;&gt;Node4</title>
<path fill="none" stroke="midnightblue" d="M37.458,-210.175C37.458,-201.094 37.458,-190.595 37.458,-183.55"/>
<polygon fill="midnightblue" stroke="midnightblue" points="33.9581,-210.219 37.458,-220.219 40.9581,-210.219 33.9581,-210.219"/>
</g>
</g>
</svg>
