<?xml version="1.0" encoding="UTF-8" standalone="no"?>
<!DOCTYPE svg PUBLIC "-//W3C//DTD SVG 1.1//EN"
 "http://www.w3.org/Graphics/SVG/1.1/DTD/svg11.dtd">
<!-- Generated by graphviz version 2.38.0 (20140413.2041)
 -->
<!-- Title: DeclarationBlock Pages: 1 -->
<svg width="99pt" height="137pt"
 viewBox="0.00 0.00 99.03 137.00" xmlns="http://www.w3.org/2000/svg" xmlns:xlink="http://www.w3.org/1999/xlink">
<g id="graph0" class="graph" transform="scale(1 1) rotate(0) translate(4 133)">
<title>DeclarationBlock</title>
<polygon fill="white" stroke="none" points="-4,4 -4,-133 95.0342,-133 95.0342,4 -4,4"/>
<!-- Node1 -->
<g id="node1" class="node"><title>Node1</title>
<polygon fill="#bfbfbf" stroke="black" points="0,-0.5 0,-18.5 91.0342,-18.5 91.0342,-0.5 0,-0.5"/>
<text text-anchor="middle" x="45.5171" y="-6.5" font-family="Helvetica,sans-Serif" font-size="10.00">DeclarationBlock</text>
</g>
<!-- Node2 -->
<g id="node2" class="node"><title>Node2</title>
<g id="a_node2"><a xlink:href="class_sabberworm_1_1_c_s_s_1_1_rule_set_1_1_rule_set.html" target="_top" xlink:title="RuleSet is a generic superclass denoting rules. ">
<polygon fill="white" stroke="black" points="19.729,-55.5 19.729,-73.5 71.3052,-73.5 71.3052,-55.5 19.729,-55.5"/>
<text text-anchor="middle" x="45.5171" y="-61.5" font-family="Helvetica,sans-Serif" font-size="10.00">RuleSet</text>
</a>
</g>
</g>
<!-- Node2&#45;&gt;Node1 -->
<g id="edge1" class="edge"><title>Node2&#45;&gt;Node1</title>
<path fill="none" stroke="midnightblue" d="M45.5171,-45.1746C45.5171,-36.0945 45.5171,-25.5949 45.5171,-18.5496"/>
<polygon fill="midnightblue" stroke="midnightblue" points="42.0172,-45.2187 45.5171,-55.2188 49.0172,-45.2188 42.0172,-45.2187"/>
</g>
<!-- Node3 -->
<g id="node3" class="node"><title>Node3</title>
<g id="a_node3"><a xlink:href="interface_sabberworm_1_1_c_s_s_1_1_renderable.html" target="_top" xlink:title="Renderable">
<polygon fill="white" stroke="black" points="11.665,-110.5 11.665,-128.5 79.3691,-128.5 79.3691,-110.5 11.665,-110.5"/>
<text text-anchor="middle" x="45.5171" y="-116.5" font-family="Helvetica,sans-Serif" font-size="10.00">Renderable</text>
</a>
</g>
</g>
<!-- Node3&#45;&gt;Node2 -->
<g id="edge2" class="edge"><title>Node3&#45;&gt;Node2</title>
<path fill="none" stroke="midnightblue" d="M45.5171,-100.175C45.5171,-91.0945 45.5171,-80.5949 45.5171,-73.5496"/>
<polygon fill="midnightblue" stroke="midnightblue" points="42.0172,-100.219 45.5171,-110.219 49.0172,-100.219 42.0172,-100.219"/>
</g>
</g>
</svg>
