<?xml version="1.0" encoding="UTF-8" standalone="no"?>
<!DOCTYPE svg PUBLIC "-//W3C//DTD SVG 1.1//EN"
 "http://www.w3.org/Graphics/SVG/1.1/DTD/svg11.dtd">
<!-- Generated by graphviz version 2.38.0 (20140413.2041)
 -->
<!-- Title: Value Pages: 1 -->
<svg width="350pt" height="252pt"
 viewBox="0.00 0.00 350.00 252.00" xmlns="http://www.w3.org/2000/svg" xmlns:xlink="http://www.w3.org/1999/xlink">
<g id="graph0" class="graph" transform="scale(1 1) rotate(0) translate(4 248)">
<title>Value</title>
<polygon fill="white" stroke="none" points="-4,4 -4,-248 346,-248 346,4 -4,4"/>
<!-- Node1 -->
<g id="node1" class="node"><title>Node1</title>
<polygon fill="#bfbfbf" stroke="black" points="143,-168.5 143,-187.5 185,-187.5 185,-168.5 143,-168.5"/>
<text text-anchor="middle" x="164" y="-175.5" font-family="Helvetica,sans-Serif" font-size="10.00">Value</text>
</g>
<!-- Node3 -->
<g id="node3" class="node"><title>Node3</title>
<g id="a_node3"><a xlink:href="class_sabberworm_1_1_c_s_s_1_1_value_1_1_primitive_value.html" target="_top" xlink:title="PrimitiveValue">
<polygon fill="white" stroke="black" points="58,-112.5 58,-131.5 138,-131.5 138,-112.5 58,-112.5"/>
<text text-anchor="middle" x="98" y="-119.5" font-family="Helvetica,sans-Serif" font-size="10.00">PrimitiveValue</text>
</a>
</g>
</g>
<!-- Node1&#45;&gt;Node3 -->
<g id="edge2" class="edge"><title>Node1&#45;&gt;Node3</title>
<path fill="none" stroke="midnightblue" d="M145.446,-161.82C133.622,-152.145 118.714,-139.948 108.797,-131.834"/>
<polygon fill="midnightblue" stroke="midnightblue" points="143.44,-164.7 153.396,-168.324 147.873,-159.283 143.44,-164.7"/>
</g>
<!-- Node7 -->
<g id="node7" class="node"><title>Node7</title>
<g id="a_node7"><a xlink:href="class_sabberworm_1_1_c_s_s_1_1_value_1_1_value_list.html" target="_top" xlink:title="ValueList">
<polygon fill="white" stroke="black" points="179,-112.5 179,-131.5 237,-131.5 237,-112.5 179,-112.5"/>
<text text-anchor="middle" x="208" y="-119.5" font-family="Helvetica,sans-Serif" font-size="10.00">ValueList</text>
</a>
</g>
</g>
<!-- Node1&#45;&gt;Node7 -->
<g id="edge6" class="edge"><title>Node1&#45;&gt;Node7</title>
<path fill="none" stroke="midnightblue" d="M177.735,-160.144C185.401,-150.736 194.633,-139.405 200.869,-131.751"/>
<polygon fill="midnightblue" stroke="midnightblue" points="174.869,-158.12 171.266,-168.083 180.296,-162.541 174.869,-158.12"/>
</g>
<!-- Node2 -->
<g id="node2" class="node"><title>Node2</title>
<g id="a_node2"><a xlink:href="interface_sabberworm_1_1_c_s_s_1_1_renderable.html" target="_top" xlink:title="Renderable">
<polygon fill="white" stroke="black" points="130,-224.5 130,-243.5 198,-243.5 198,-224.5 130,-224.5"/>
<text text-anchor="middle" x="164" y="-231.5" font-family="Helvetica,sans-Serif" font-size="10.00">Renderable</text>
</a>
</g>
</g>
<!-- Node2&#45;&gt;Node1 -->
<g id="edge1" class="edge"><title>Node2&#45;&gt;Node1</title>
<path fill="none" stroke="midnightblue" d="M164,-213.805C164,-204.91 164,-194.78 164,-187.751"/>
<polygon fill="midnightblue" stroke="midnightblue" points="160.5,-214.083 164,-224.083 167.5,-214.083 160.5,-214.083"/>
</g>
<!-- Node4 -->
<g id="node4" class="node"><title>Node4</title>
<g id="a_node4"><a xlink:href="class_sabberworm_1_1_c_s_s_1_1_value_1_1_size.html" target="_top" xlink:title="Size">
<polygon fill="white" stroke="black" points="0,-56.5 0,-75.5 36,-75.5 36,-56.5 0,-56.5"/>
<text text-anchor="middle" x="18" y="-63.5" font-family="Helvetica,sans-Serif" font-size="10.00">Size</text>
</a>
</g>
</g>
<!-- Node3&#45;&gt;Node4 -->
<g id="edge3" class="edge"><title>Node3&#45;&gt;Node4</title>
<path fill="none" stroke="midnightblue" d="M76.6994,-106.622C62.085,-96.7574 43.1732,-83.9919 30.8215,-75.6545"/>
<polygon fill="midnightblue" stroke="midnightblue" points="74.8999,-109.63 85.1466,-112.324 78.8163,-103.828 74.8999,-109.63"/>
</g>
<!-- Node5 -->
<g id="node5" class="node"><title>Node5</title>
<g id="a_node5"><a xlink:href="class_sabberworm_1_1_c_s_s_1_1_value_1_1_string.html" target="_top" xlink:title="String">
<polygon fill="white" stroke="black" points="54.5,-56.5 54.5,-75.5 97.5,-75.5 97.5,-56.5 54.5,-56.5"/>
<text text-anchor="middle" x="76" y="-63.5" font-family="Helvetica,sans-Serif" font-size="10.00">String</text>
</a>
</g>
</g>
<!-- Node3&#45;&gt;Node5 -->
<g id="edge4" class="edge"><title>Node3&#45;&gt;Node5</title>
<path fill="none" stroke="midnightblue" d="M90.5402,-102.69C86.8326,-93.589 82.5243,-83.0141 79.5653,-75.7511"/>
<polygon fill="midnightblue" stroke="midnightblue" points="87.3528,-104.143 94.3671,-112.083 93.8354,-101.502 87.3528,-104.143"/>
</g>
<!-- Node6 -->
<g id="node6" class="node"><title>Node6</title>
<g id="a_node6"><a xlink:href="class_sabberworm_1_1_c_s_s_1_1_value_1_1_u_r_l.html" target="_top" xlink:title="URL">
<polygon fill="white" stroke="black" points="115.5,-56.5 115.5,-75.5 152.5,-75.5 152.5,-56.5 115.5,-56.5"/>
<text text-anchor="middle" x="134" y="-63.5" font-family="Helvetica,sans-Serif" font-size="10.00">URL</text>
</a>
</g>
</g>
<!-- Node3&#45;&gt;Node6 -->
<g id="edge5" class="edge"><title>Node3&#45;&gt;Node6</title>
<path fill="none" stroke="midnightblue" d="M109.623,-103.566C115.817,-94.2747 123.168,-83.2484 128.166,-75.7511"/>
<polygon fill="midnightblue" stroke="midnightblue" points="106.58,-101.821 103.945,-112.083 112.404,-105.704 106.58,-101.821"/>
</g>
<!-- Node8 -->
<g id="node8" class="node"><title>Node8</title>
<g id="a_node8"><a xlink:href="class_sabberworm_1_1_c_s_s_1_1_value_1_1_c_s_s_function.html" target="_top" xlink:title="CSSFunction">
<polygon fill="white" stroke="black" points="170.5,-56.5 170.5,-75.5 245.5,-75.5 245.5,-56.5 170.5,-56.5"/>
<text text-anchor="middle" x="208" y="-63.5" font-family="Helvetica,sans-Serif" font-size="10.00">CSSFunction</text>
</a>
</g>
</g>
<!-- Node7&#45;&gt;Node8 -->
<g id="edge7" class="edge"><title>Node7&#45;&gt;Node8</title>
<path fill="none" stroke="midnightblue" d="M208,-101.805C208,-92.9102 208,-82.7798 208,-75.7511"/>
<polygon fill="midnightblue" stroke="midnightblue" points="204.5,-102.083 208,-112.083 211.5,-102.083 204.5,-102.083"/>
</g>
<!-- Node10 -->
<g id="node10" class="node"><title>Node10</title>
<g id="a_node10"><a xlink:href="class_sabberworm_1_1_c_s_s_1_1_value_1_1_rule_value_list.html" target="_top" xlink:title="RuleValueList">
<polygon fill="white" stroke="black" points="264,-56.5 264,-75.5 342,-75.5 342,-56.5 264,-56.5"/>
<text text-anchor="middle" x="303" y="-63.5" font-family="Helvetica,sans-Serif" font-size="10.00">RuleValueList</text>
</a>
</g>
</g>
<!-- Node7&#45;&gt;Node10 -->
<g id="edge9" class="edge"><title>Node7&#45;&gt;Node10</title>
<path fill="none" stroke="midnightblue" d="M232.318,-107.177C249.799,-97.2407 272.83,-84.1492 287.774,-75.6545"/>
<polygon fill="midnightblue" stroke="midnightblue" points="230.227,-104.339 223.263,-112.324 233.687,-110.425 230.227,-104.339"/>
</g>
<!-- Node9 -->
<g id="node9" class="node"><title>Node9</title>
<g id="a_node9"><a xlink:href="class_sabberworm_1_1_c_s_s_1_1_value_1_1_color.html" target="_top" xlink:title="Color">
<polygon fill="white" stroke="black" points="188,-0.5 188,-19.5 228,-19.5 228,-0.5 188,-0.5"/>
<text text-anchor="middle" x="208" y="-7.5" font-family="Helvetica,sans-Serif" font-size="10.00">Color</text>
</a>
</g>
</g>
<!-- Node8&#45;&gt;Node9 -->
<g id="edge8" class="edge"><title>Node8&#45;&gt;Node9</title>
<path fill="none" stroke="midnightblue" d="M208,-45.8045C208,-36.9102 208,-26.7798 208,-19.7511"/>
<polygon fill="midnightblue" stroke="midnightblue" points="204.5,-46.083 208,-56.083 211.5,-46.083 204.5,-46.083"/>
</g>
</g>
</svg>
