<?xml version="1.0" encoding="UTF-8" standalone="no"?>
<!DOCTYPE svg PUBLIC "-//W3C//DTD SVG 1.1//EN"
 "http://www.w3.org/Graphics/SVG/1.1/DTD/svg11.dtd">
<!-- Generated by graphviz version 2.38.0 (20140413.2041)
 -->
<!-- Title: PrimitiveValue Pages: 1 -->
<svg width="87pt" height="137pt"
 viewBox="0.00 0.00 87.17 137.00" xmlns="http://www.w3.org/2000/svg" xmlns:xlink="http://www.w3.org/1999/xlink">
<g id="graph0" class="graph" transform="scale(1 1) rotate(0) translate(4 133)">
<title>PrimitiveValue</title>
<polygon fill="white" stroke="none" points="-4,4 -4,-133 83.1738,-133 83.1738,4 -4,4"/>
<!-- Node1 -->
<g id="node1" class="node"><title>Node1</title>
<polygon fill="#bfbfbf" stroke="black" points="0,-0.5 0,-18.5 79.1738,-18.5 79.1738,-0.5 0,-0.5"/>
<text text-anchor="middle" x="39.5869" y="-6.5" font-family="Helvetica,sans-Serif" font-size="10.00">PrimitiveValue</text>
</g>
<!-- Node2 -->
<g id="node2" class="node"><title>Node2</title>
<g id="a_node2"><a xlink:href="class_sabberworm_1_1_c_s_s_1_1_value_1_1_value.html" target="_top" xlink:title="Value">
<polygon fill="white" stroke="black" points="19.1675,-55.5 19.1675,-73.5 60.0063,-73.5 60.0063,-55.5 19.1675,-55.5"/>
<text text-anchor="middle" x="39.5869" y="-61.5" font-family="Helvetica,sans-Serif" font-size="10.00">Value</text>
</a>
</g>
</g>
<!-- Node2&#45;&gt;Node1 -->
<g id="edge1" class="edge"><title>Node2&#45;&gt;Node1</title>
<path fill="none" stroke="midnightblue" d="M39.5869,-45.1746C39.5869,-36.0945 39.5869,-25.5949 39.5869,-18.5496"/>
<polygon fill="midnightblue" stroke="midnightblue" points="36.087,-45.2187 39.5869,-55.2188 43.087,-45.2188 36.087,-45.2187"/>
</g>
<!-- Node3 -->
<g id="node3" class="node"><title>Node3</title>
<g id="a_node3"><a xlink:href="interface_sabberworm_1_1_c_s_s_1_1_renderable.html" target="_top" xlink:title="Renderable">
<polygon fill="white" stroke="black" points="5.73486,-110.5 5.73486,-128.5 73.439,-128.5 73.439,-110.5 5.73486,-110.5"/>
<text text-anchor="middle" x="39.5869" y="-116.5" font-family="Helvetica,sans-Serif" font-size="10.00">Renderable</text>
</a>
</g>
</g>
<!-- Node3&#45;&gt;Node2 -->
<g id="edge2" class="edge"><title>Node3&#45;&gt;Node2</title>
<path fill="none" stroke="midnightblue" d="M39.5869,-100.175C39.5869,-91.0945 39.5869,-80.5949 39.5869,-73.5496"/>
<polygon fill="midnightblue" stroke="midnightblue" points="36.087,-100.219 39.5869,-110.219 43.087,-100.219 36.087,-100.219"/>
</g>
</g>
</svg>
