<?xml version="1.0" encoding="UTF-8" standalone="no"?>
<!DOCTYPE svg PUBLIC "-//W3C//DTD SVG 1.1//EN"
 "http://www.w3.org/Graphics/SVG/1.1/DTD/svg11.dtd">
<!-- Generated by graphviz version 2.38.0 (20140413.2041)
 -->
<!-- Title: RuleSet Pages: 1 -->
<svg width="178pt" height="137pt"
 viewBox="0.00 0.00 178.03 137.00" xmlns="http://www.w3.org/2000/svg" xmlns:xlink="http://www.w3.org/1999/xlink">
<g id="graph0" class="graph" transform="scale(1 1) rotate(0) translate(4 133)">
<title>RuleSet</title>
<polygon fill="white" stroke="none" points="-4,4 -4,-133 174.029,-133 174.029,4 -4,4"/>
<!-- Node1 -->
<g id="node1" class="node"><title>Node1</title>
<polygon fill="#bfbfbf" stroke="black" points="51.7241,-55.5 51.7241,-73.5 103.3,-73.5 103.3,-55.5 51.7241,-55.5"/>
<text text-anchor="middle" x="77.5122" y="-61.5" font-family="Helvetica,sans-Serif" font-size="10.00">RuleSet</text>
</g>
<!-- Node3 -->
<g id="node3" class="node"><title>Node3</title>
<g id="a_node3"><a xlink:href="class_sabberworm_1_1_c_s_s_1_1_rule_set_1_1_at_rule_set.html" target="_top" xlink:title="A RuleSet constructed by an unknown &#45;rule. ">
<polygon fill="white" stroke="black" points="0,-0.5 0,-18.5 61.0244,-18.5 61.0244,-0.5 0,-0.5"/>
<text text-anchor="middle" x="30.5122" y="-6.5" font-family="Helvetica,sans-Serif" font-size="10.00">AtRuleSet</text>
</a>
</g>
</g>
<!-- Node1&#45;&gt;Node3 -->
<g id="edge2" class="edge"><title>Node1&#45;&gt;Node3</title>
<path fill="none" stroke="midnightblue" d="M63.3529,-47.5331C54.87,-37.9673 44.4475,-26.2143 37.6505,-18.5496"/>
<polygon fill="midnightblue" stroke="midnightblue" points="60.9149,-50.0591 70.1685,-55.2188 66.1522,-45.4146 60.9149,-50.0591"/>
</g>
<!-- Node4 -->
<g id="node4" class="node"><title>Node4</title>
<g id="a_node4"><a xlink:href="class_sabberworm_1_1_c_s_s_1_1_rule_set_1_1_declaration_block.html" target="_top" xlink:title="Declaration blocks are the parts of a css file which denote the rules belonging to a selector...">
<polygon fill="white" stroke="black" points="78.9951,-0.5 78.9951,-18.5 170.029,-18.5 170.029,-0.5 78.9951,-0.5"/>
<text text-anchor="middle" x="124.512" y="-6.5" font-family="Helvetica,sans-Serif" font-size="10.00">DeclarationBlock</text>
</a>
</g>
</g>
<!-- Node1&#45;&gt;Node4 -->
<g id="edge3" class="edge"><title>Node1&#45;&gt;Node4</title>
<path fill="none" stroke="midnightblue" d="M91.6715,-47.5331C100.154,-37.9673 110.577,-26.2143 117.374,-18.5496"/>
<polygon fill="midnightblue" stroke="midnightblue" points="88.8722,-45.4146 84.856,-55.2188 94.1095,-50.0591 88.8722,-45.4146"/>
</g>
<!-- Node2 -->
<g id="node2" class="node"><title>Node2</title>
<g id="a_node2"><a xlink:href="interface_sabberworm_1_1_c_s_s_1_1_renderable.html" target="_top" xlink:title="Renderable">
<polygon fill="white" stroke="black" points="43.6602,-110.5 43.6602,-128.5 111.364,-128.5 111.364,-110.5 43.6602,-110.5"/>
<text text-anchor="middle" x="77.5122" y="-116.5" font-family="Helvetica,sans-Serif" font-size="10.00">Renderable</text>
</a>
</g>
</g>
<!-- Node2&#45;&gt;Node1 -->
<g id="edge1" class="edge"><title>Node2&#45;&gt;Node1</title>
<path fill="none" stroke="midnightblue" d="M77.5122,-100.175C77.5122,-91.0945 77.5122,-80.5949 77.5122,-73.5496"/>
<polygon fill="midnightblue" stroke="midnightblue" points="74.0123,-100.219 77.5122,-110.219 81.0123,-100.219 74.0123,-100.219"/>
</g>
</g>
</svg>
