<?xml version="1.0" encoding="UTF-8" standalone="no"?>
<!DOCTYPE svg PUBLIC "-//W3C//DTD SVG 1.1//EN"
 "http://www.w3.org/Graphics/SVG/1.1/DTD/svg11.dtd">
<!-- Generated by graphviz version 2.38.0 (20140413.2041)
 -->
<!-- Title: expandBorderShorthand Pages: 1 -->
<svg width="303pt" height="84pt"
 viewBox="0.00 0.00 303.35 84.00" xmlns="http://www.w3.org/2000/svg" xmlns:xlink="http://www.w3.org/1999/xlink">
<g id="graph0" class="graph" transform="scale(1 1) rotate(0) translate(4 80)">
<title>expandBorderShorthand</title>
<polygon fill="white" stroke="none" points="-4,4 -4,-80 299.354,-80 299.354,4 -4,4"/>
<!-- Node1 -->
<g id="node1" class="node"><title>Node1</title>
<polygon fill="#bfbfbf" stroke="black" points="0,-28.5 0,-46.5 124.97,-46.5 124.97,-28.5 0,-28.5"/>
<text text-anchor="middle" x="62.4849" y="-34.5" font-family="Helvetica,sans-Serif" font-size="10.00">expandBorderShorthand</text>
</g>
<!-- Node2 -->
<g id="node2" class="node"><title>Node2</title>
<g id="a_node2"><a xlink:href="class_sabberworm_1_1_c_s_s_1_1_rule_set_1_1_rule_set.html#a4c3d0bd0fd1b0755a724d99b93af944b" target="_top" xlink:title="Returns all rules matching the given pattern and returns them in an associative array with the rule’...">
<polygon fill="white" stroke="black" points="160.97,-47.5 160.97,-75.5 295.354,-75.5 295.354,-47.5 160.97,-47.5"/>
<text text-anchor="start" x="168.97" y="-63.5" font-family="Helvetica,sans-Serif" font-size="10.00">Sabberworm\CSS\RuleSet</text>
<text text-anchor="middle" x="228.162" y="-53.5" font-family="Helvetica,sans-Serif" font-size="10.00">\RuleSet\getRulesAssoc</text>
</a>
</g>
</g>
<!-- Node1&#45;&gt;Node2 -->
<g id="edge1" class="edge"><title>Node1&#45;&gt;Node2</title>
<path fill="none" stroke="midnightblue" d="M124.898,-46.505C133.308,-47.7382 142.026,-49.0166 150.665,-50.2832"/>
<polygon fill="midnightblue" stroke="midnightblue" points="150.344,-53.7735 160.746,-51.7614 151.359,-46.8475 150.344,-53.7735"/>
</g>
<!-- Node3 -->
<g id="node3" class="node"><title>Node3</title>
<g id="a_node3"><a xlink:href="class_sabberworm_1_1_c_s_s_1_1_rule_set_1_1_rule_set.html#aca06340187f0b4dd11186527e6a0faae" target="_top" xlink:title="Remove a rule from this RuleSet. ">
<polygon fill="white" stroke="black" points="160.97,-0.5 160.97,-28.5 295.354,-28.5 295.354,-0.5 160.97,-0.5"/>
<text text-anchor="start" x="168.97" y="-16.5" font-family="Helvetica,sans-Serif" font-size="10.00">Sabberworm\CSS\RuleSet</text>
<text text-anchor="middle" x="228.162" y="-6.5" font-family="Helvetica,sans-Serif" font-size="10.00">\RuleSet\removeRule</text>
</a>
</g>
</g>
<!-- Node1&#45;&gt;Node3 -->
<g id="edge2" class="edge"><title>Node1&#45;&gt;Node3</title>
<path fill="none" stroke="midnightblue" d="M125.364,-28.8047C133.693,-27.6343 142.315,-26.4227 150.856,-25.2225"/>
<polygon fill="midnightblue" stroke="midnightblue" points="151.408,-28.6794 160.824,-23.8218 150.434,-21.7475 151.408,-28.6794"/>
</g>
</g>
</svg>
