<?xml version="1.0" encoding="UTF-8" standalone="no"?>
<!DOCTYPE svg PUBLIC "-//W3C//DTD SVG 1.1//EN"
 "http://www.w3.org/Graphics/SVG/1.1/DTD/svg11.dtd">
<!-- Generated by graphviz version 2.38.0 (20140413.2041)
 -->
<!-- Title: createFontShorthand Pages: 1 -->
<svg width="288pt" height="84pt"
 viewBox="0.00 0.00 288.33 84.00" xmlns="http://www.w3.org/2000/svg" xmlns:xlink="http://www.w3.org/1999/xlink">
<g id="graph0" class="graph" transform="scale(1 1) rotate(0) translate(4 80)">
<title>createFontShorthand</title>
<polygon fill="white" stroke="none" points="-4,4 -4,-80 284.334,-80 284.334,4 -4,4"/>
<!-- Node1 -->
<g id="node1" class="node"><title>Node1</title>
<polygon fill="#bfbfbf" stroke="black" points="0,-28.5 0,-46.5 109.95,-46.5 109.95,-28.5 0,-28.5"/>
<text text-anchor="middle" x="54.9751" y="-34.5" font-family="Helvetica,sans-Serif" font-size="10.00">createFontShorthand</text>
</g>
<!-- Node2 -->
<g id="node2" class="node"><title>Node2</title>
<g id="a_node2"><a xlink:href="class_sabberworm_1_1_c_s_s_1_1_rule_set_1_1_rule_set.html#a4c3d0bd0fd1b0755a724d99b93af944b" target="_top" xlink:title="Returns all rules matching the given pattern and returns them in an associative array with the rule’...">
<polygon fill="white" stroke="black" points="145.95,-47.5 145.95,-75.5 280.334,-75.5 280.334,-47.5 145.95,-47.5"/>
<text text-anchor="start" x="153.95" y="-63.5" font-family="Helvetica,sans-Serif" font-size="10.00">Sabberworm\CSS\RuleSet</text>
<text text-anchor="middle" x="213.142" y="-53.5" font-family="Helvetica,sans-Serif" font-size="10.00">\RuleSet\getRulesAssoc</text>
</a>
</g>
</g>
<!-- Node1&#45;&gt;Node2 -->
<g id="edge1" class="edge"><title>Node1&#45;&gt;Node2</title>
<path fill="none" stroke="midnightblue" d="M110.156,-45.8267C118.451,-47.1014 127.144,-48.4374 135.808,-49.7689"/>
<polygon fill="midnightblue" stroke="midnightblue" points="135.525,-53.2664 145.941,-51.3261 136.588,-46.3476 135.525,-53.2664"/>
</g>
<!-- Node3 -->
<g id="node3" class="node"><title>Node3</title>
<g id="a_node3"><a xlink:href="class_sabberworm_1_1_c_s_s_1_1_rule_set_1_1_rule_set.html#aca06340187f0b4dd11186527e6a0faae" target="_top" xlink:title="Remove a rule from this RuleSet. ">
<polygon fill="white" stroke="black" points="145.95,-0.5 145.95,-28.5 280.334,-28.5 280.334,-0.5 145.95,-0.5"/>
<text text-anchor="start" x="153.95" y="-16.5" font-family="Helvetica,sans-Serif" font-size="10.00">Sabberworm\CSS\RuleSet</text>
<text text-anchor="middle" x="213.142" y="-6.5" font-family="Helvetica,sans-Serif" font-size="10.00">\RuleSet\removeRule</text>
</a>
</g>
</g>
<!-- Node1&#45;&gt;Node3 -->
<g id="edge2" class="edge"><title>Node1&#45;&gt;Node3</title>
<path fill="none" stroke="midnightblue" d="M110.156,-29.5203C118.451,-28.2986 127.144,-27.0183 135.808,-25.7423"/>
<polygon fill="midnightblue" stroke="midnightblue" points="136.557,-29.1698 145.941,-24.25 135.537,-22.2445 136.557,-29.1698"/>
</g>
</g>
</svg>
