<?xml version="1.0" encoding="UTF-8" standalone="no"?>
<!DOCTYPE svg PUBLIC "-//W3C//DTD SVG 1.1//EN"
 "http://www.w3.org/Graphics/SVG/1.1/DTD/svg11.dtd">
<!-- Generated by graphviz version 2.38.0 (20140413.2041)
 -->
<!-- Title: CSSList Pages: 1 -->
<svg width="215pt" height="137pt"
 viewBox="0.00 0.00 215.08 137.00" xmlns="http://www.w3.org/2000/svg" xmlns:xlink="http://www.w3.org/1999/xlink">
<g id="graph0" class="graph" transform="scale(1 1) rotate(0) translate(4 133)">
<title>CSSList</title>
<polygon fill="white" stroke="none" points="-4,4 -4,-133 211.076,-133 211.076,4 -4,4"/>
<!-- Node1 -->
<g id="node1" class="node"><title>Node1</title>
<polygon fill="#bfbfbf" stroke="black" points="105.953,-110.5 105.953,-128.5 158.076,-128.5 158.076,-110.5 105.953,-110.5"/>
<text text-anchor="middle" x="132.015" y="-116.5" font-family="Helvetica,sans-Serif" font-size="10.00">CSSList</text>
</g>
<!-- Node2 -->
<g id="node2" class="node"><title>Node2</title>
<g id="a_node2"><a xlink:href="class_sabberworm_1_1_c_s_s_1_1_c_s_s_list_1_1_c_s_s_block_list.html" target="_top" xlink:title="A CSSBlockList is a CSSList whose DeclarationBlocks are guaranteed to contain valid declaration block...">
<polygon fill="white" stroke="black" points="50.7266,-55.5 50.7266,-73.5 127.303,-73.5 127.303,-55.5 50.7266,-55.5"/>
<text text-anchor="middle" x="89.0146" y="-61.5" font-family="Helvetica,sans-Serif" font-size="10.00">CSSBlockList</text>
</a>
</g>
</g>
<!-- Node1&#45;&gt;Node2 -->
<g id="edge1" class="edge"><title>Node1&#45;&gt;Node2</title>
<path fill="none" stroke="midnightblue" d="M118.825,-102.243C111.107,-92.7302 101.701,-81.1369 95.5454,-73.5496"/>
<polygon fill="midnightblue" stroke="midnightblue" points="116.277,-104.658 125.296,-110.219 121.713,-100.248 116.277,-104.658"/>
</g>
<!-- Node5 -->
<g id="node5" class="node"><title>Node5</title>
<g id="a_node5"><a xlink:href="class_sabberworm_1_1_c_s_s_1_1_c_s_s_list_1_1_key_frame.html" target="_top" xlink:title="KeyFrame">
<polygon fill="white" stroke="black" points="144.953,-55.5 144.953,-73.5 207.076,-73.5 207.076,-55.5 144.953,-55.5"/>
<text text-anchor="middle" x="176.015" y="-61.5" font-family="Helvetica,sans-Serif" font-size="10.00">KeyFrame</text>
</a>
</g>
</g>
<!-- Node1&#45;&gt;Node5 -->
<g id="edge4" class="edge"><title>Node1&#45;&gt;Node5</title>
<path fill="none" stroke="midnightblue" d="M145.511,-102.243C153.408,-92.7302 163.033,-81.1369 169.332,-73.5496"/>
<polygon fill="midnightblue" stroke="midnightblue" points="142.584,-100.289 138.89,-110.219 147.97,-104.76 142.584,-100.289"/>
</g>
<!-- Node3 -->
<g id="node3" class="node"><title>Node3</title>
<g id="a_node3"><a xlink:href="class_sabberworm_1_1_c_s_s_1_1_c_s_s_list_1_1_at_rule_block_list.html" target="_top" xlink:title="A BlockList constructed by an unknown &#45;rule. ">
<polygon fill="white" stroke="black" points="0,-0.5 0,-18.5 86.0293,-18.5 86.0293,-0.5 0,-0.5"/>
<text text-anchor="middle" x="43.0146" y="-6.5" font-family="Helvetica,sans-Serif" font-size="10.00">AtRuleBlockList</text>
</a>
</g>
</g>
<!-- Node2&#45;&gt;Node3 -->
<g id="edge2" class="edge"><title>Node2&#45;&gt;Node3</title>
<path fill="none" stroke="midnightblue" d="M75.1566,-47.5331C66.8542,-37.9673 56.6535,-26.2143 50.0011,-18.5496"/>
<polygon fill="midnightblue" stroke="midnightblue" points="72.6291,-49.9607 81.8271,-55.2188 77.9157,-45.3724 72.6291,-49.9607"/>
</g>
<!-- Node4 -->
<g id="node4" class="node"><title>Node4</title>
<g id="a_node4"><a xlink:href="class_sabberworm_1_1_c_s_s_1_1_c_s_s_list_1_1_document.html" target="_top" xlink:title="The root CSSList of a parsed file. ">
<polygon fill="white" stroke="black" points="104.227,-0.5 104.227,-18.5 165.803,-18.5 165.803,-0.5 104.227,-0.5"/>
<text text-anchor="middle" x="135.015" y="-6.5" font-family="Helvetica,sans-Serif" font-size="10.00">Document</text>
</a>
</g>
</g>
<!-- Node2&#45;&gt;Node4 -->
<g id="edge3" class="edge"><title>Node2&#45;&gt;Node4</title>
<path fill="none" stroke="midnightblue" d="M102.873,-47.5331C111.175,-37.9673 121.376,-26.2143 128.028,-18.5496"/>
<polygon fill="midnightblue" stroke="midnightblue" points="100.114,-45.3724 96.2021,-55.2188 105.4,-49.9607 100.114,-45.3724"/>
</g>
</g>
</svg>
