<?xml version="1.0" encoding="UTF-8" standalone="no"?>
<!DOCTYPE svg PUBLIC "-//W3C//DTD SVG 1.1//EN"
 "http://www.w3.org/Graphics/SVG/1.1/DTD/svg11.dtd">
<!-- Generated by graphviz version 2.38.0 (20140413.2041)
 -->
<!-- Title: KeyFrame Pages: 1 -->
<svg width="137pt" height="140pt"
 viewBox="0.00 0.00 136.50 140.00" xmlns="http://www.w3.org/2000/svg" xmlns:xlink="http://www.w3.org/1999/xlink">
<g id="graph0" class="graph" transform="scale(1 1) rotate(0) translate(4 136)">
<title>KeyFrame</title>
<polygon fill="white" stroke="none" points="-4,4 -4,-136 132.5,-136 132.5,4 -4,4"/>
<!-- Node1 -->
<g id="node1" class="node"><title>Node1</title>
<polygon fill="#bfbfbf" stroke="black" points="29,-0.5 29,-19.5 92,-19.5 92,-0.5 29,-0.5"/>
<text text-anchor="middle" x="60.5" y="-7.5" font-family="Helvetica,sans-Serif" font-size="10.00">KeyFrame</text>
</g>
<!-- Node2 -->
<g id="node2" class="node"><title>Node2</title>
<g id="a_node2"><a xlink:href="class_sabberworm_1_1_c_s_s_1_1_c_s_s_list_1_1_c_s_s_list.html" target="_top" target="_top" xlink:title="A CSSList is the most generic container available. ">
<polygon fill="white" stroke="black" points="0,-56.5 0,-75.5 53,-75.5 53,-56.5 0,-56.5"/>
<text text-anchor="middle" x="26.5" y="-63.5" font-family="Helvetica,sans-Serif" font-size="10.00">CSSList</text>
</a>
</g>
</g>
<!-- Node2&#45;&gt;Node1 -->
<g id="edge1" class="edge"><title>Node2&#45;&gt;Node1</title>
<path fill="none" stroke="midnightblue" d="M37.4772,-47.5656C43.327,-38.2747 50.2695,-27.2484 54.9901,-19.7511"/>
<polygon fill="midnightblue" stroke="midnightblue" points="34.4808,-45.7558 32.1144,-56.083 40.4044,-49.4855 34.4808,-45.7558"/>
</g>
<!-- Node3 -->
<g id="node3" class="node"><title>Node3</title>
<g id="a_node3"><a xlink:href="interface_sabberworm_1_1_c_s_s_1_1_property_1_1_at_rule.html" target="_top" target="_top" xlink:title="AtRule">
<polygon fill="white" stroke="black" points="71,-56.5 71,-75.5 118,-75.5 118,-56.5 71,-56.5"/>
<text text-anchor="middle" x="94.5" y="-63.5" font-family="Helvetica,sans-Serif" font-size="10.00">AtRule</text>
</a>
</g>
</g>
<!-- Node3&#45;&gt;Node1 -->
<g id="edge2" class="edge"><title>Node3&#45;&gt;Node1</title>
<path fill="none" stroke="midnightblue" d="M83.5228,-47.5656C77.673,-38.2747 70.7305,-27.2484 66.0099,-19.7511"/>
<polygon fill="midnightblue" stroke="midnightblue" points="80.5956,-49.4855 88.8856,-56.083 86.5192,-45.7558 80.5956,-49.4855"/>
</g>
<!-- Node4 -->
<g id="node4" class="node"><title>Node4</title>
<g id="a_node4"><a xlink:href="interface_sabberworm_1_1_c_s_s_1_1_renderable.html" target="_top" target="_top" xlink:title="Renderable">
<polygon fill="white" stroke="black" points="60.5,-112.5 60.5,-131.5 128.5,-131.5 128.5,-112.5 60.5,-112.5"/>
<text text-anchor="middle" x="94.5" y="-119.5" font-family="Helvetica,sans-Serif" font-size="10.00">Renderable</text>
</a>
</g>
</g>
<!-- Node4&#45;&gt;Node3 -->
<g id="edge3" class="edge"><title>Node4&#45;&gt;Node3</title>
<path fill="none" stroke="midnightblue" d="M94.5,-101.805C94.5,-92.9102 94.5,-82.7798 94.5,-75.7511"/>
<polygon fill="midnightblue" stroke="midnightblue" points="91.0001,-102.083 94.5,-112.083 98.0001,-102.083 91.0001,-102.083"/>
</g>
</g>
</svg>
