<?xml version="1.0" encoding="UTF-8" standalone="no"?>
<!DOCTYPE svg PUBLIC "-//W3C//DTD SVG 1.1//EN"
 "http://www.w3.org/Graphics/SVG/1.1/DTD/svg11.dtd">
<!-- Generated by graphviz version 2.38.0 (20140413.2041)
 -->
<!-- Title: PrimitiveValue Pages: 1 -->
<svg width="178pt" height="192pt"
 viewBox="0.00 0.00 178.34 192.00" xmlns="http://www.w3.org/2000/svg" xmlns:xlink="http://www.w3.org/1999/xlink">
<g id="graph0" class="graph" transform="scale(1 1) rotate(0) translate(4 188)">
<title>PrimitiveValue</title>
<polygon fill="white" stroke="none" points="-4,4 -4,-188 174.345,-188 174.345,4 -4,4"/>
<!-- Node1 -->
<g id="node1" class="node"><title>Node1</title>
<polygon fill="#bfbfbf" stroke="black" points="58.7554,-55.5 58.7554,-73.5 137.929,-73.5 137.929,-55.5 58.7554,-55.5"/>
<text text-anchor="middle" x="98.3423" y="-61.5" font-family="Helvetica,sans-Serif" font-size="10.00">PrimitiveValue</text>
</g>
<!-- Node4 -->
<g id="node4" class="node"><title>Node4</title>
<g id="a_node4"><a xlink:href="class_sabberworm_1_1_c_s_s_1_1_value_1_1_c_s_s_string.html" target="_top" xlink:title="CSSString">
<polygon fill="white" stroke="black" points="0,-0.5 0,-18.5 62.6846,-18.5 62.6846,-0.5 0,-0.5"/>
<text text-anchor="middle" x="31.3423" y="-6.5" font-family="Helvetica,sans-Serif" font-size="10.00">CSSString</text>
</a>
</g>
</g>
<!-- Node1&#45;&gt;Node4 -->
<g id="edge3" class="edge"><title>Node1&#45;&gt;Node4</title>
<path fill="none" stroke="midnightblue" d="M80.277,-49.2095C67.8829,-39.4052 51.8815,-26.7474 41.6139,-18.6253"/>
<polygon fill="midnightblue" stroke="midnightblue" points="78.1522,-51.9914 88.1664,-55.4504 82.495,-46.5014 78.1522,-51.9914"/>
</g>
<!-- Node5 -->
<g id="node5" class="node"><title>Node5</title>
<g id="a_node5"><a xlink:href="class_sabberworm_1_1_c_s_s_1_1_value_1_1_size.html" target="_top" xlink:title="Size">
<polygon fill="white" stroke="black" points="80.6157,-0.5 80.6157,-18.5 116.069,-18.5 116.069,-0.5 80.6157,-0.5"/>
<text text-anchor="middle" x="98.3423" y="-6.5" font-family="Helvetica,sans-Serif" font-size="10.00">Size</text>
</a>
</g>
</g>
<!-- Node1&#45;&gt;Node5 -->
<g id="edge4" class="edge"><title>Node1&#45;&gt;Node5</title>
<path fill="none" stroke="midnightblue" d="M98.3423,-45.1746C98.3423,-36.0945 98.3423,-25.5949 98.3423,-18.5496"/>
<polygon fill="midnightblue" stroke="midnightblue" points="94.8424,-45.2187 98.3423,-55.2188 101.842,-45.2188 94.8424,-45.2187"/>
</g>
<!-- Node6 -->
<g id="node6" class="node"><title>Node6</title>
<g id="a_node6"><a xlink:href="class_sabberworm_1_1_c_s_s_1_1_value_1_1_u_r_l.html" target="_top" xlink:title="URL">
<polygon fill="white" stroke="black" points="134.34,-0.5 134.34,-18.5 170.345,-18.5 170.345,-0.5 134.34,-0.5"/>
<text text-anchor="middle" x="152.342" y="-6.5" font-family="Helvetica,sans-Serif" font-size="10.00">URL</text>
</a>
</g>
</g>
<!-- Node1&#45;&gt;Node6 -->
<g id="edge5" class="edge"><title>Node1&#45;&gt;Node6</title>
<path fill="none" stroke="midnightblue" d="M114.023,-48.1101C123.871,-38.4438 136.174,-26.3692 144.141,-18.5496"/>
<polygon fill="midnightblue" stroke="midnightblue" points="111.465,-45.7161 106.78,-55.2188 116.368,-50.7119 111.465,-45.7161"/>
</g>
<!-- Node2 -->
<g id="node2" class="node"><title>Node2</title>
<g id="a_node2"><a xlink:href="class_sabberworm_1_1_c_s_s_1_1_value_1_1_value.html" target="_top" xlink:title="Value">
<polygon fill="white" stroke="black" points="77.9229,-110.5 77.9229,-128.5 118.762,-128.5 118.762,-110.5 77.9229,-110.5"/>
<text text-anchor="middle" x="98.3423" y="-116.5" font-family="Helvetica,sans-Serif" font-size="10.00">Value</text>
</a>
</g>
</g>
<!-- Node2&#45;&gt;Node1 -->
<g id="edge1" class="edge"><title>Node2&#45;&gt;Node1</title>
<path fill="none" stroke="midnightblue" d="M98.3423,-100.175C98.3423,-91.0945 98.3423,-80.5949 98.3423,-73.5496"/>
<polygon fill="midnightblue" stroke="midnightblue" points="94.8424,-100.219 98.3423,-110.219 101.842,-100.219 94.8424,-100.219"/>
</g>
<!-- Node3 -->
<g id="node3" class="node"><title>Node3</title>
<g id="a_node3"><a xlink:href="interface_sabberworm_1_1_c_s_s_1_1_renderable.html" target="_top" xlink:title="Renderable">
<polygon fill="white" stroke="black" points="64.4902,-165.5 64.4902,-183.5 132.194,-183.5 132.194,-165.5 64.4902,-165.5"/>
<text text-anchor="middle" x="98.3423" y="-171.5" font-family="Helvetica,sans-Serif" font-size="10.00">Renderable</text>
</a>
</g>
</g>
<!-- Node3&#45;&gt;Node2 -->
<g id="edge2" class="edge"><title>Node3&#45;&gt;Node2</title>
<path fill="none" stroke="midnightblue" d="M98.3423,-155.175C98.3423,-146.094 98.3423,-135.595 98.3423,-128.55"/>
<polygon fill="midnightblue" stroke="midnightblue" points="94.8424,-155.219 98.3423,-165.219 101.842,-155.219 94.8424,-155.219"/>
</g>
</g>
</svg>
