<?xml version="1.0" encoding="UTF-8" standalone="no"?>
<!DOCTYPE svg PUBLIC "-//W3C//DTD SVG 1.1//EN"
 "http://www.w3.org/Graphics/SVG/1.1/DTD/svg11.dtd">
<!-- Generated by graphviz version 2.38.0 (20140413.2041)
 -->
<!-- Title: createShorthands Pages: 1 -->
<svg width="429pt" height="84pt"
 viewBox="0.00 0.00 429.28 84.00" xmlns="http://www.w3.org/2000/svg" xmlns:xlink="http://www.w3.org/1999/xlink">
<g id="graph0" class="graph" transform="scale(1 1) rotate(0) translate(4 80)">
<title>createShorthands</title>
<polygon fill="white" stroke="none" points="-4,4 -4,-80 425.279,-80 425.279,4 -4,4"/>
<!-- Node1 -->
<g id="node1" class="node"><title>Node1</title>
<polygon fill="#bfbfbf" stroke="black" points="0,-28.5 0,-46.5 94.9404,-46.5 94.9404,-28.5 0,-28.5"/>
<text text-anchor="middle" x="47.4702" y="-34.5" font-family="Helvetica,sans-Serif" font-size="10.00">createShorthands</text>
</g>
<!-- Node2 -->
<g id="node2" class="node"><title>Node2</title>
<g id="a_node2"><a xlink:href="class_sabberworm_1_1_c_s_s_1_1_rule_set_1_1_declaration_block.html#a4e9f90d5de60211f6bef2a1152a32e7d" target="_top" xlink:title="Combine border&#45;color, border&#45;style and border&#45;width into border Should be run after create_dimensions...">
<polygon fill="white" stroke="black" points="130.94,-47.5 130.94,-65.5 250.896,-65.5 250.896,-47.5 130.94,-47.5"/>
<text text-anchor="middle" x="190.918" y="-53.5" font-family="Helvetica,sans-Serif" font-size="10.00">createBorderShorthand</text>
</a>
</g>
</g>
<!-- Node1&#45;&gt;Node2 -->
<g id="edge1" class="edge"><title>Node1&#45;&gt;Node2</title>
<path fill="none" stroke="midnightblue" d="M95.1775,-43.774C103.39,-44.8772 112.094,-46.0462 120.766,-47.2111"/>
<polygon fill="midnightblue" stroke="midnightblue" points="120.523,-50.7098 130.9,-48.5724 121.455,-43.7721 120.523,-50.7098"/>
</g>
<!-- Node5 -->
<g id="node5" class="node"><title>Node5</title>
<g id="a_node5"><a xlink:href="class_sabberworm_1_1_c_s_s_1_1_rule_set_1_1_declaration_block.html#a9957285c5dd0d6372e958d4b35f9ffcf" target="_top" xlink:title="Looks for long format CSS font properties (e.g. ">
<polygon fill="white" stroke="black" points="135.943,-10.5 135.943,-28.5 245.893,-28.5 245.893,-10.5 135.943,-10.5"/>
<text text-anchor="middle" x="190.918" y="-16.5" font-family="Helvetica,sans-Serif" font-size="10.00">createFontShorthand</text>
</a>
</g>
</g>
<!-- Node1&#45;&gt;Node5 -->
<g id="edge4" class="edge"><title>Node1&#45;&gt;Node5</title>
<path fill="none" stroke="midnightblue" d="M95.1775,-31.5562C104.955,-30.3121 115.427,-28.9794 125.713,-27.6704"/>
<polygon fill="midnightblue" stroke="midnightblue" points="126.427,-31.1079 135.905,-26.3734 125.543,-24.1639 126.427,-31.1079"/>
</g>
<!-- Node3 -->
<g id="node3" class="node"><title>Node3</title>
<g id="a_node3"><a xlink:href="class_sabberworm_1_1_c_s_s_1_1_rule_set_1_1_rule_set.html#a4c3d0bd0fd1b0755a724d99b93af944b" target="_top" xlink:title="Returns all rules matching the given pattern and returns them in an associative array with the rule’...">
<polygon fill="white" stroke="black" points="286.896,-47.5 286.896,-75.5 421.279,-75.5 421.279,-47.5 286.896,-47.5"/>
<text text-anchor="start" x="294.896" y="-63.5" font-family="Helvetica,sans-Serif" font-size="10.00">Sabberworm\CSS\RuleSet</text>
<text text-anchor="middle" x="354.087" y="-53.5" font-family="Helvetica,sans-Serif" font-size="10.00">\RuleSet\getRulesAssoc</text>
</a>
</g>
</g>
<!-- Node2&#45;&gt;Node3 -->
<g id="edge2" class="edge"><title>Node2&#45;&gt;Node3</title>
<path fill="none" stroke="midnightblue" d="M251.016,-58.3334C259.346,-58.5918 268.006,-58.8605 276.604,-59.1272"/>
<polygon fill="midnightblue" stroke="midnightblue" points="276.541,-62.6269 286.645,-59.4387 276.758,-55.6302 276.541,-62.6269"/>
</g>
<!-- Node4 -->
<g id="node4" class="node"><title>Node4</title>
<g id="a_node4"><a xlink:href="class_sabberworm_1_1_c_s_s_1_1_rule_set_1_1_rule_set.html#aca06340187f0b4dd11186527e6a0faae" target="_top" xlink:title="Remove a rule from this RuleSet. ">
<polygon fill="white" stroke="black" points="286.896,-0.5 286.896,-28.5 421.279,-28.5 421.279,-0.5 286.896,-0.5"/>
<text text-anchor="start" x="294.896" y="-16.5" font-family="Helvetica,sans-Serif" font-size="10.00">Sabberworm\CSS\RuleSet</text>
<text text-anchor="middle" x="354.087" y="-6.5" font-family="Helvetica,sans-Serif" font-size="10.00">\RuleSet\removeRule</text>
</a>
</g>
</g>
<!-- Node2&#45;&gt;Node4 -->
<g id="edge3" class="edge"><title>Node2&#45;&gt;Node4</title>
<path fill="none" stroke="midnightblue" d="M226.493,-47.4899C244.861,-42.7033 268.025,-36.6669 289.501,-31.0702"/>
<polygon fill="midnightblue" stroke="midnightblue" points="290.433,-34.4445 299.227,-28.5358 288.667,-27.6707 290.433,-34.4445"/>
</g>
<!-- Node5&#45;&gt;Node3 -->
<g id="edge5" class="edge"><title>Node5&#45;&gt;Node3</title>
<path fill="none" stroke="midnightblue" d="M226.493,-28.5101C244.861,-33.2967 268.025,-39.3331 289.501,-44.9298"/>
<polygon fill="midnightblue" stroke="midnightblue" points="288.667,-48.3293 299.227,-47.4642 290.433,-41.5555 288.667,-48.3293"/>
</g>
<!-- Node5&#45;&gt;Node4 -->
<g id="edge6" class="edge"><title>Node5&#45;&gt;Node4</title>
<path fill="none" stroke="midnightblue" d="M246.033,-17.8212C255.841,-17.5169 266.237,-17.1944 276.545,-16.8746"/>
<polygon fill="midnightblue" stroke="midnightblue" points="276.912,-20.365 286.799,-16.5565 276.695,-13.3684 276.912,-20.365"/>
</g>
</g>
</svg>
