<?xml version="1.0" encoding="UTF-8" standalone="no"?>
<!DOCTYPE svg PUBLIC "-//W3C//DTD SVG 1.1//EN"
 "http://www.w3.org/Graphics/SVG/1.1/DTD/svg11.dtd">
<!-- Generated by graphviz version 2.38.0 (20140413.2041)
 -->
<!-- Title: KeyFrame Pages: 1 -->
<svg width="135pt" height="137pt"
 viewBox="0.00 0.00 134.91 137.00" xmlns="http://www.w3.org/2000/svg" xmlns:xlink="http://www.w3.org/1999/xlink">
<g id="graph0" class="graph" transform="scale(1 1) rotate(0) translate(4 133)">
<title>KeyFrame</title>
<polygon fill="white" stroke="none" points="-4,4 -4,-133 130.914,-133 130.914,4 -4,4"/>
<!-- Node1 -->
<g id="node1" class="node"><title>Node1</title>
<polygon fill="#bfbfbf" stroke="black" points="28,-0.5 28,-18.5 90.123,-18.5 90.123,-0.5 28,-0.5"/>
<text text-anchor="middle" x="59.0615" y="-6.5" font-family="Helvetica,sans-Serif" font-size="10.00">KeyFrame</text>
</g>
<!-- Node2 -->
<g id="node2" class="node"><title>Node2</title>
<g id="a_node2"><a xlink:href="class_sabberworm_1_1_c_s_s_1_1_c_s_s_list_1_1_c_s_s_list.html" target="_top" xlink:title="A CSSList is the most generic container available. ">
<polygon fill="white" stroke="black" points="0,-55.5 0,-73.5 52.123,-73.5 52.123,-55.5 0,-55.5"/>
<text text-anchor="middle" x="26.0615" y="-61.5" font-family="Helvetica,sans-Serif" font-size="10.00">CSSList</text>
</a>
</g>
</g>
<!-- Node2&#45;&gt;Node1 -->
<g id="edge1" class="edge"><title>Node2&#45;&gt;Node1</title>
<path fill="none" stroke="midnightblue" d="M36.5483,-46.6576C42.4004,-37.2587 49.4218,-25.9821 54.0495,-18.5496"/>
<polygon fill="midnightblue" stroke="midnightblue" points="33.5323,-44.8798 31.2178,-55.2188 39.4745,-48.5797 33.5323,-44.8798"/>
</g>
<!-- Node3 -->
<g id="node3" class="node"><title>Node3</title>
<g id="a_node3"><a xlink:href="interface_sabberworm_1_1_c_s_s_1_1_property_1_1_at_rule.html" target="_top" xlink:title="AtRule">
<polygon fill="white" stroke="black" points="70.0542,-55.5 70.0542,-73.5 116.069,-73.5 116.069,-55.5 70.0542,-55.5"/>
<text text-anchor="middle" x="93.0615" y="-61.5" font-family="Helvetica,sans-Serif" font-size="10.00">AtRule</text>
</a>
</g>
</g>
<!-- Node3&#45;&gt;Node1 -->
<g id="edge2" class="edge"><title>Node3&#45;&gt;Node1</title>
<path fill="none" stroke="midnightblue" d="M82.257,-46.6576C76.2275,-37.2587 68.9934,-25.9821 64.2254,-18.5496"/>
<polygon fill="midnightblue" stroke="midnightblue" points="79.4035,-48.6917 87.749,-55.2188 85.2954,-44.9119 79.4035,-48.6917"/>
</g>
<!-- Node4 -->
<g id="node4" class="node"><title>Node4</title>
<g id="a_node4"><a xlink:href="interface_sabberworm_1_1_c_s_s_1_1_renderable.html" target="_top" xlink:title="Renderable">
<polygon fill="white" stroke="black" points="59.2095,-110.5 59.2095,-128.5 126.914,-128.5 126.914,-110.5 59.2095,-110.5"/>
<text text-anchor="middle" x="93.0615" y="-116.5" font-family="Helvetica,sans-Serif" font-size="10.00">Renderable</text>
</a>
</g>
</g>
<!-- Node4&#45;&gt;Node3 -->
<g id="edge3" class="edge"><title>Node4&#45;&gt;Node3</title>
<path fill="none" stroke="midnightblue" d="M93.0615,-100.175C93.0615,-91.0945 93.0615,-80.5949 93.0615,-73.5496"/>
<polygon fill="midnightblue" stroke="midnightblue" points="89.5616,-100.219 93.0615,-110.219 96.5616,-100.219 89.5616,-100.219"/>
</g>
</g>
</svg>
