<?xml version="1.0" encoding="UTF-8" standalone="no"?>
<!DOCTYPE svg PUBLIC "-//W3C//DTD SVG 1.1//EN"
 "http://www.w3.org/Graphics/SVG/1.1/DTD/svg11.dtd">
<!-- Generated by graphviz version 2.38.0 (20140413.2041)
 -->
<!-- Title: CSSString Pages: 1 -->
<svg width="87pt" height="192pt"
 viewBox="0.00 0.00 87.17 192.00" xmlns="http://www.w3.org/2000/svg" xmlns:xlink="http://www.w3.org/1999/xlink">
<g id="graph0" class="graph" transform="scale(1 1) rotate(0) translate(4 188)">
<title>CSSString</title>
<polygon fill="white" stroke="none" points="-4,4 -4,-188 83.1738,-188 83.1738,4 -4,4"/>
<!-- Node1 -->
<g id="node1" class="node"><title>Node1</title>
<polygon fill="#bfbfbf" stroke="black" points="8.24463,-0.5 8.24463,-18.5 70.9292,-18.5 70.9292,-0.5 8.24463,-0.5"/>
<text text-anchor="middle" x="39.5869" y="-6.5" font-family="Helvetica,sans-Serif" font-size="10.00">CSSString</text>
</g>
<!-- Node2 -->
<g id="node2" class="node"><title>Node2</title>
<g id="a_node2"><a xlink:href="class_sabberworm_1_1_c_s_s_1_1_value_1_1_primitive_value.html" target="_top" xlink:title="PrimitiveValue">
<polygon fill="white" stroke="black" points="0,-55.5 0,-73.5 79.1738,-73.5 79.1738,-55.5 0,-55.5"/>
<text text-anchor="middle" x="39.5869" y="-61.5" font-family="Helvetica,sans-Serif" font-size="10.00">PrimitiveValue</text>
</a>
</g>
</g>
<!-- Node2&#45;&gt;Node1 -->
<g id="edge1" class="edge"><title>Node2&#45;&gt;Node1</title>
<path fill="none" stroke="midnightblue" d="M39.5869,-45.1746C39.5869,-36.0945 39.5869,-25.5949 39.5869,-18.5496"/>
<polygon fill="midnightblue" stroke="midnightblue" points="36.087,-45.2187 39.5869,-55.2188 43.087,-45.2188 36.087,-45.2187"/>
</g>
<!-- Node3 -->
<g id="node3" class="node"><title>Node3</title>
<g id="a_node3"><a xlink:href="class_sabberworm_1_1_c_s_s_1_1_value_1_1_value.html" target="_top" xlink:title="Value">
<polygon fill="white" stroke="black" points="19.1675,-110.5 19.1675,-128.5 60.0063,-128.5 60.0063,-110.5 19.1675,-110.5"/>
<text text-anchor="middle" x="39.5869" y="-116.5" font-family="Helvetica,sans-Serif" font-size="10.00">Value</text>
</a>
</g>
</g>
<!-- Node3&#45;&gt;Node2 -->
<g id="edge2" class="edge"><title>Node3&#45;&gt;Node2</title>
<path fill="none" stroke="midnightblue" d="M39.5869,-100.175C39.5869,-91.0945 39.5869,-80.5949 39.5869,-73.5496"/>
<polygon fill="midnightblue" stroke="midnightblue" points="36.087,-100.219 39.5869,-110.219 43.087,-100.219 36.087,-100.219"/>
</g>
<!-- Node4 -->
<g id="node4" class="node"><title>Node4</title>
<g id="a_node4"><a xlink:href="interface_sabberworm_1_1_c_s_s_1_1_renderable.html" target="_top" xlink:title="Renderable">
<polygon fill="white" stroke="black" points="5.73486,-165.5 5.73486,-183.5 73.439,-183.5 73.439,-165.5 5.73486,-165.5"/>
<text text-anchor="middle" x="39.5869" y="-171.5" font-family="Helvetica,sans-Serif" font-size="10.00">Renderable</text>
</a>
</g>
</g>
<!-- Node4&#45;&gt;Node3 -->
<g id="edge3" class="edge"><title>Node4&#45;&gt;Node3</title>
<path fill="none" stroke="midnightblue" d="M39.5869,-155.175C39.5869,-146.094 39.5869,-135.595 39.5869,-128.55"/>
<polygon fill="midnightblue" stroke="midnightblue" points="36.087,-155.219 39.5869,-165.219 43.087,-155.219 36.087,-155.219"/>
</g>
</g>
</svg>
