<?xml version="1.0" encoding="UTF-8" standalone="no"?>
<!DOCTYPE svg PUBLIC "-//W3C//DTD SVG 1.1//EN"
 "http://www.w3.org/Graphics/SVG/1.1/DTD/svg11.dtd">
<!-- Generated by graphviz version 2.38.0 (20140413.2041)
 -->
<!-- Title: getRulesAssoc Pages: 1 -->
<svg width="526pt" height="230pt"
 viewBox="0.00 0.00 526.00 230.00" xmlns="http://www.w3.org/2000/svg" xmlns:xlink="http://www.w3.org/1999/xlink">
<g id="graph0" class="graph" transform="scale(1 1) rotate(0) translate(4 226)">
<title>getRulesAssoc</title>
<polygon fill="white" stroke="none" points="-4,4 -4,-226 522,-226 522,4 -4,4"/>
<!-- Node1 -->
<g id="node1" class="node"><title>Node1</title>
<polygon fill="#bfbfbf" stroke="black" points="0,-101.5 0,-120.5 83,-120.5 83,-101.5 0,-101.5"/>
<text text-anchor="middle" x="41.5" y="-108.5" font-family="Helvetica,sans-Serif" font-size="10.00">getRulesAssoc</text>
</g>
<!-- Node2 -->
<g id="node2" class="node"><title>Node2</title>
<g id="a_node2"><a xlink:href="class_sabberworm_1_1_c_s_s_1_1_rule_set_1_1_declaration_block.html#a9dd0036775357fd3c53cafaa10f45b55" target="_top" xlink:title="Split shorthand border declarations (e.g. ">
<polygon fill="white" stroke="black" points="130,-180.5 130,-221.5 290,-221.5 290,-180.5 130,-180.5"/>
<text text-anchor="start" x="138" y="-209.5" font-family="Helvetica,sans-Serif" font-size="10.00">Sabberworm\CSS\RuleSet</text>
<text text-anchor="start" x="138" y="-198.5" font-family="Helvetica,sans-Serif" font-size="10.00">\DeclarationBlock\expandBorder</text>
<text text-anchor="middle" x="210" y="-187.5" font-family="Helvetica,sans-Serif" font-size="10.00">Shorthand</text>
</a>
</g>
</g>
<!-- Node1&#45;&gt;Node2 -->
<g id="edge1" class="edge"><title>Node1&#45;&gt;Node2</title>
<path fill="none" stroke="midnightblue" d="M59.9617,-127.574C74.7186,-140.84 96.9247,-159.128 119,-171 125.382,-174.432 132.23,-177.571 139.193,-180.416"/>
<polygon fill="midnightblue" stroke="midnightblue" points="62.3108,-124.98 52.5779,-120.794 57.5762,-130.136 62.3108,-124.98"/>
</g>
<!-- Node4 -->
<g id="node4" class="node"><title>Node4</title>
<g id="a_node4"><a xlink:href="class_sabberworm_1_1_c_s_s_1_1_rule_set_1_1_declaration_block.html#a9ecde3bc4b8030c61ee2fc2a151728d7" target="_top" xlink:title="Split shorthand dimensional declarations (e.g. ">
<polygon fill="white" stroke="black" points="119,-120.5 119,-161.5 301,-161.5 301,-120.5 119,-120.5"/>
<text text-anchor="start" x="127" y="-149.5" font-family="Helvetica,sans-Serif" font-size="10.00">Sabberworm\CSS\RuleSet</text>
<text text-anchor="start" x="127" y="-138.5" font-family="Helvetica,sans-Serif" font-size="10.00">\DeclarationBlock\expandDimensions</text>
<text text-anchor="middle" x="210" y="-127.5" font-family="Helvetica,sans-Serif" font-size="10.00">Shorthand</text>
</a>
</g>
</g>
<!-- Node1&#45;&gt;Node4 -->
<g id="edge3" class="edge"><title>Node1&#45;&gt;Node4</title>
<path fill="none" stroke="midnightblue" d="M93.2405,-120.142C101.373,-121.608 109.998,-123.162 118.725,-124.734"/>
<polygon fill="midnightblue" stroke="midnightblue" points="93.6927,-116.668 83.2305,-118.339 92.4513,-123.557 93.6927,-116.668"/>
</g>
<!-- Node5 -->
<g id="node5" class="node"><title>Node5</title>
<g id="a_node5"><a xlink:href="class_sabberworm_1_1_c_s_s_1_1_rule_set_1_1_declaration_block.html#ac04ad57b57030456e7e2b9e456a7dc42" target="_top" xlink:title="Convert shorthand font declarations (e.g. ">
<polygon fill="white" stroke="black" points="135,-60.5 135,-101.5 285,-101.5 285,-60.5 135,-60.5"/>
<text text-anchor="start" x="143" y="-89.5" font-family="Helvetica,sans-Serif" font-size="10.00">Sabberworm\CSS\RuleSet</text>
<text text-anchor="start" x="143" y="-78.5" font-family="Helvetica,sans-Serif" font-size="10.00">\DeclarationBlock\expandFont</text>
<text text-anchor="middle" x="210" y="-67.5" font-family="Helvetica,sans-Serif" font-size="10.00">Shorthand</text>
</a>
</g>
</g>
<!-- Node1&#45;&gt;Node5 -->
<g id="edge5" class="edge"><title>Node1&#45;&gt;Node5</title>
<path fill="none" stroke="midnightblue" d="M93.4325,-101.823C106.53,-99.4631 120.89,-96.8757 134.901,-94.3512"/>
<polygon fill="midnightblue" stroke="midnightblue" points="92.4513,-98.4433 83.2305,-103.661 93.6927,-105.332 92.4513,-98.4433"/>
</g>
<!-- Node6 -->
<g id="node6" class="node"><title>Node6</title>
<g id="a_node6"><a xlink:href="class_sabberworm_1_1_c_s_s_1_1_rule_set_1_1_declaration_block.html#a9957285c5dd0d6372e958d4b35f9ffcf" target="_top" xlink:title="Looks for long format CSS font properties (e.g. ">
<polygon fill="white" stroke="black" points="137.5,-0.5 137.5,-41.5 282.5,-41.5 282.5,-0.5 137.5,-0.5"/>
<text text-anchor="start" x="145.5" y="-29.5" font-family="Helvetica,sans-Serif" font-size="10.00">Sabberworm\CSS\RuleSet</text>
<text text-anchor="start" x="145.5" y="-18.5" font-family="Helvetica,sans-Serif" font-size="10.00">\DeclarationBlock\createFont</text>
<text text-anchor="middle" x="210" y="-7.5" font-family="Helvetica,sans-Serif" font-size="10.00">Shorthand</text>
</a>
</g>
</g>
<!-- Node1&#45;&gt;Node6 -->
<g id="edge7" class="edge"><title>Node1&#45;&gt;Node6</title>
<path fill="none" stroke="midnightblue" d="M59.9617,-94.4258C74.7186,-81.1601 96.9247,-62.8721 119,-51 125.382,-47.5675 132.23,-44.4288 139.193,-41.5841"/>
<polygon fill="midnightblue" stroke="midnightblue" points="57.5762,-91.8645 52.5779,-101.206 62.3108,-97.0204 57.5762,-91.8645"/>
</g>
<!-- Node3 -->
<g id="node3" class="node"><title>Node3</title>
<g id="a_node3"><a xlink:href="class_sabberworm_1_1_c_s_s_1_1_rule_set_1_1_declaration_block.html#af0432da015f2bfee3dd9d81d39d8b4e6" target="_top" xlink:title="Split shorthand declarations (e.g. ">
<polygon fill="white" stroke="black" points="337,-126 337,-156 518,-156 518,-126 337,-126"/>
<text text-anchor="start" x="345" y="-144" font-family="Helvetica,sans-Serif" font-size="10.00">Sabberworm\CSS\RuleSet</text>
<text text-anchor="middle" x="427.5" y="-133" font-family="Helvetica,sans-Serif" font-size="10.00">\DeclarationBlock\expandShorthands</text>
</a>
</g>
</g>
<!-- Node2&#45;&gt;Node3 -->
<g id="edge2" class="edge"><title>Node2&#45;&gt;Node3</title>
<path fill="none" stroke="midnightblue" d="M294.758,-177.68C320.868,-170.41 348.959,-162.589 372.466,-156.044"/>
<polygon fill="midnightblue" stroke="midnightblue" points="293.556,-174.381 284.861,-180.435 295.434,-181.125 293.556,-174.381"/>
</g>
<!-- Node4&#45;&gt;Node3 -->
<g id="edge4" class="edge"><title>Node4&#45;&gt;Node3</title>
<path fill="none" stroke="midnightblue" d="M311.403,-141C319.85,-141 328.358,-141 336.718,-141"/>
<polygon fill="midnightblue" stroke="midnightblue" points="311.143,-137.5 301.143,-141 311.143,-144.5 311.143,-137.5"/>
</g>
<!-- Node5&#45;&gt;Node3 -->
<g id="edge6" class="edge"><title>Node5&#45;&gt;Node3</title>
<path fill="none" stroke="midnightblue" d="M294.758,-104.32C320.868,-111.59 348.959,-119.411 372.466,-125.956"/>
<polygon fill="midnightblue" stroke="midnightblue" points="295.434,-100.875 284.861,-101.565 293.556,-107.619 295.434,-100.875"/>
</g>
<!-- Node7 -->
<g id="node7" class="node"><title>Node7</title>
<g id="a_node7"><a xlink:href="class_sabberworm_1_1_c_s_s_1_1_rule_set_1_1_declaration_block.html#a02455b5dac22d0760454fc03c0880feb" target="_top" xlink:title="Create shorthand declarations (e.g. ">
<polygon fill="white" stroke="black" points="339.5,-6 339.5,-36 515.5,-36 515.5,-6 339.5,-6"/>
<text text-anchor="start" x="347.5" y="-24" font-family="Helvetica,sans-Serif" font-size="10.00">Sabberworm\CSS\RuleSet</text>
<text text-anchor="middle" x="427.5" y="-13" font-family="Helvetica,sans-Serif" font-size="10.00">\DeclarationBlock\createShorthands</text>
</a>
</g>
</g>
<!-- Node6&#45;&gt;Node7 -->
<g id="edge8" class="edge"><title>Node6&#45;&gt;Node7</title>
<path fill="none" stroke="midnightblue" d="M293.097,-21C308.22,-21 324.058,-21 339.324,-21"/>
<polygon fill="midnightblue" stroke="midnightblue" points="292.758,-17.5001 282.758,-21 292.758,-24.5001 292.758,-17.5001"/>
</g>
</g>
</svg>
