<?xml version="1.0" encoding="UTF-8" standalone="no"?>
<!DOCTYPE svg PUBLIC "-//W3C//DTD SVG 1.1//EN"
 "http://www.w3.org/Graphics/SVG/1.1/DTD/svg11.dtd">
<!-- Generated by graphviz version 2.38.0 (20140413.2041)
 -->
<!-- Title: CSSNamespace Pages: 1 -->
<svg width="98pt" height="137pt"
 viewBox="0.00 0.00 97.92 137.00" xmlns="http://www.w3.org/2000/svg" xmlns:xlink="http://www.w3.org/1999/xlink">
<g id="graph0" class="graph" transform="scale(1 1) rotate(0) translate(4 133)">
<title>CSSNamespace</title>
<polygon fill="white" stroke="none" points="-4,4 -4,-133 93.9209,-133 93.9209,4 -4,4"/>
<!-- Node1 -->
<g id="node1" class="node"><title>Node1</title>
<polygon fill="#bfbfbf" stroke="black" points="0,-0.5 0,-18.5 89.9209,-18.5 89.9209,-0.5 0,-0.5"/>
<text text-anchor="middle" x="44.9604" y="-6.5" font-family="Helvetica,sans-Serif" font-size="10.00">CSSNamespace</text>
</g>
<!-- Node2 -->
<g id="node2" class="node"><title>Node2</title>
<g id="a_node2"><a xlink:href="interface_sabberworm_1_1_c_s_s_1_1_property_1_1_at_rule.html" target="_top" xlink:title="AtRule">
<polygon fill="white" stroke="black" points="21.9531,-55.5 21.9531,-73.5 67.9678,-73.5 67.9678,-55.5 21.9531,-55.5"/>
<text text-anchor="middle" x="44.9604" y="-61.5" font-family="Helvetica,sans-Serif" font-size="10.00">AtRule</text>
</a>
</g>
</g>
<!-- Node2&#45;&gt;Node1 -->
<g id="edge1" class="edge"><title>Node2&#45;&gt;Node1</title>
<path fill="none" stroke="midnightblue" d="M44.9604,-45.1746C44.9604,-36.0945 44.9604,-25.5949 44.9604,-18.5496"/>
<polygon fill="midnightblue" stroke="midnightblue" points="41.4605,-45.2187 44.9604,-55.2188 48.4605,-45.2188 41.4605,-45.2187"/>
</g>
<!-- Node3 -->
<g id="node3" class="node"><title>Node3</title>
<g id="a_node3"><a xlink:href="interface_sabberworm_1_1_c_s_s_1_1_renderable.html" target="_top" xlink:title="Renderable">
<polygon fill="white" stroke="black" points="11.1084,-110.5 11.1084,-128.5 78.8125,-128.5 78.8125,-110.5 11.1084,-110.5"/>
<text text-anchor="middle" x="44.9604" y="-116.5" font-family="Helvetica,sans-Serif" font-size="10.00">Renderable</text>
</a>
</g>
</g>
<!-- Node3&#45;&gt;Node2 -->
<g id="edge2" class="edge"><title>Node3&#45;&gt;Node2</title>
<path fill="none" stroke="midnightblue" d="M44.9604,-100.175C44.9604,-91.0945 44.9604,-80.5949 44.9604,-73.5496"/>
<polygon fill="midnightblue" stroke="midnightblue" points="41.4605,-100.219 44.9604,-110.219 48.4605,-100.219 41.4605,-100.219"/>
</g>
</g>
</svg>
