<?xml version="1.0" encoding="UTF-8" standalone="no"?>
<!DOCTYPE svg PUBLIC "-//W3C//DTD SVG 1.1//EN"
 "http://www.w3.org/Graphics/SVG/1.1/DTD/svg11.dtd">
<!-- Generated by graphviz version 2.38.0 (20140413.2041)
 -->
<!-- Title: createShorthands Pages: 1 -->
<svg width="430pt" height="96pt"
 viewBox="0.00 0.00 430.00 95.50" xmlns="http://www.w3.org/2000/svg" xmlns:xlink="http://www.w3.org/1999/xlink">
<g id="graph0" class="graph" transform="scale(1 1) rotate(0) translate(4 91.5)">
<title>createShorthands</title>
<polygon fill="white" stroke="none" points="-4,4 -4,-91.5 426,-91.5 426,4 -4,4"/>
<!-- Node1 -->
<g id="node1" class="node"><title>Node1</title>
<polygon fill="#bfbfbf" stroke="black" points="0,-49 0,-68 95,-68 95,-49 0,-49"/>
<text text-anchor="middle" x="47.5" y="-56" font-family="Helvetica,sans-Serif" font-size="10.00">createShorthands</text>
</g>
<!-- Node2 -->
<g id="node2" class="node"><title>Node2</title>
<g id="a_node2"><a xlink:href="class_sabberworm_1_1_c_s_s_1_1_rule_set_1_1_declaration_block.html#a4e9f90d5de60211f6bef2a1152a32e7d" target="_top" target="_top" xlink:title="Combine border&#45;color, border&#45;style and border&#45;width into border Should be run after create_dimensions...">
<polygon fill="white" stroke="black" points="131,-68 131,-87 251,-87 251,-68 131,-68"/>
<text text-anchor="middle" x="191" y="-75" font-family="Helvetica,sans-Serif" font-size="10.00">createBorderShorthand</text>
</a>
</g>
</g>
<!-- Node1&#45;&gt;Node2 -->
<g id="edge1" class="edge"><title>Node1&#45;&gt;Node2</title>
<path fill="none" stroke="midnightblue" d="M95.2245,-64.774C103.441,-65.8772 112.147,-67.0462 120.822,-68.2111"/>
<polygon fill="midnightblue" stroke="midnightblue" points="120.583,-71.7103 130.96,-69.5724 121.515,-64.7726 120.583,-71.7103"/>
</g>
<!-- Node3 -->
<g id="node3" class="node"><title>Node3</title>
<g id="a_node3"><a xlink:href="class_sabberworm_1_1_c_s_s_1_1_rule_set_1_1_declaration_block.html#a9957285c5dd0d6372e958d4b35f9ffcf" target="_top" target="_top" xlink:title="Looks for long format CSS font properties (e.g. ">
<polygon fill="white" stroke="black" points="136,-30 136,-49 246,-49 246,-30 136,-30"/>
<text text-anchor="middle" x="191" y="-37" font-family="Helvetica,sans-Serif" font-size="10.00">createFontShorthand</text>
</a>
</g>
</g>
<!-- Node1&#45;&gt;Node3 -->
<g id="edge2" class="edge"><title>Node1&#45;&gt;Node3</title>
<path fill="none" stroke="midnightblue" d="M95.2245,-52.226C105.005,-50.9127 115.481,-49.5061 125.771,-48.1243"/>
<polygon fill="midnightblue" stroke="midnightblue" points="126.522,-51.5551 135.967,-46.7553 125.59,-44.6173 126.522,-51.5551"/>
</g>
<!-- Node4 -->
<g id="node4" class="node"><title>Node4</title>
<g id="a_node4"><a xlink:href="class_sabberworm_1_1_c_s_s_1_1_rule_set_1_1_rule_set.html#a4c3d0bd0fd1b0755a724d99b93af944b" target="_top" target="_top" xlink:title="Returns all rules matching the given pattern and returns them in an associative array with the rule’...">
<polygon fill="white" stroke="black" points="287,-49.5 287,-79.5 422,-79.5 422,-49.5 287,-49.5"/>
<text text-anchor="start" x="295" y="-67.5" font-family="Helvetica,sans-Serif" font-size="10.00">Sabberworm\CSS\RuleSet</text>
<text text-anchor="middle" x="354.5" y="-56.5" font-family="Helvetica,sans-Serif" font-size="10.00">\RuleSet\getRulesAssoc</text>
</a>
</g>
</g>
<!-- Node3&#45;&gt;Node4 -->
<g id="edge3" class="edge"><title>Node3&#45;&gt;Node4</title>
<path fill="none" stroke="midnightblue" d="M246.226,-47.8942C256.087,-49.4206 266.542,-51.039 276.905,-52.6432"/>
<polygon fill="midnightblue" stroke="midnightblue" points="276.372,-56.1023 286.79,-54.1734 277.443,-49.1847 276.372,-56.1023"/>
</g>
<!-- Node5 -->
<g id="node5" class="node"><title>Node5</title>
<g id="a_node5"><a xlink:href="class_sabberworm_1_1_c_s_s_1_1_rule_set_1_1_rule_set.html#aca06340187f0b4dd11186527e6a0faae" target="_top" target="_top" xlink:title="Remove a rule from this RuleSet. ">
<polygon fill="white" stroke="black" points="287,-0.5 287,-30.5 422,-30.5 422,-0.5 287,-0.5"/>
<text text-anchor="start" x="295" y="-18.5" font-family="Helvetica,sans-Serif" font-size="10.00">Sabberworm\CSS\RuleSet</text>
<text text-anchor="middle" x="354.5" y="-7.5" font-family="Helvetica,sans-Serif" font-size="10.00">\RuleSet\removeRule</text>
</a>
</g>
</g>
<!-- Node3&#45;&gt;Node5 -->
<g id="edge4" class="edge"><title>Node3&#45;&gt;Node5</title>
<path fill="none" stroke="midnightblue" d="M246.226,-31.4416C255.986,-29.9913 266.326,-28.4546 276.584,-26.9302"/>
<polygon fill="midnightblue" stroke="midnightblue" points="277.413,-30.3455 286.79,-25.4136 276.384,-23.4216 277.413,-30.3455"/>
</g>
</g>
</svg>
