<?xml version="1.0" encoding="UTF-8" standalone="no"?>
<!DOCTYPE svg PUBLIC "-//W3C//DTD SVG 1.1//EN"
 "http://www.w3.org/Graphics/SVG/1.1/DTD/svg11.dtd">
<!-- Generated by graphviz version 2.38.0 (20140413.2041)
 -->
<!-- Title: expandDimensionsShorthand Pages: 1 -->
<svg width="326pt" height="84pt"
 viewBox="0.00 0.00 325.58 84.00" xmlns="http://www.w3.org/2000/svg" xmlns:xlink="http://www.w3.org/1999/xlink">
<g id="graph0" class="graph" transform="scale(1 1) rotate(0) translate(4 80)">
<title>expandDimensionsShorthand</title>
<polygon fill="white" stroke="none" points="-4,4 -4,-80 321.58,-80 321.58,4 -4,4"/>
<!-- Node1 -->
<g id="node1" class="node"><title>Node1</title>
<polygon fill="#bfbfbf" stroke="black" points="0,-28.5 0,-46.5 147.196,-46.5 147.196,-28.5 0,-28.5"/>
<text text-anchor="middle" x="73.5981" y="-34.5" font-family="Helvetica,sans-Serif" font-size="10.00">expandDimensionsShorthand</text>
</g>
<!-- Node2 -->
<g id="node2" class="node"><title>Node2</title>
<g id="a_node2"><a xlink:href="class_sabberworm_1_1_c_s_s_1_1_rule_set_1_1_rule_set.html#a4c3d0bd0fd1b0755a724d99b93af944b" target="_top" xlink:title="Returns all rules matching the given pattern and returns them in an associative array with the rule’...">
<polygon fill="white" stroke="black" points="183.196,-47.5 183.196,-75.5 317.58,-75.5 317.58,-47.5 183.196,-47.5"/>
<text text-anchor="start" x="191.196" y="-63.5" font-family="Helvetica,sans-Serif" font-size="10.00">Sabberworm\CSS\RuleSet</text>
<text text-anchor="middle" x="250.388" y="-53.5" font-family="Helvetica,sans-Serif" font-size="10.00">\RuleSet\getRulesAssoc</text>
</a>
</g>
</g>
<!-- Node1&#45;&gt;Node2 -->
<g id="edge1" class="edge"><title>Node1&#45;&gt;Node2</title>
<path fill="none" stroke="midnightblue" d="M140.181,-46.505C150.935,-47.9816 162.16,-49.5229 173.145,-51.0313"/>
<polygon fill="midnightblue" stroke="midnightblue" points="172.764,-54.5116 183.147,-52.4046 173.716,-47.5767 172.764,-54.5116"/>
</g>
<!-- Node3 -->
<g id="node3" class="node"><title>Node3</title>
<g id="a_node3"><a xlink:href="class_sabberworm_1_1_c_s_s_1_1_rule_set_1_1_rule_set.html#aca06340187f0b4dd11186527e6a0faae" target="_top" xlink:title="Remove a rule from this RuleSet. ">
<polygon fill="white" stroke="black" points="183.196,-0.5 183.196,-28.5 317.58,-28.5 317.58,-0.5 183.196,-0.5"/>
<text text-anchor="start" x="191.196" y="-16.5" font-family="Helvetica,sans-Serif" font-size="10.00">Sabberworm\CSS\RuleSet</text>
<text text-anchor="middle" x="250.388" y="-6.5" font-family="Helvetica,sans-Serif" font-size="10.00">\RuleSet\removeRule</text>
</a>
</g>
</g>
<!-- Node1&#45;&gt;Node3 -->
<g id="edge2" class="edge"><title>Node1&#45;&gt;Node3</title>
<path fill="none" stroke="midnightblue" d="M143.178,-28.4758C152.903,-27.1962 162.954,-25.8736 172.818,-24.5756"/>
<polygon fill="midnightblue" stroke="midnightblue" points="173.551,-28.0094 183.009,-23.2346 172.637,-21.0693 173.551,-28.0094"/>
</g>
</g>
</svg>
