<?xml version="1.0" encoding="UTF-8" standalone="no"?>
<!DOCTYPE svg PUBLIC "-//W3C//DTD SVG 1.1//EN"
 "http://www.w3.org/Graphics/SVG/1.1/DTD/svg11.dtd">
<!-- Generated by graphviz version 2.38.0 (20140413.2041)
 -->
<!-- Title: lib/Sabberworm/CSS Pages: 1 -->
<svg width="542pt" height="111pt"
 viewBox="0.00 0.00 542.00 111.00" xmlns="http://www.w3.org/2000/svg" xmlns:xlink="http://www.w3.org/1999/xlink">
<g id="graph0" class="graph" transform="scale(1 1) rotate(0) translate(4 107)">
<title>lib/Sabberworm/CSS</title>
<polygon fill="white" stroke="none" points="-4,4 -4,-107 538,-107 538,4 -4,4"/>
<g id="clust1" class="cluster"><title>clusterdir_33db0557cf7116fdea07ac87099851ab</title>
<g id="a_clust1"><a xlink:href="dir_33db0557cf7116fdea07ac87099851ab.html" target="_top" xlink:title="Sabberworm">
<polygon fill="#ddddee" stroke="black" points="8,-8 8,-95 526,-95 526,-8 8,-8"/>
<text text-anchor="middle" x="267" y="-83" font-family="Helvetica,sans-Serif" font-size="10.00">Sabberworm</text>
</a>
</g>
</g>
<g id="clust2" class="cluster"><title>clusterdir_f32cf39d797004a57d9fa38774a4ee8e</title>
<g id="a_clust2"><a xlink:href="dir_f32cf39d797004a57d9fa38774a4ee8e.html" target="_top">
<polygon fill="#eeeeff" stroke="black" points="16,-16 16,-68 518,-68 518,-16 16,-16"/>
</a>
</g>
</g>
<!-- dir_f32cf39d797004a57d9fa38774a4ee8e -->
<g id="node1" class="node"><title>dir_f32cf39d797004a57d9fa38774a4ee8e</title>
<text text-anchor="middle" x="483" y="-39.5" font-family="Helvetica,sans-Serif" font-size="10.00">CSS</text>
</g>
<!-- dir_50f5ac685d0be6e1d679118996a5d03d -->
<g id="node2" class="node"><title>dir_50f5ac685d0be6e1d679118996a5d03d</title>
<g id="a_node2"><a xlink:href="dir_50f5ac685d0be6e1d679118996a5d03d.html" target="_top" xlink:title="CSSList">
<polygon fill="white" stroke="black" points="438,-60 384,-60 384,-24 438,-24 438,-60"/>
<text text-anchor="middle" x="411" y="-39.5" font-family="Helvetica,sans-Serif" font-size="10.00">CSSList</text>
</a>
</g>
</g>
<!-- dir_ed3433da894dc47e1370cb3092d8c144 -->
<g id="node3" class="node"><title>dir_ed3433da894dc47e1370cb3092d8c144</title>
<g id="a_node3"><a xlink:href="dir_ed3433da894dc47e1370cb3092d8c144.html" target="_top" xlink:title="Parsing">
<polygon fill="white" stroke="black" points="366,-60 312,-60 312,-24 366,-24 366,-60"/>
<text text-anchor="middle" x="339" y="-39.5" font-family="Helvetica,sans-Serif" font-size="10.00">Parsing</text>
</a>
</g>
</g>
<!-- dir_539f342fef38f6393bc9f91b44d50183 -->
<g id="node4" class="node"><title>dir_539f342fef38f6393bc9f91b44d50183</title>
<g id="a_node4"><a xlink:href="dir_539f342fef38f6393bc9f91b44d50183.html" target="_top" xlink:title="Property">
<polygon fill="white" stroke="black" points="294,-60 240,-60 240,-24 294,-24 294,-60"/>
<text text-anchor="middle" x="267" y="-39.5" font-family="Helvetica,sans-Serif" font-size="10.00">Property</text>
</a>
</g>
</g>
<!-- dir_baa307d03f44c367214cc84d99c2f6e3 -->
<g id="node5" class="node"><title>dir_baa307d03f44c367214cc84d99c2f6e3</title>
<g id="a_node5"><a xlink:href="dir_baa307d03f44c367214cc84d99c2f6e3.html" target="_top" xlink:title="Rule">
<polygon fill="white" stroke="black" points="222,-60 168,-60 168,-24 222,-24 222,-60"/>
<text text-anchor="middle" x="195" y="-39.5" font-family="Helvetica,sans-Serif" font-size="10.00">Rule</text>
</a>
</g>
</g>
<!-- dir_083eec14e237462bf59d831b53ea0a8c -->
<g id="node6" class="node"><title>dir_083eec14e237462bf59d831b53ea0a8c</title>
<g id="a_node6"><a xlink:href="dir_083eec14e237462bf59d831b53ea0a8c.html" target="_top" xlink:title="RuleSet">
<polygon fill="white" stroke="black" points="150,-60 96,-60 96,-24 150,-24 150,-60"/>
<text text-anchor="middle" x="123" y="-39.5" font-family="Helvetica,sans-Serif" font-size="10.00">RuleSet</text>
</a>
</g>
</g>
<!-- dir_66817e927474945f6aa6d308d53abd4b -->
<g id="node7" class="node"><title>dir_66817e927474945f6aa6d308d53abd4b</title>
<g id="a_node7"><a xlink:href="dir_66817e927474945f6aa6d308d53abd4b.html" target="_top" xlink:title="Value">
<polygon fill="white" stroke="black" points="78,-60 24,-60 24,-24 78,-24 78,-60"/>
<text text-anchor="middle" x="51" y="-39.5" font-family="Helvetica,sans-Serif" font-size="10.00">Value</text>
</a>
</g>
</g>
</g>
</svg>
