<?xml version="1.0" encoding="UTF-8" standalone="no"?>
<!DOCTYPE svg PUBLIC "-//W3C//DTD SVG 1.1//EN"
 "http://www.w3.org/Graphics/SVG/1.1/DTD/svg11.dtd">
<!-- Generated by graphviz version 2.38.0 (20140413.2041)
 -->
<!-- Title: Sabberworm/CSS Pages: 1 -->
<svg width="542pt" height="111pt"
 viewBox="0.00 0.00 542.00 111.00" xmlns="http://www.w3.org/2000/svg" xmlns:xlink="http://www.w3.org/1999/xlink">
<g id="graph0" class="graph" transform="scale(1 1) rotate(0) translate(4 107)">
<title>Sabberworm/CSS</title>
<polygon fill="white" stroke="none" points="-4,4 -4,-107 538,-107 538,4 -4,4"/>
<g id="clust1" class="cluster"><title>clusterdir_382dc19a3fce9b7066e3d8b34da7274e</title>
<g id="a_clust1"><a xlink:href="dir_382dc19a3fce9b7066e3d8b34da7274e.html" target="_top" xlink:title="Sabberworm">
<polygon fill="#ddddee" stroke="black" points="8,-8 8,-95 526,-95 526,-8 8,-8"/>
<text text-anchor="middle" x="267" y="-83" font-family="Helvetica,sans-Serif" font-size="10.00">Sabberworm</text>
</a>
</g>
</g>
<g id="clust2" class="cluster"><title>clusterdir_7af4b4abac080b3d02fa6877e1d6c305</title>
<g id="a_clust2"><a xlink:href="dir_7af4b4abac080b3d02fa6877e1d6c305.html" target="_top">
<polygon fill="#eeeeff" stroke="black" points="16,-16 16,-68 518,-68 518,-16 16,-16"/>
</a>
</g>
</g>
<!-- dir_7af4b4abac080b3d02fa6877e1d6c305 -->
<g id="node1" class="node"><title>dir_7af4b4abac080b3d02fa6877e1d6c305</title>
<text text-anchor="middle" x="483" y="-39.5" font-family="Helvetica,sans-Serif" font-size="10.00">CSS</text>
</g>
<!-- dir_57a62a9ebe63c7f8db79cba36aee0fc8 -->
<g id="node2" class="node"><title>dir_57a62a9ebe63c7f8db79cba36aee0fc8</title>
<g id="a_node2"><a xlink:href="dir_57a62a9ebe63c7f8db79cba36aee0fc8.html" target="_top" xlink:title="CSSList">
<polygon fill="white" stroke="black" points="438,-60 384,-60 384,-24 438,-24 438,-60"/>
<text text-anchor="middle" x="411" y="-39.5" font-family="Helvetica,sans-Serif" font-size="10.00">CSSList</text>
</a>
</g>
</g>
<!-- dir_6bee6f521cbd9df8f9ef3619875a737b -->
<g id="node3" class="node"><title>dir_6bee6f521cbd9df8f9ef3619875a737b</title>
<g id="a_node3"><a xlink:href="dir_6bee6f521cbd9df8f9ef3619875a737b.html" target="_top" xlink:title="Parsing">
<polygon fill="white" stroke="black" points="366,-60 312,-60 312,-24 366,-24 366,-60"/>
<text text-anchor="middle" x="339" y="-39.5" font-family="Helvetica,sans-Serif" font-size="10.00">Parsing</text>
</a>
</g>
</g>
<!-- dir_73c47049502fc4075f72d660bc234b74 -->
<g id="node4" class="node"><title>dir_73c47049502fc4075f72d660bc234b74</title>
<g id="a_node4"><a xlink:href="dir_73c47049502fc4075f72d660bc234b74.html" target="_top" xlink:title="Property">
<polygon fill="white" stroke="black" points="294,-60 240,-60 240,-24 294,-24 294,-60"/>
<text text-anchor="middle" x="267" y="-39.5" font-family="Helvetica,sans-Serif" font-size="10.00">Property</text>
</a>
</g>
</g>
<!-- dir_2ee9e812ca095787a0677726495c825f -->
<g id="node5" class="node"><title>dir_2ee9e812ca095787a0677726495c825f</title>
<g id="a_node5"><a xlink:href="dir_2ee9e812ca095787a0677726495c825f.html" target="_top" xlink:title="Rule">
<polygon fill="white" stroke="black" points="222,-60 168,-60 168,-24 222,-24 222,-60"/>
<text text-anchor="middle" x="195" y="-39.5" font-family="Helvetica,sans-Serif" font-size="10.00">Rule</text>
</a>
</g>
</g>
<!-- dir_ecee829564fac1634ceeaae25dee82b6 -->
<g id="node6" class="node"><title>dir_ecee829564fac1634ceeaae25dee82b6</title>
<g id="a_node6"><a xlink:href="dir_ecee829564fac1634ceeaae25dee82b6.html" target="_top" xlink:title="RuleSet">
<polygon fill="white" stroke="black" points="150,-60 96,-60 96,-24 150,-24 150,-60"/>
<text text-anchor="middle" x="123" y="-39.5" font-family="Helvetica,sans-Serif" font-size="10.00">RuleSet</text>
</a>
</g>
</g>
<!-- dir_974bde4606c904a018aace3d7d070b19 -->
<g id="node7" class="node"><title>dir_974bde4606c904a018aace3d7d070b19</title>
<g id="a_node7"><a xlink:href="dir_974bde4606c904a018aace3d7d070b19.html" target="_top" xlink:title="Value">
<polygon fill="white" stroke="black" points="78,-60 24,-60 24,-24 78,-24 78,-60"/>
<text text-anchor="middle" x="51" y="-39.5" font-family="Helvetica,sans-Serif" font-size="10.00">Value</text>
</a>
</g>
</g>
</g>
</svg>
