<?xml version="1.0" encoding="UTF-8" standalone="no"?>
<!DOCTYPE svg PUBLIC "-//W3C//DTD SVG 1.1//EN"
 "http://www.w3.org/Graphics/SVG/1.1/DTD/svg11.dtd">
<!-- Generated by graphviz version 2.38.0 (20140413.2041)
 -->
<!-- Title: Graph Legend Pages: 1 -->
<svg width="514pt" height="159pt"
 viewBox="0.00 0.00 513.50 159.00" xmlns="http://www.w3.org/2000/svg" xmlns:xlink="http://www.w3.org/1999/xlink">
<g id="graph0" class="graph" transform="scale(1 1) rotate(0) translate(4 155)">
<title>Graph Legend</title>
<polygon fill="white" stroke="none" points="-4,4 -4,-155 509.5,-155 509.5,4 -4,4"/>
<!-- Node9 -->
<g id="node1" class="node"><title>Node9</title>
<polygon fill="#bfbfbf" stroke="black" points="295,-19 240,-19 240,-0 295,-0 295,-19"/>
<text text-anchor="middle" x="267.5" y="-7" font-family="Helvetica,sans-Serif" font-size="10.00">Inherited</text>
</g>
<!-- Node10 -->
<g id="node2" class="node"><title>Node10</title>
<g id="a_node2"><a xlink:href="$classPublicBase.html" xlink:title="PublicBase">
<polygon fill="none" stroke="black" points="67,-85 0,-85 0,-66 67,-66 67,-85"/>
<text text-anchor="middle" x="33.5" y="-73" font-family="Helvetica,sans-Serif" font-size="10.00">PublicBase</text>
</a>
</g>
</g>
<!-- Node10&#45;&gt;Node9 -->
<g id="edge1" class="edge"><title>Node10&#45;&gt;Node9</title>
<path fill="none" stroke="midnightblue" d="M74.7188,-63.2265C122.177,-50.2465 198.831,-29.2813 239.718,-18.0984"/>
<polygon fill="midnightblue" stroke="midnightblue" points="73.7806,-59.8544 65.0583,-65.8687 75.6274,-66.6065 73.7806,-59.8544"/>
</g>
<!-- Node11 -->
<g id="node3" class="node"><title>Node11</title>
<g id="a_node3"><a xlink:href="$classTruncated.html" xlink:title="Truncated">
<polygon fill="none" stroke="red" points="64.5,-151 2.5,-151 2.5,-132 64.5,-132 64.5,-151"/>
<text text-anchor="middle" x="33.5" y="-139" font-family="Helvetica,sans-Serif" font-size="10.00">Truncated</text>
</a>
</g>
</g>
<!-- Node11&#45;&gt;Node10 -->
<g id="edge2" class="edge"><title>Node11&#45;&gt;Node10</title>
<path fill="none" stroke="midnightblue" d="M33.5,-121.584C33.5,-109.625 33.5,-94.7211 33.5,-85.4052"/>
<polygon fill="midnightblue" stroke="midnightblue" points="30.0001,-121.869 33.5,-131.869 37.0001,-121.869 30.0001,-121.869"/>
</g>
<!-- Node13 -->
<g id="node4" class="node"><title>Node13</title>
<g id="a_node4"><a xlink:href="$classProtectedBase.html" xlink:title="ProtectedBase">
<polygon fill="none" stroke="black" points="167.5,-85 85.5,-85 85.5,-66 167.5,-66 167.5,-85"/>
<text text-anchor="middle" x="126.5" y="-73" font-family="Helvetica,sans-Serif" font-size="10.00">ProtectedBase</text>
</a>
</g>
</g>
<!-- Node13&#45;&gt;Node9 -->
<g id="edge3" class="edge"><title>Node13&#45;&gt;Node9</title>
<path fill="none" stroke="darkgreen" d="M154.713,-61.6939C182.501,-49.081 224.19,-30.1584 248.335,-19.199"/>
<polygon fill="darkgreen" stroke="darkgreen" points="153.175,-58.5484 145.516,-65.8687 156.068,-64.9225 153.175,-58.5484"/>
</g>
<!-- Node14 -->
<g id="node5" class="node"><title>Node14</title>
<g id="a_node5"><a xlink:href="$classPrivateBase.html" xlink:title="PrivateBase">
<polygon fill="none" stroke="black" points="255.5,-85 185.5,-85 185.5,-66 255.5,-66 255.5,-85"/>
<text text-anchor="middle" x="220.5" y="-73" font-family="Helvetica,sans-Serif" font-size="10.00">PrivateBase</text>
</a>
</g>
</g>
<!-- Node14&#45;&gt;Node9 -->
<g id="edge4" class="edge"><title>Node14&#45;&gt;Node9</title>
<path fill="none" stroke="#8b1a1a" d="M232.788,-57.7673C241.804,-45.4902 253.696,-29.2973 260.96,-19.4052"/>
<polygon fill="#8b1a1a" stroke="#8b1a1a" points="229.937,-55.7369 226.839,-65.8687 235.579,-59.8803 229.937,-55.7369"/>
</g>
<!-- Node15 -->
<g id="node6" class="node"><title>Node15</title>
<polygon fill="none" stroke="#bfbfbf" points="357.5,-85 273.5,-85 273.5,-66 357.5,-66 357.5,-85"/>
<text text-anchor="middle" x="315.5" y="-73" font-family="Helvetica,sans-Serif" font-size="10.00">Undocumented</text>
</g>
<!-- Node15&#45;&gt;Node9 -->
<g id="edge5" class="edge"><title>Node15&#45;&gt;Node9</title>
<path fill="none" stroke="midnightblue" d="M302.95,-57.7673C293.743,-45.4902 281.598,-29.2973 274.179,-19.4052"/>
<polygon fill="midnightblue" stroke="midnightblue" points="300.226,-59.9687 309.027,-65.8687 305.826,-55.7686 300.226,-59.9687"/>
</g>
<!-- Node16 -->
<g id="node7" class="node"><title>Node16</title>
<g id="a_node7"><a xlink:href="$classTempl.html" xlink:title="Templ&lt; int &gt;">
<polygon fill="none" stroke="black" points="447.5,-85 375.5,-85 375.5,-66 447.5,-66 447.5,-85"/>
<text text-anchor="middle" x="411.5" y="-73" font-family="Helvetica,sans-Serif" font-size="10.00">Templ&lt; int &gt;</text>
</a>
</g>
</g>
<!-- Node16&#45;&gt;Node9 -->
<g id="edge6" class="edge"><title>Node16&#45;&gt;Node9</title>
<path fill="none" stroke="midnightblue" d="M382.686,-61.6939C354.307,-49.081 311.731,-30.1584 287.073,-19.199"/>
<polygon fill="midnightblue" stroke="midnightblue" points="381.52,-65.0056 392.08,-65.8687 384.363,-58.6089 381.52,-65.0056"/>
</g>
<!-- Node17 -->
<g id="node8" class="node"><title>Node17</title>
<g id="a_node8"><a xlink:href="$classTempl.html" xlink:title="Templ&lt; T &gt;">
<polygon fill="none" stroke="black" points="445.5,-151 377.5,-151 377.5,-132 445.5,-132 445.5,-151"/>
<text text-anchor="middle" x="411.5" y="-139" font-family="Helvetica,sans-Serif" font-size="10.00">Templ&lt; T &gt;</text>
</a>
</g>
</g>
<!-- Node17&#45;&gt;Node16 -->
<g id="edge7" class="edge"><title>Node17&#45;&gt;Node16</title>
<path fill="none" stroke="orange" stroke-dasharray="5,2" d="M411.5,-121.584C411.5,-109.625 411.5,-94.7211 411.5,-85.4052"/>
<polygon fill="orange" stroke="orange" points="408,-121.869 411.5,-131.869 415,-121.869 408,-121.869"/>
<text text-anchor="middle" x="425.5" y="-106" font-family="Helvetica,sans-Serif" font-size="10.00">&lt; int &gt;</text>
</g>
<!-- Node18 -->
<g id="node9" class="node"><title>Node18</title>
<g id="a_node9"><a xlink:href="$classUsed.html" xlink:title="Used">
<polygon fill="none" stroke="black" points="505.5,-85 465.5,-85 465.5,-66 505.5,-66 505.5,-85"/>
<text text-anchor="middle" x="485.5" y="-73" font-family="Helvetica,sans-Serif" font-size="10.00">Used</text>
</a>
</g>
</g>
<!-- Node18&#45;&gt;Node9 -->
<g id="edge8" class="edge"><title>Node18&#45;&gt;Node9</title>
<path fill="none" stroke="#9a32cd" stroke-dasharray="5,2" d="M455.663,-65.7405C413.366,-53.3231 336.548,-30.7708 295.359,-18.6788"/>
<polygon fill="#9a32cd" stroke="#9a32cd" points="454.801,-69.1351 465.382,-68.5938 456.773,-62.4185 454.801,-69.1351"/>
<text text-anchor="middle" x="421" y="-40" font-family="Helvetica,sans-Serif" font-size="10.00">m_usedClass</text>
</g>
</g>
</svg>
