<?xml version="1.0" encoding="UTF-8" standalone="no"?>
<!DOCTYPE svg PUBLIC "-//W3C//DTD SVG 1.1//EN"
 "http://www.w3.org/Graphics/SVG/1.1/DTD/svg11.dtd">
<!-- Generated by graphviz version 2.38.0 (20140413.2041)
 -->
<!-- Title: Graphical Class Hierarchy Pages: 1 -->
<svg width="246pt" height="66pt"
 viewBox="0.00 0.00 246.00 66.00" xmlns="http://www.w3.org/2000/svg" xmlns:xlink="http://www.w3.org/1999/xlink">
<g id="graph0" class="graph" transform="scale(1 1) rotate(0) translate(4 62)">
<title>Graphical Class Hierarchy</title>
<polygon fill="white" stroke="none" points="-4,4 -4,-62 242,-62 242,4 -4,4"/>
<!-- Node1 -->
<g id="node1" class="node"><title>Node1</title>
<polygon fill="white" stroke="#bfbfbf" points="0,-19.5 0,-38.5 60,-38.5 60,-19.5 0,-19.5"/>
<text text-anchor="middle" x="30" y="-26.5" font-family="Helvetica,sans-Serif" font-size="10.00">Exception</text>
</g>
<!-- Node2 -->
<g id="node2" class="node"><title>Node2</title>
<g id="a_node2"><a xlink:href="class_sabberworm_1_1_c_s_s_1_1_parsing_1_1_output_exception.html" target="_top" xlink:title="Thrown if the CSS parsers attempts to print something invalid. ">
<polygon fill="white" stroke="black" points="122,-38.5 122,-57.5 212,-57.5 212,-38.5 122,-38.5"/>
<text text-anchor="middle" x="167" y="-45.5" font-family="Helvetica,sans-Serif" font-size="10.00">OutputException</text>
</a>
</g>
</g>
<!-- Node1&#45;&gt;Node2 -->
<g id="edge1" class="edge"><title>Node1&#45;&gt;Node2</title>
<path fill="none" stroke="midnightblue" d="M70.4645,-34.5543C86.5872,-36.8234 105.305,-39.4577 121.878,-41.7902"/>
<polygon fill="midnightblue" stroke="midnightblue" points="70.6832,-31.0506 60.293,-33.1227 69.7076,-37.9823 70.6832,-31.0506"/>
</g>
<!-- Node3 -->
<g id="node3" class="node"><title>Node3</title>
<g id="a_node3"><a xlink:href="class_sabberworm_1_1_c_s_s_1_1_parsing_1_1_unexpected_token_exception.html" target="_top" xlink:title="Thrown if the CSS parsers encounters a token it did not expect. ">
<polygon fill="white" stroke="black" points="96,-0.5 96,-19.5 238,-19.5 238,-0.5 96,-0.5"/>
<text text-anchor="middle" x="167" y="-7.5" font-family="Helvetica,sans-Serif" font-size="10.00">UnexpectedTokenException</text>
</a>
</g>
</g>
<!-- Node1&#45;&gt;Node3 -->
<g id="edge2" class="edge"><title>Node1&#45;&gt;Node3</title>
<path fill="none" stroke="midnightblue" d="M70.2344,-23.4781C79.0499,-22.2374 88.6504,-20.8862 98.2574,-19.5341"/>
<polygon fill="midnightblue" stroke="midnightblue" points="69.7076,-20.0177 60.293,-24.8773 70.6832,-26.9494 69.7076,-20.0177"/>
</g>
</g>
</svg>
