<?xml version="1.0" encoding="UTF-8" standalone="no"?>
<!DOCTYPE svg PUBLIC "-//W3C//DTD SVG 1.1//EN"
 "http://www.w3.org/Graphics/SVG/1.1/DTD/svg11.dtd">
<!-- Generated by graphviz version 2.38.0 (20140413.2041)
 -->
<!-- Title: Graphical Class Hierarchy Pages: 1 -->
<svg width="244pt" height="64pt"
 viewBox="0.00 0.00 243.89 64.00" xmlns="http://www.w3.org/2000/svg" xmlns:xlink="http://www.w3.org/1999/xlink">
<g id="graph0" class="graph" transform="scale(1 1) rotate(0) translate(4 60)">
<title>Graphical Class Hierarchy</title>
<polygon fill="white" stroke="none" points="-4,4 -4,-60 239.886,-60 239.886,4 -4,4"/>
<!-- Node1 -->
<g id="node1" class="node"><title>Node1</title>
<polygon fill="white" stroke="#bfbfbf" points="0,-18.5 0,-36.5 59.916,-36.5 59.916,-18.5 0,-18.5"/>
<text text-anchor="middle" x="29.958" y="-24.5" font-family="Helvetica,sans-Serif" font-size="10.00">Exception</text>
</g>
<!-- Node2 -->
<g id="node2" class="node"><title>Node2</title>
<g id="a_node2"><a xlink:href="class_sabberworm_1_1_c_s_s_1_1_parsing_1_1_output_exception.html" target="_top" xlink:title="Thrown if the CSS parsers attempts to print something invalid. ">
<polygon fill="white" stroke="black" points="120.933,-37.5 120.933,-55.5 210.869,-55.5 210.869,-37.5 120.933,-37.5"/>
<text text-anchor="middle" x="165.901" y="-43.5" font-family="Helvetica,sans-Serif" font-size="10.00">OutputException</text>
</a>
</g>
</g>
<!-- Node1&#45;&gt;Node2 -->
<g id="edge1" class="edge"><title>Node1&#45;&gt;Node2</title>
<path fill="none" stroke="midnightblue" d="M70.0682,-33.0478C85.9909,-35.3065 104.471,-37.9279 120.865,-40.2534"/>
<polygon fill="midnightblue" stroke="midnightblue" points="70.4141,-29.5619 60.0216,-31.6227 69.4309,-36.4926 70.4141,-29.5619"/>
</g>
<!-- Node3 -->
<g id="node3" class="node"><title>Node3</title>
<g id="a_node3"><a xlink:href="class_sabberworm_1_1_c_s_s_1_1_parsing_1_1_unexpected_token_exception.html" target="_top" xlink:title="Thrown if the CSS parsers encounters a token it did not expect. ">
<polygon fill="white" stroke="black" points="95.916,-0.5 95.916,-18.5 235.886,-18.5 235.886,-0.5 95.916,-0.5"/>
<text text-anchor="middle" x="165.901" y="-6.5" font-family="Helvetica,sans-Serif" font-size="10.00">UnexpectedTokenException</text>
</a>
</g>
</g>
<!-- Node1&#45;&gt;Node3 -->
<g id="edge2" class="edge"><title>Node1&#45;&gt;Node3</title>
<path fill="none" stroke="midnightblue" d="M70.1706,-22.2304C78.8387,-21.0655 88.2606,-19.7994 97.6888,-18.5323"/>
<polygon fill="midnightblue" stroke="midnightblue" points="69.4663,-18.7935 60.0216,-23.5943 70.3987,-25.7311 69.4663,-18.7935"/>
</g>
</g>
</svg>
