<?xml version="1.0" encoding="UTF-8" standalone="no"?>
<!DOCTYPE svg PUBLIC "-//W3C//DTD SVG 1.1//EN"
 "http://www.w3.org/Graphics/SVG/1.1/DTD/svg11.dtd">
<!-- Generated by graphviz version 2.38.0 (20140413.2041)
 -->
<!-- Title: Graphical Class Hierarchy Pages: 1 -->
<svg width="504pt" height="415pt"
 viewBox="0.00 0.00 504.18 415.00" xmlns="http://www.w3.org/2000/svg" xmlns:xlink="http://www.w3.org/1999/xlink">
<g id="graph0" class="graph" transform="scale(1 1) rotate(0) translate(4 411)">
<title>Graphical Class Hierarchy</title>
<polygon fill="white" stroke="none" points="-4,4 -4,-411 500.178,-411 500.178,4 -4,4"/>
<!-- Node1 -->
<g id="node1" class="node"><title>Node1</title>
<g id="a_node1"><a xlink:href="class_sabberworm_1_1_c_s_s_1_1_c_s_s_list_1_1_c_s_s_list.html" target="_top" xlink:title="A CSSList is the most generic container available. ">
<polygon fill="white" stroke="black" points="7.79053,-333.5 7.79053,-351.5 59.9136,-351.5 59.9136,-333.5 7.79053,-333.5"/>
<text text-anchor="middle" x="33.8521" y="-339.5" font-family="Helvetica,sans-Serif" font-size="10.00">CSSList</text>
</a>
</g>
</g>
<!-- Node2 -->
<g id="node2" class="node"><title>Node2</title>
<g id="a_node2"><a xlink:href="class_sabberworm_1_1_c_s_s_1_1_c_s_s_list_1_1_c_s_s_block_list.html" target="_top" xlink:title="A CSSBlockList is a CSSList whose DeclarationBlocks are guaranteed to contain valid declaration block...">
<polygon fill="white" stroke="black" points="103.704,-352.5 103.704,-370.5 180.28,-370.5 180.28,-352.5 103.704,-352.5"/>
<text text-anchor="middle" x="141.992" y="-358.5" font-family="Helvetica,sans-Serif" font-size="10.00">CSSBlockList</text>
</a>
</g>
</g>
<!-- Node1&#45;&gt;Node2 -->
<g id="edge1" class="edge"><title>Node1&#45;&gt;Node2</title>
<path fill="none" stroke="midnightblue" d="M69.9294,-348.779C80.7103,-350.709 92.6147,-352.84 103.548,-354.797"/>
<polygon fill="midnightblue" stroke="midnightblue" points="70.4661,-345.32 60.0058,-347.003 69.2326,-352.21 70.4661,-345.32"/>
</g>
<!-- Node5 -->
<g id="node5" class="node"><title>Node5</title>
<g id="a_node5"><a xlink:href="class_sabberworm_1_1_c_s_s_1_1_c_s_s_list_1_1_key_frame.html" target="_top" xlink:title="KeyFrame">
<polygon fill="white" stroke="black" points="230.736,-314.5 230.736,-332.5 292.859,-332.5 292.859,-314.5 230.736,-314.5"/>
<text text-anchor="middle" x="261.797" y="-320.5" font-family="Helvetica,sans-Serif" font-size="10.00">KeyFrame</text>
</a>
</g>
</g>
<!-- Node1&#45;&gt;Node5 -->
<g id="edge4" class="edge"><title>Node1&#45;&gt;Node5</title>
<path fill="none" stroke="midnightblue" d="M70.3106,-339.518C114.373,-335.813 188.814,-329.553 230.39,-326.057"/>
<polygon fill="midnightblue" stroke="midnightblue" points="70.0032,-336.032 60.3316,-340.357 70.5898,-343.007 70.0032,-336.032"/>
</g>
<!-- Node3 -->
<g id="node3" class="node"><title>Node3</title>
<g id="a_node3"><a xlink:href="class_sabberworm_1_1_c_s_s_1_1_c_s_s_list_1_1_at_rule_block_list.html" target="_top" xlink:title="A BlockList constructed by an unknown &#45;rule. ">
<polygon fill="white" stroke="black" points="218.783,-351.5 218.783,-369.5 304.812,-369.5 304.812,-351.5 218.783,-351.5"/>
<text text-anchor="middle" x="261.797" y="-357.5" font-family="Helvetica,sans-Serif" font-size="10.00">AtRuleBlockList</text>
</a>
</g>
</g>
<!-- Node2&#45;&gt;Node3 -->
<g id="edge2" class="edge"><title>Node2&#45;&gt;Node3</title>
<path fill="none" stroke="midnightblue" d="M190.794,-361.094C200.019,-361.016 209.62,-360.934 218.649,-360.858"/>
<polygon fill="midnightblue" stroke="midnightblue" points="190.56,-357.596 180.59,-361.181 190.62,-364.596 190.56,-357.596"/>
</g>
<!-- Node4 -->
<g id="node4" class="node"><title>Node4</title>
<g id="a_node4"><a xlink:href="class_sabberworm_1_1_c_s_s_1_1_c_s_s_list_1_1_document.html" target="_top" xlink:title="The root CSSList of a parsed file. ">
<polygon fill="white" stroke="black" points="231.009,-388.5 231.009,-406.5 292.585,-406.5 292.585,-388.5 231.009,-388.5"/>
<text text-anchor="middle" x="261.797" y="-394.5" font-family="Helvetica,sans-Serif" font-size="10.00">Document</text>
</a>
</g>
</g>
<!-- Node2&#45;&gt;Node4 -->
<g id="edge3" class="edge"><title>Node2&#45;&gt;Node4</title>
<path fill="none" stroke="midnightblue" d="M182.303,-373.513C198.221,-378.377 216.292,-383.9 231.08,-388.419"/>
<polygon fill="midnightblue" stroke="midnightblue" points="183.306,-370.16 172.719,-370.584 181.26,-376.854 183.306,-370.16"/>
</g>
<!-- Node6 -->
<g id="node6" class="node"><title>Node6</title>
<g id="a_node6"><a xlink:href="interface_sabberworm_1_1_c_s_s_1_1_renderable.html" target="_top" xlink:title="Renderable">
<polygon fill="white" stroke="black" points="0,-148.5 0,-166.5 67.7041,-166.5 67.7041,-148.5 0,-148.5"/>
<text text-anchor="middle" x="33.8521" y="-154.5" font-family="Helvetica,sans-Serif" font-size="10.00">Renderable</text>
</a>
</g>
</g>
<!-- Node7 -->
<g id="node7" class="node"><title>Node7</title>
<g id="a_node7"><a xlink:href="interface_sabberworm_1_1_c_s_s_1_1_property_1_1_at_rule.html" target="_top" xlink:title="AtRule">
<polygon fill="white" stroke="black" points="118.985,-240.5 118.985,-258.5 165,-258.5 165,-240.5 118.985,-240.5"/>
<text text-anchor="middle" x="141.992" y="-246.5" font-family="Helvetica,sans-Serif" font-size="10.00">AtRule</text>
</a>
</g>
</g>
<!-- Node6&#45;&gt;Node7 -->
<g id="edge5" class="edge"><title>Node6&#45;&gt;Node7</title>
<path fill="none" stroke="midnightblue" d="M53.1873,-173.393C75.5116,-192.743 112.459,-224.768 130.47,-240.379"/>
<polygon fill="midnightblue" stroke="midnightblue" points="55.2661,-170.563 45.4172,-166.658 50.6813,-175.852 55.2661,-170.563"/>
</g>
<!-- Node12 -->
<g id="node12" class="node"><title>Node12</title>
<g id="a_node12"><a xlink:href="class_sabberworm_1_1_c_s_s_1_1_rule_set_1_1_rule_set.html" target="_top" xlink:title="RuleSet is a generic superclass denoting rules. ">
<polygon fill="white" stroke="black" points="116.204,-148.5 116.204,-166.5 167.78,-166.5 167.78,-148.5 116.204,-148.5"/>
<text text-anchor="middle" x="141.992" y="-154.5" font-family="Helvetica,sans-Serif" font-size="10.00">RuleSet</text>
</a>
</g>
</g>
<!-- Node6&#45;&gt;Node12 -->
<g id="edge12" class="edge"><title>Node6&#45;&gt;Node12</title>
<path fill="none" stroke="midnightblue" d="M78.0114,-157.5C90.973,-157.5 104.752,-157.5 116.107,-157.5"/>
<polygon fill="midnightblue" stroke="midnightblue" points="77.8537,-154 67.8536,-157.5 77.8536,-161 77.8537,-154"/>
</g>
<!-- Node14 -->
<g id="node14" class="node"><title>Node14</title>
<g id="a_node14"><a xlink:href="class_sabberworm_1_1_c_s_s_1_1_value_1_1_value.html" target="_top" xlink:title="Value">
<polygon fill="white" stroke="black" points="121.573,-92.5 121.573,-110.5 162.412,-110.5 162.412,-92.5 121.573,-92.5"/>
<text text-anchor="middle" x="141.992" y="-98.5" font-family="Helvetica,sans-Serif" font-size="10.00">Value</text>
</a>
</g>
</g>
<!-- Node6&#45;&gt;Node14 -->
<g id="edge15" class="edge"><title>Node6&#45;&gt;Node14</title>
<path fill="none" stroke="midnightblue" d="M61.3806,-143.503C80.9133,-133.198 106.906,-119.484 123.791,-110.575"/>
<polygon fill="midnightblue" stroke="midnightblue" points="59.5902,-140.491 52.3789,-148.253 62.8567,-146.682 59.5902,-140.491"/>
</g>
<!-- Node7&#45;&gt;Node3 -->
<g id="edge6" class="edge"><title>Node7&#45;&gt;Node3</title>
<path fill="none" stroke="midnightblue" d="M153.151,-267.439C165.635,-288.061 188.603,-321.728 216.28,-342.5 220.948,-346.003 226.391,-348.936 231.837,-351.349"/>
<polygon fill="midnightblue" stroke="midnightblue" points="156.115,-265.575 148.032,-258.726 150.08,-269.121 156.115,-265.575"/>
</g>
<!-- Node7&#45;&gt;Node5 -->
<g id="edge7" class="edge"><title>Node7&#45;&gt;Node5</title>
<path fill="none" stroke="midnightblue" d="M160.87,-265.353C175.148,-277.456 196.049,-293.96 216.28,-305.5 222.073,-308.804 228.593,-311.801 234.82,-314.36"/>
<polygon fill="midnightblue" stroke="midnightblue" points="163.141,-262.69 153.284,-258.807 158.568,-267.99 163.141,-262.69"/>
</g>
<!-- Node8 -->
<g id="node8" class="node"><title>Node8</title>
<g id="a_node8"><a xlink:href="class_sabberworm_1_1_c_s_s_1_1_property_1_1_charset.html" target="_top" xlink:title="Class representing an &#160;rule. ">
<polygon fill="white" stroke="black" points="236.29,-277.5 236.29,-295.5 287.305,-295.5 287.305,-277.5 236.29,-277.5"/>
<text text-anchor="middle" x="261.797" y="-283.5" font-family="Helvetica,sans-Serif" font-size="10.00">Charset</text>
</a>
</g>
</g>
<!-- Node7&#45;&gt;Node8 -->
<g id="edge8" class="edge"><title>Node7&#45;&gt;Node8</title>
<path fill="none" stroke="midnightblue" d="M174.949,-259.537C194.114,-265.556 218.13,-273.099 235.884,-278.675"/>
<polygon fill="midnightblue" stroke="midnightblue" points="175.74,-256.117 165.15,-256.459 173.642,-262.795 175.74,-256.117"/>
</g>
<!-- Node9 -->
<g id="node9" class="node"><title>Node9</title>
<g id="a_node9"><a xlink:href="class_sabberworm_1_1_c_s_s_1_1_property_1_1_c_s_s_namespace.html" target="_top" xlink:title="CSSNamespace">
<polygon fill="white" stroke="black" points="216.837,-240.5 216.837,-258.5 306.758,-258.5 306.758,-240.5 216.837,-240.5"/>
<text text-anchor="middle" x="261.797" y="-246.5" font-family="Helvetica,sans-Serif" font-size="10.00">CSSNamespace</text>
</a>
</g>
</g>
<!-- Node7&#45;&gt;Node9 -->
<g id="edge9" class="edge"><title>Node7&#45;&gt;Node9</title>
<path fill="none" stroke="midnightblue" d="M175.327,-249.5C188.119,-249.5 203.027,-249.5 216.777,-249.5"/>
<polygon fill="midnightblue" stroke="midnightblue" points="175.15,-246 165.15,-249.5 175.15,-253 175.15,-246"/>
</g>
<!-- Node10 -->
<g id="node10" class="node"><title>Node10</title>
<g id="a_node10"><a xlink:href="class_sabberworm_1_1_c_s_s_1_1_property_1_1_import.html" target="_top" xlink:title="Class representing an &#160;rule. ">
<polygon fill="white" stroke="black" points="239.627,-203.5 239.627,-221.5 283.967,-221.5 283.967,-203.5 239.627,-203.5"/>
<text text-anchor="middle" x="261.797" y="-209.5" font-family="Helvetica,sans-Serif" font-size="10.00">Import</text>
</a>
</g>
</g>
<!-- Node7&#45;&gt;Node10 -->
<g id="edge10" class="edge"><title>Node7&#45;&gt;Node10</title>
<path fill="none" stroke="midnightblue" d="M174.723,-239.534C195.27,-233.081 221.465,-224.853 239.532,-219.179"/>
<polygon fill="midnightblue" stroke="midnightblue" points="173.642,-236.205 165.15,-242.541 175.74,-242.883 173.642,-236.205"/>
</g>
<!-- Node11 -->
<g id="node11" class="node"><title>Node11</title>
<g id="a_node11"><a xlink:href="class_sabberworm_1_1_c_s_s_1_1_rule_set_1_1_at_rule_set.html" target="_top" xlink:title="A RuleSet constructed by an unknown &#45;rule. ">
<polygon fill="white" stroke="black" points="231.285,-166.5 231.285,-184.5 292.31,-184.5 292.31,-166.5 231.285,-166.5"/>
<text text-anchor="middle" x="261.797" y="-172.5" font-family="Helvetica,sans-Serif" font-size="10.00">AtRuleSet</text>
</a>
</g>
</g>
<!-- Node7&#45;&gt;Node11 -->
<g id="edge11" class="edge"><title>Node7&#45;&gt;Node11</title>
<path fill="none" stroke="midnightblue" d="M161.382,-233.729C175.706,-221.945 196.429,-205.961 216.28,-194.5 222.684,-190.803 229.946,-187.402 236.719,-184.531"/>
<polygon fill="midnightblue" stroke="midnightblue" points="158.778,-231.344 153.355,-240.446 163.27,-236.713 158.778,-231.344"/>
</g>
<!-- Node12&#45;&gt;Node11 -->
<g id="edge13" class="edge"><title>Node12&#45;&gt;Node11</title>
<path fill="none" stroke="midnightblue" d="M178.055,-162.857C195.002,-165.447 215.116,-168.52 231.27,-170.988"/>
<polygon fill="midnightblue" stroke="midnightblue" points="178.39,-159.368 167.976,-161.317 177.332,-166.288 178.39,-159.368"/>
</g>
<!-- Node13 -->
<g id="node13" class="node"><title>Node13</title>
<g id="a_node13"><a xlink:href="class_sabberworm_1_1_c_s_s_1_1_rule_set_1_1_declaration_block.html" target="_top" xlink:title="Declaration blocks are the parts of a css file which denote the rules belonging to a selector...">
<polygon fill="white" stroke="black" points="216.28,-129.5 216.28,-147.5 307.314,-147.5 307.314,-129.5 216.28,-129.5"/>
<text text-anchor="middle" x="261.797" y="-135.5" font-family="Helvetica,sans-Serif" font-size="10.00">DeclarationBlock</text>
</a>
</g>
</g>
<!-- Node12&#45;&gt;Node13 -->
<g id="edge14" class="edge"><title>Node12&#45;&gt;Node13</title>
<path fill="none" stroke="midnightblue" d="M177.96,-151.86C189.852,-149.942 203.312,-147.771 215.872,-145.746"/>
<polygon fill="midnightblue" stroke="midnightblue" points="177.291,-148.423 167.976,-153.471 178.405,-155.334 177.291,-148.423"/>
</g>
<!-- Node15 -->
<g id="node15" class="node"><title>Node15</title>
<g id="a_node15"><a xlink:href="class_sabberworm_1_1_c_s_s_1_1_value_1_1_primitive_value.html" target="_top" xlink:title="PrimitiveValue">
<polygon fill="white" stroke="black" points="222.21,-92.5 222.21,-110.5 301.384,-110.5 301.384,-92.5 222.21,-92.5"/>
<text text-anchor="middle" x="261.797" y="-98.5" font-family="Helvetica,sans-Serif" font-size="10.00">PrimitiveValue</text>
</a>
</g>
</g>
<!-- Node14&#45;&gt;Node15 -->
<g id="edge16" class="edge"><title>Node14&#45;&gt;Node15</title>
<path fill="none" stroke="midnightblue" d="M172.616,-101.5C187.505,-101.5 205.742,-101.5 221.759,-101.5"/>
<polygon fill="midnightblue" stroke="midnightblue" points="172.445,-98.0001 162.445,-101.5 172.445,-105 172.445,-98.0001"/>
</g>
<!-- Node19 -->
<g id="node19" class="node"><title>Node19</title>
<g id="a_node19"><a xlink:href="class_sabberworm_1_1_c_s_s_1_1_value_1_1_value_list.html" target="_top" xlink:title="ValueList">
<polygon fill="white" stroke="black" points="233.597,-37.5 233.597,-55.5 289.998,-55.5 289.998,-37.5 233.597,-37.5"/>
<text text-anchor="middle" x="261.797" y="-43.5" font-family="Helvetica,sans-Serif" font-size="10.00">ValueList</text>
</a>
</g>
</g>
<!-- Node14&#45;&gt;Node19 -->
<g id="edge20" class="edge"><title>Node14&#45;&gt;Node19</title>
<path fill="none" stroke="midnightblue" d="M171.787,-88.0563C193.388,-77.9716 222.377,-64.4376 241.315,-55.5956"/>
<polygon fill="midnightblue" stroke="midnightblue" points="170.026,-85.016 162.445,-92.4179 172.987,-91.3588 170.026,-85.016"/>
</g>
<!-- Node16 -->
<g id="node16" class="node"><title>Node16</title>
<g id="a_node16"><a xlink:href="class_sabberworm_1_1_c_s_s_1_1_value_1_1_c_s_s_string.html" target="_top" xlink:title="CSSString">
<polygon fill="white" stroke="black" points="350.456,-148.5 350.456,-166.5 413.14,-166.5 413.14,-148.5 350.456,-148.5"/>
<text text-anchor="middle" x="381.798" y="-154.5" font-family="Helvetica,sans-Serif" font-size="10.00">CSSString</text>
</a>
</g>
</g>
<!-- Node15&#45;&gt;Node16 -->
<g id="edge17" class="edge"><title>Node15&#45;&gt;Node16</title>
<path fill="none" stroke="midnightblue" d="M295.989,-114.487C299.832,-116.119 303.676,-117.81 307.314,-119.5 323.722,-127.123 327.245,-130.188 343.314,-138.5 349.665,-141.785 356.646,-145.339 362.845,-148.475"/>
<polygon fill="midnightblue" stroke="midnightblue" points="297.133,-111.173 286.554,-110.588 294.459,-117.642 297.133,-111.173"/>
</g>
<!-- Node17 -->
<g id="node17" class="node"><title>Node17</title>
<g id="a_node17"><a xlink:href="class_sabberworm_1_1_c_s_s_1_1_value_1_1_size.html" target="_top" xlink:title="Size">
<polygon fill="white" stroke="black" points="364.071,-111.5 364.071,-129.5 399.524,-129.5 399.524,-111.5 364.071,-111.5"/>
<text text-anchor="middle" x="381.798" y="-117.5" font-family="Helvetica,sans-Serif" font-size="10.00">Size</text>
</a>
</g>
</g>
<!-- Node15&#45;&gt;Node17 -->
<g id="edge18" class="edge"><title>Node15&#45;&gt;Node17</title>
<path fill="none" stroke="midnightblue" d="M311.312,-109.312C329.973,-112.316 350.081,-115.554 363.84,-117.77"/>
<polygon fill="midnightblue" stroke="midnightblue" points="311.864,-105.856 301.435,-107.721 310.752,-112.767 311.864,-105.856"/>
</g>
<!-- Node18 -->
<g id="node18" class="node"><title>Node18</title>
<g id="a_node18"><a xlink:href="class_sabberworm_1_1_c_s_s_1_1_value_1_1_u_r_l.html" target="_top" xlink:title="URL">
<polygon fill="white" stroke="black" points="363.795,-74.5 363.795,-92.5 399.8,-92.5 399.8,-74.5 363.795,-74.5"/>
<text text-anchor="middle" x="381.798" y="-80.5" font-family="Helvetica,sans-Serif" font-size="10.00">URL</text>
</a>
</g>
</g>
<!-- Node15&#45;&gt;Node18 -->
<g id="edge19" class="edge"><title>Node15&#45;&gt;Node18</title>
<path fill="none" stroke="midnightblue" d="M311.504,-94.0702C329.971,-91.2532 349.827,-88.2244 363.529,-86.1342"/>
<polygon fill="midnightblue" stroke="midnightblue" points="310.793,-90.6381 301.435,-95.6061 311.849,-97.558 310.793,-90.6381"/>
</g>
<!-- Node20 -->
<g id="node20" class="node"><title>Node20</title>
<g id="a_node20"><a xlink:href="class_sabberworm_1_1_c_s_s_1_1_value_1_1_c_s_s_function.html" target="_top" xlink:title="CSSFunction">
<polygon fill="white" stroke="black" points="344.34,-37.5 344.34,-55.5 419.256,-55.5 419.256,-37.5 344.34,-37.5"/>
<text text-anchor="middle" x="381.798" y="-43.5" font-family="Helvetica,sans-Serif" font-size="10.00">CSSFunction</text>
</a>
</g>
</g>
<!-- Node19&#45;&gt;Node20 -->
<g id="edge21" class="edge"><title>Node19&#45;&gt;Node20</title>
<path fill="none" stroke="midnightblue" d="M300.444,-46.5C314.439,-46.5 330.288,-46.5 344.189,-46.5"/>
<polygon fill="midnightblue" stroke="midnightblue" points="300.166,-43.0001 290.166,-46.5 300.166,-50.0001 300.166,-43.0001"/>
</g>
<!-- Node22 -->
<g id="node22" class="node"><title>Node22</title>
<g id="a_node22"><a xlink:href="class_sabberworm_1_1_c_s_s_1_1_value_1_1_rule_value_list.html" target="_top" xlink:title="RuleValueList">
<polygon fill="white" stroke="black" points="343.314,-0.5 343.314,-18.5 420.281,-18.5 420.281,-0.5 343.314,-0.5"/>
<text text-anchor="middle" x="381.798" y="-6.5" font-family="Helvetica,sans-Serif" font-size="10.00">RuleValueList</text>
</a>
</g>
</g>
<!-- Node19&#45;&gt;Node22 -->
<g id="edge23" class="edge"><title>Node19&#45;&gt;Node22</title>
<path fill="none" stroke="midnightblue" d="M300.179,-34.7787C316.914,-29.5314 336.341,-23.4397 351.932,-18.5512"/>
<polygon fill="midnightblue" stroke="midnightblue" points="298.66,-31.5868 290.166,-37.9185 300.755,-38.2661 298.66,-31.5868"/>
</g>
<!-- Node21 -->
<g id="node21" class="node"><title>Node21</title>
<g id="a_node21"><a xlink:href="class_sabberworm_1_1_c_s_s_1_1_value_1_1_color.html" target="_top" xlink:title="Color">
<polygon fill="white" stroke="black" points="456.281,-37.5 456.281,-55.5 496.178,-55.5 496.178,-37.5 456.281,-37.5"/>
<text text-anchor="middle" x="476.229" y="-43.5" font-family="Helvetica,sans-Serif" font-size="10.00">Color</text>
</a>
</g>
</g>
<!-- Node20&#45;&gt;Node21 -->
<g id="edge22" class="edge"><title>Node20&#45;&gt;Node21</title>
<path fill="none" stroke="midnightblue" d="M429.521,-46.5C438.971,-46.5 448.394,-46.5 456.207,-46.5"/>
<polygon fill="midnightblue" stroke="midnightblue" points="429.329,-43.0001 419.329,-46.5 429.329,-50.0001 429.329,-43.0001"/>
</g>
</g>
</svg>
