<?xml version="1.0" encoding="UTF-8" standalone="no"?>
<!DOCTYPE svg PUBLIC "-//W3C//DTD SVG 1.1//EN"
 "http://www.w3.org/Graphics/SVG/1.1/DTD/svg11.dtd">
<!-- Generated by graphviz version 2.38.0 (20140413.2041)
 -->
<!-- Title: Graphical Class Hierarchy Pages: 1 -->
<svg width="507pt" height="427pt"
 viewBox="0.00 0.00 507.00 427.00" xmlns="http://www.w3.org/2000/svg" xmlns:xlink="http://www.w3.org/1999/xlink">
<g id="graph0" class="graph" transform="scale(1 1) rotate(0) translate(4 423)">
<title>Graphical Class Hierarchy</title>
<polygon fill="white" stroke="none" points="-4,4 -4,-423 503,-423 503,4 -4,4"/>
<!-- Node1 -->
<g id="node1" class="node"><title>Node1</title>
<g id="a_node1"><a xlink:href="class_sabberworm_1_1_c_s_s_1_1_c_s_s_list_1_1_c_s_s_list.html" target="_top" xlink:title="A CSSList is the most generic container available. ">
<polygon fill="white" stroke="black" points="7.5,-342.5 7.5,-361.5 60.5,-361.5 60.5,-342.5 7.5,-342.5"/>
<text text-anchor="middle" x="34" y="-349.5" font-family="Helvetica,sans-Serif" font-size="10.00">CSSList</text>
</a>
</g>
</g>
<!-- Node2 -->
<g id="node2" class="node"><title>Node2</title>
<g id="a_node2"><a xlink:href="class_sabberworm_1_1_c_s_s_1_1_c_s_s_list_1_1_c_s_s_block_list.html" target="_top" xlink:title="A CSSBlockList is a CSSList whose DeclarationBlocks are guaranteed to contain valid declaration block...">
<polygon fill="white" stroke="black" points="104,-361.5 104,-380.5 181,-380.5 181,-361.5 104,-361.5"/>
<text text-anchor="middle" x="142.5" y="-368.5" font-family="Helvetica,sans-Serif" font-size="10.00">CSSBlockList</text>
</a>
</g>
</g>
<!-- Node1&#45;&gt;Node2 -->
<g id="edge1" class="edge"><title>Node1&#45;&gt;Node2</title>
<path fill="none" stroke="midnightblue" d="M70.3647,-358.309C81.0609,-360.217 92.8464,-362.32 103.696,-364.256"/>
<polygon fill="midnightblue" stroke="midnightblue" points="70.9687,-354.862 60.5094,-356.551 69.7392,-361.753 70.9687,-354.862"/>
</g>
<!-- Node5 -->
<g id="node5" class="node"><title>Node5</title>
<g id="a_node5"><a xlink:href="class_sabberworm_1_1_c_s_s_1_1_c_s_s_list_1_1_key_frame.html" target="_top" xlink:title="KeyFrame">
<polygon fill="white" stroke="black" points="231.5,-323.5 231.5,-342.5 294.5,-342.5 294.5,-323.5 231.5,-323.5"/>
<text text-anchor="middle" x="263" y="-330.5" font-family="Helvetica,sans-Serif" font-size="10.00">KeyFrame</text>
</a>
</g>
</g>
<!-- Node1&#45;&gt;Node5 -->
<g id="edge4" class="edge"><title>Node1&#45;&gt;Node5</title>
<path fill="none" stroke="midnightblue" d="M70.624,-349.018C114.892,-345.313 189.681,-339.053 231.451,-335.557"/>
<polygon fill="midnightblue" stroke="midnightblue" points="70.2717,-345.535 60.5985,-349.857 70.8556,-352.511 70.2717,-345.535"/>
</g>
<!-- Node3 -->
<g id="node3" class="node"><title>Node3</title>
<g id="a_node3"><a xlink:href="class_sabberworm_1_1_c_s_s_1_1_c_s_s_list_1_1_at_rule_block_list.html" target="_top" xlink:title="A BlockList constructed by an unknown @&#45;rule. ">
<polygon fill="white" stroke="black" points="219.5,-361.5 219.5,-380.5 306.5,-380.5 306.5,-361.5 219.5,-361.5"/>
<text text-anchor="middle" x="263" y="-368.5" font-family="Helvetica,sans-Serif" font-size="10.00">AtRuleBlockList</text>
</a>
</g>
</g>
<!-- Node2&#45;&gt;Node3 -->
<g id="edge2" class="edge"><title>Node2&#45;&gt;Node3</title>
<path fill="none" stroke="midnightblue" d="M191.468,-371C200.641,-371 210.188,-371 219.186,-371"/>
<polygon fill="midnightblue" stroke="midnightblue" points="191.32,-367.5 181.32,-371 191.32,-374.5 191.32,-367.5"/>
</g>
<!-- Node4 -->
<g id="node4" class="node"><title>Node4</title>
<g id="a_node4"><a xlink:href="class_sabberworm_1_1_c_s_s_1_1_c_s_s_list_1_1_document.html" target="_top" xlink:title="The root CSSList of a parsed file. ">
<polygon fill="white" stroke="black" points="232,-399.5 232,-418.5 294,-418.5 294,-399.5 232,-399.5"/>
<text text-anchor="middle" x="263" y="-406.5" font-family="Helvetica,sans-Serif" font-size="10.00">Document</text>
</a>
</g>
</g>
<!-- Node2&#45;&gt;Node4 -->
<g id="edge3" class="edge"><title>Node2&#45;&gt;Node4</title>
<path fill="none" stroke="midnightblue" d="M183.043,-383.68C199.054,-388.815 217.232,-394.644 232.107,-399.414"/>
<polygon fill="midnightblue" stroke="midnightblue" points="183.994,-380.31 173.403,-380.589 181.856,-386.975 183.994,-380.31"/>
</g>
<!-- Node6 -->
<g id="node6" class="node"><title>Node6</title>
<g id="a_node6"><a xlink:href="interface_sabberworm_1_1_c_s_s_1_1_renderable.html" target="_top" xlink:title="Renderable">
<polygon fill="white" stroke="black" points="0,-152.5 0,-171.5 68,-171.5 68,-152.5 0,-152.5"/>
<text text-anchor="middle" x="34" y="-159.5" font-family="Helvetica,sans-Serif" font-size="10.00">Renderable</text>
</a>
</g>
</g>
<!-- Node7 -->
<g id="node7" class="node"><title>Node7</title>
<g id="a_node7"><a xlink:href="interface_sabberworm_1_1_c_s_s_1_1_property_1_1_at_rule.html" target="_top" xlink:title="AtRule">
<polygon fill="white" stroke="black" points="119,-247.5 119,-266.5 166,-266.5 166,-247.5 119,-247.5"/>
<text text-anchor="middle" x="142.5" y="-254.5" font-family="Helvetica,sans-Serif" font-size="10.00">AtRule</text>
</a>
</g>
</g>
<!-- Node6&#45;&gt;Node7 -->
<g id="edge5" class="edge"><title>Node6&#45;&gt;Node7</title>
<path fill="none" stroke="midnightblue" d="M53.5042,-178.506C75.8245,-198.416 112.6,-231.221 130.722,-247.386"/>
<polygon fill="midnightblue" stroke="midnightblue" points="55.7886,-175.854 45.9962,-171.809 51.1289,-181.077 55.7886,-175.854"/>
</g>
<!-- Node12 -->
<g id="node12" class="node"><title>Node12</title>
<g id="a_node12"><a xlink:href="class_sabberworm_1_1_c_s_s_1_1_rule_set_1_1_rule_set.html" target="_top" xlink:title="RuleSet is a generic superclass denoting rules. ">
<polygon fill="white" stroke="black" points="116.5,-152.5 116.5,-171.5 168.5,-171.5 168.5,-152.5 116.5,-152.5"/>
<text text-anchor="middle" x="142.5" y="-159.5" font-family="Helvetica,sans-Serif" font-size="10.00">RuleSet</text>
</a>
</g>
</g>
<!-- Node6&#45;&gt;Node12 -->
<g id="edge12" class="edge"><title>Node6&#45;&gt;Node12</title>
<path fill="none" stroke="midnightblue" d="M78.2242,-162C91.1247,-162 104.84,-162 116.191,-162"/>
<polygon fill="midnightblue" stroke="midnightblue" points="78.1135,-158.5 68.1135,-162 78.1134,-165.5 78.1135,-158.5"/>
</g>
<!-- Node14 -->
<g id="node14" class="node"><title>Node14</title>
<g id="a_node14"><a xlink:href="class_sabberworm_1_1_c_s_s_1_1_value_1_1_value.html" target="_top" xlink:title="Value">
<polygon fill="white" stroke="black" points="121.5,-95.5 121.5,-114.5 163.5,-114.5 163.5,-95.5 121.5,-95.5"/>
<text text-anchor="middle" x="142.5" y="-102.5" font-family="Helvetica,sans-Serif" font-size="10.00">Value</text>
</a>
</g>
</g>
<!-- Node6&#45;&gt;Node14 -->
<g id="edge15" class="edge"><title>Node6&#45;&gt;Node14</title>
<path fill="none" stroke="midnightblue" d="M62.0034,-147.547C81.3497,-137.193 106.859,-123.54 123.701,-114.526"/>
<polygon fill="midnightblue" stroke="midnightblue" points="60.2313,-144.526 53.0663,-152.331 63.5345,-150.698 60.2313,-144.526"/>
</g>
<!-- Node7&#45;&gt;Node3 -->
<g id="edge6" class="edge"><title>Node7&#45;&gt;Node3</title>
<path fill="none" stroke="midnightblue" d="M153.86,-275.582C166.402,-296.611 189.323,-330.7 217,-352 221.839,-355.724 227.515,-358.856 233.176,-361.435"/>
<polygon fill="midnightblue" stroke="midnightblue" points="156.743,-273.577 148.704,-266.676 150.685,-277.084 156.743,-273.577"/>
</g>
<!-- Node7&#45;&gt;Node5 -->
<g id="edge7" class="edge"><title>Node7&#45;&gt;Node5</title>
<path fill="none" stroke="midnightblue" d="M161.937,-273.495C176.248,-285.737 196.963,-302.271 217,-314 223.001,-317.513 229.775,-320.725 236.211,-323.468"/>
<polygon fill="midnightblue" stroke="midnightblue" points="164.146,-270.777 154.305,-266.852 159.55,-276.057 164.146,-270.777"/>
</g>
<!-- Node8 -->
<g id="node8" class="node"><title>Node8</title>
<g id="a_node8"><a xlink:href="class_sabberworm_1_1_c_s_s_1_1_property_1_1_charset.html" target="_top" xlink:title="Class representing an &#160;rule. ">
<polygon fill="white" stroke="black" points="237,-285.5 237,-304.5 289,-304.5 289,-285.5 237,-285.5"/>
<text text-anchor="middle" x="263" y="-292.5" font-family="Helvetica,sans-Serif" font-size="10.00">Charset</text>
</a>
</g>
</g>
<!-- Node7&#45;&gt;Node8 -->
<g id="edge8" class="edge"><title>Node7&#45;&gt;Node8</title>
<path fill="none" stroke="midnightblue" d="M175.597,-267.293C194.776,-273.443 218.797,-281.146 236.64,-286.868"/>
<polygon fill="midnightblue" stroke="midnightblue" points="176.659,-263.958 166.068,-264.237 174.521,-270.623 176.659,-263.958"/>
</g>
<!-- Node9 -->
<g id="node9" class="node"><title>Node9</title>
<g id="a_node9"><a xlink:href="class_sabberworm_1_1_c_s_s_1_1_property_1_1_c_s_s_namespace.html" target="_top" xlink:title="CSSNamespace">
<polygon fill="white" stroke="black" points="218,-247.5 218,-266.5 308,-266.5 308,-247.5 218,-247.5"/>
<text text-anchor="middle" x="263" y="-254.5" font-family="Helvetica,sans-Serif" font-size="10.00">CSSNamespace</text>
</a>
</g>
</g>
<!-- Node7&#45;&gt;Node9 -->
<g id="edge9" class="edge"><title>Node7&#45;&gt;Node9</title>
<path fill="none" stroke="midnightblue" d="M176.31,-257C189.174,-257 204.131,-257 217.913,-257"/>
<polygon fill="midnightblue" stroke="midnightblue" points="176.068,-253.5 166.068,-257 176.068,-260.5 176.068,-253.5"/>
</g>
<!-- Node10 -->
<g id="node10" class="node"><title>Node10</title>
<g id="a_node10"><a xlink:href="class_sabberworm_1_1_c_s_s_1_1_property_1_1_import.html" target="_top" xlink:title="Class representing an &#160;rule. ">
<polygon fill="white" stroke="black" points="240.5,-209.5 240.5,-228.5 285.5,-228.5 285.5,-209.5 240.5,-209.5"/>
<text text-anchor="middle" x="263" y="-216.5" font-family="Helvetica,sans-Serif" font-size="10.00">Import</text>
</a>
</g>
</g>
<!-- Node7&#45;&gt;Node10 -->
<g id="edge10" class="edge"><title>Node7&#45;&gt;Node10</title>
<path fill="none" stroke="midnightblue" d="M175.639,-246.694C196.163,-240.112 222.218,-231.757 240.316,-225.954"/>
<polygon fill="midnightblue" stroke="midnightblue" points="174.521,-243.377 166.068,-249.763 176.659,-250.042 174.521,-243.377"/>
</g>
<!-- Node11 -->
<g id="node11" class="node"><title>Node11</title>
<g id="a_node11"><a xlink:href="class_sabberworm_1_1_c_s_s_1_1_rule_set_1_1_at_rule_set.html" target="_top" xlink:title="A RuleSet constructed by an unknown @&#45;rule. ">
<polygon fill="white" stroke="black" points="232,-171.5 232,-190.5 294,-190.5 294,-171.5 232,-171.5"/>
<text text-anchor="middle" x="263" y="-178.5" font-family="Helvetica,sans-Serif" font-size="10.00">AtRuleSet</text>
</a>
</g>
</g>
<!-- Node7&#45;&gt;Node11 -->
<g id="edge11" class="edge"><title>Node7&#45;&gt;Node11</title>
<path fill="none" stroke="midnightblue" d="M161.937,-240.505C176.248,-228.263 196.963,-211.729 217,-200 223.001,-196.487 229.775,-193.275 236.211,-190.532"/>
<polygon fill="midnightblue" stroke="midnightblue" points="159.55,-237.943 154.305,-247.148 164.146,-243.223 159.55,-237.943"/>
</g>
<!-- Node12&#45;&gt;Node11 -->
<g id="edge13" class="edge"><title>Node12&#45;&gt;Node11</title>
<path fill="none" stroke="midnightblue" d="M178.692,-167.643C195.605,-170.354 215.669,-173.571 231.868,-176.169"/>
<polygon fill="midnightblue" stroke="midnightblue" points="179.059,-164.157 168.631,-166.029 177.951,-171.069 179.059,-164.157"/>
</g>
<!-- Node13 -->
<g id="node13" class="node"><title>Node13</title>
<g id="a_node13"><a xlink:href="class_sabberworm_1_1_c_s_s_1_1_rule_set_1_1_declaration_block.html" target="_top" xlink:title="Declaration blocks are the parts of a css file which denote the rules belonging to a selector...">
<polygon fill="white" stroke="black" points="217,-133.5 217,-152.5 309,-152.5 309,-133.5 217,-133.5"/>
<text text-anchor="middle" x="263" y="-140.5" font-family="Helvetica,sans-Serif" font-size="10.00">DeclarationBlock</text>
</a>
</g>
</g>
<!-- Node12&#45;&gt;Node13 -->
<g id="edge14" class="edge"><title>Node12&#45;&gt;Node13</title>
<path fill="none" stroke="midnightblue" d="M178.674,-156.36C190.636,-154.442 204.175,-152.271 216.809,-150.246"/>
<polygon fill="midnightblue" stroke="midnightblue" points="177.951,-152.931 168.631,-157.971 179.059,-159.843 177.951,-152.931"/>
</g>
<!-- Node15 -->
<g id="node15" class="node"><title>Node15</title>
<g id="a_node15"><a xlink:href="class_sabberworm_1_1_c_s_s_1_1_value_1_1_primitive_value.html" target="_top" xlink:title="PrimitiveValue">
<polygon fill="white" stroke="black" points="223,-95.5 223,-114.5 303,-114.5 303,-95.5 223,-95.5"/>
<text text-anchor="middle" x="263" y="-102.5" font-family="Helvetica,sans-Serif" font-size="10.00">PrimitiveValue</text>
</a>
</g>
</g>
<!-- Node14&#45;&gt;Node15 -->
<g id="edge16" class="edge"><title>Node14&#45;&gt;Node15</title>
<path fill="none" stroke="midnightblue" d="M173.766,-105C188.611,-105 206.678,-105 222.588,-105"/>
<polygon fill="midnightblue" stroke="midnightblue" points="173.602,-101.5 163.602,-105 173.602,-108.5 173.602,-101.5"/>
</g>
<!-- Node19 -->
<g id="node19" class="node"><title>Node19</title>
<g id="a_node19"><a xlink:href="class_sabberworm_1_1_c_s_s_1_1_value_1_1_value_list.html" target="_top" xlink:title="ValueList">
<polygon fill="white" stroke="black" points="234,-38.5 234,-57.5 292,-57.5 292,-38.5 234,-38.5"/>
<text text-anchor="middle" x="263" y="-45.5" font-family="Helvetica,sans-Serif" font-size="10.00">ValueList</text>
</a>
</g>
</g>
<!-- Node14&#45;&gt;Node19 -->
<g id="edge20" class="edge"><title>Node14&#45;&gt;Node19</title>
<path fill="none" stroke="midnightblue" d="M172.391,-91.1029C194.013,-80.7028 223.024,-66.748 242.101,-57.5716"/>
<polygon fill="midnightblue" stroke="midnightblue" points="170.829,-87.9706 163.334,-95.4595 173.863,-94.2788 170.829,-87.9706"/>
</g>
<!-- Node16 -->
<g id="node16" class="node"><title>Node16</title>
<g id="a_node16"><a xlink:href="class_sabberworm_1_1_c_s_s_1_1_value_1_1_size.html" target="_top" xlink:title="Size">
<polygon fill="white" stroke="black" points="366,-152.5 366,-171.5 402,-171.5 402,-152.5 366,-152.5"/>
<text text-anchor="middle" x="384" y="-159.5" font-family="Helvetica,sans-Serif" font-size="10.00">Size</text>
</a>
</g>
</g>
<!-- Node15&#45;&gt;Node16 -->
<g id="edge17" class="edge"><title>Node15&#45;&gt;Node16</title>
<path fill="none" stroke="midnightblue" d="M297.199,-118.634C301.198,-120.389 305.207,-122.202 309,-124 325.349,-131.748 328.908,-134.732 345,-143 351.823,-146.506 359.374,-150.299 365.935,-153.567"/>
<polygon fill="midnightblue" stroke="midnightblue" points="298.56,-115.41 287.991,-114.679 295.797,-121.842 298.56,-115.41"/>
</g>
<!-- Node17 -->
<g id="node17" class="node"><title>Node17</title>
<g id="a_node17"><a xlink:href="class_sabberworm_1_1_c_s_s_1_1_value_1_1_string.html" target="_top" xlink:title="String">
<polygon fill="white" stroke="black" points="362.5,-114.5 362.5,-133.5 405.5,-133.5 405.5,-114.5 362.5,-114.5"/>
<text text-anchor="middle" x="384" y="-121.5" font-family="Helvetica,sans-Serif" font-size="10.00">String</text>
</a>
</g>
</g>
<!-- Node15&#45;&gt;Node17 -->
<g id="edge18" class="edge"><title>Node15&#45;&gt;Node17</title>
<path fill="none" stroke="midnightblue" d="M313.252,-112.864C330.472,-115.613 348.872,-118.551 362.448,-120.719"/>
<polygon fill="midnightblue" stroke="midnightblue" points="313.722,-109.394 303.295,-111.274 312.618,-116.307 313.722,-109.394"/>
</g>
<!-- Node18 -->
<g id="node18" class="node"><title>Node18</title>
<g id="a_node18"><a xlink:href="class_sabberworm_1_1_c_s_s_1_1_value_1_1_u_r_l.html" target="_top" xlink:title="URL">
<polygon fill="white" stroke="black" points="365.5,-76.5 365.5,-95.5 402.5,-95.5 402.5,-76.5 365.5,-76.5"/>
<text text-anchor="middle" x="384" y="-83.5" font-family="Helvetica,sans-Serif" font-size="10.00">URL</text>
</a>
</g>
</g>
<!-- Node15&#45;&gt;Node18 -->
<g id="edge19" class="edge"><title>Node15&#45;&gt;Node18</title>
<path fill="none" stroke="midnightblue" d="M313.364,-97.1183C331.822,-94.1713 351.62,-91.0102 365.37,-88.8149"/>
<polygon fill="midnightblue" stroke="midnightblue" points="312.618,-93.6931 303.295,-98.726 313.722,-100.606 312.618,-93.6931"/>
</g>
<!-- Node20 -->
<g id="node20" class="node"><title>Node20</title>
<g id="a_node20"><a xlink:href="class_sabberworm_1_1_c_s_s_1_1_value_1_1_c_s_s_function.html" target="_top" xlink:title="CSSFunction">
<polygon fill="white" stroke="black" points="346.5,-38.5 346.5,-57.5 421.5,-57.5 421.5,-38.5 346.5,-38.5"/>
<text text-anchor="middle" x="384" y="-45.5" font-family="Helvetica,sans-Serif" font-size="10.00">CSSFunction</text>
</a>
</g>
</g>
<!-- Node19&#45;&gt;Node20 -->
<g id="edge21" class="edge"><title>Node19&#45;&gt;Node20</title>
<path fill="none" stroke="midnightblue" d="M302.56,-48C316.645,-48 332.525,-48 346.432,-48"/>
<polygon fill="midnightblue" stroke="midnightblue" points="302.201,-44.5001 292.201,-48 302.201,-51.5001 302.201,-44.5001"/>
</g>
<!-- Node22 -->
<g id="node22" class="node"><title>Node22</title>
<g id="a_node22"><a xlink:href="class_sabberworm_1_1_c_s_s_1_1_value_1_1_rule_value_list.html" target="_top" xlink:title="RuleValueList">
<polygon fill="white" stroke="black" points="345,-0.5 345,-19.5 423,-19.5 423,-0.5 345,-0.5"/>
<text text-anchor="middle" x="384" y="-7.5" font-family="Helvetica,sans-Serif" font-size="10.00">RuleValueList</text>
</a>
</g>
</g>
<!-- Node19&#45;&gt;Node22 -->
<g id="edge23" class="edge"><title>Node19&#45;&gt;Node22</title>
<path fill="none" stroke="midnightblue" d="M302.062,-35.8456C318.511,-30.5933 337.482,-24.5353 352.921,-19.6051"/>
<polygon fill="midnightblue" stroke="midnightblue" points="300.663,-32.6184 292.201,-38.9945 302.792,-39.2867 300.663,-32.6184"/>
</g>
<!-- Node21 -->
<g id="node21" class="node"><title>Node21</title>
<g id="a_node21"><a xlink:href="class_sabberworm_1_1_c_s_s_1_1_value_1_1_color.html" target="_top" xlink:title="Color">
<polygon fill="white" stroke="black" points="459,-38.5 459,-57.5 499,-57.5 499,-38.5 459,-38.5"/>
<text text-anchor="middle" x="479" y="-45.5" font-family="Helvetica,sans-Serif" font-size="10.00">Color</text>
</a>
</g>
</g>
<!-- Node20&#45;&gt;Node21 -->
<g id="edge22" class="edge"><title>Node20&#45;&gt;Node21</title>
<path fill="none" stroke="midnightblue" d="M432.01,-48C441.519,-48 450.999,-48 458.861,-48"/>
<polygon fill="midnightblue" stroke="midnightblue" points="431.756,-44.5001 421.756,-48 431.756,-51.5001 431.756,-44.5001"/>
</g>
</g>
</svg>
