<?xml version="1.0" encoding="UTF-8" standalone="no"?>
<!DOCTYPE svg PUBLIC "-//W3C//DTD SVG 1.1//EN"
 "http://www.w3.org/Graphics/SVG/1.1/DTD/svg11.dtd">
<!-- Generated by graphviz version 2.38.0 (20140413.2041)
 -->
<!-- Title: Renderable Pages: 1 -->
<svg width="479pt" height="378pt"
 viewBox="0.00 0.00 479.18 378.00" xmlns="http://www.w3.org/2000/svg" xmlns:xlink="http://www.w3.org/1999/xlink">
<g id="graph0" class="graph" transform="scale(1 1) rotate(0) translate(4 374)">
<title>Renderable</title>
<polygon fill="white" stroke="none" points="-4,4 -4,-374 475.178,-374 475.178,4 -4,4"/>
<!-- Node1 -->
<g id="node1" class="node"><title>Node1</title>
<polygon fill="#bfbfbf" stroke="black" points="0,-147.5 0,-165.5 67.7041,-165.5 67.7041,-147.5 0,-147.5"/>
<text text-anchor="middle" x="33.8521" y="-153.5" font-family="Helvetica,sans-Serif" font-size="10.00">Renderable</text>
</g>
<!-- Node2 -->
<g id="node2" class="node"><title>Node2</title>
<g id="a_node2"><a xlink:href="interface_sabberworm_1_1_c_s_s_1_1_property_1_1_at_rule.html" target="_top" xlink:title="AtRule">
<polygon fill="white" stroke="black" points="106.485,-240.5 106.485,-258.5 152.5,-258.5 152.5,-240.5 106.485,-240.5"/>
<text text-anchor="middle" x="129.492" y="-246.5" font-family="Helvetica,sans-Serif" font-size="10.00">AtRule</text>
</a>
</g>
</g>
<!-- Node1&#45;&gt;Node2 -->
<g id="edge1" class="edge"><title>Node1&#45;&gt;Node2</title>
<path fill="none" stroke="midnightblue" d="M51.289,-172.825C71.0101,-192.411 103.39,-224.569 119.209,-240.28"/>
<polygon fill="midnightblue" stroke="midnightblue" points="53.7347,-170.321 44.173,-165.757 48.8019,-175.287 53.7347,-170.321"/>
</g>
<!-- Node9 -->
<g id="node9" class="node"><title>Node9</title>
<g id="a_node9"><a xlink:href="class_sabberworm_1_1_c_s_s_1_1_rule_set_1_1_rule_set.html" target="_top" xlink:title="RuleSet is a generic superclass denoting rules. ">
<polygon fill="white" stroke="black" points="103.704,-147.5 103.704,-165.5 155.28,-165.5 155.28,-147.5 103.704,-147.5"/>
<text text-anchor="middle" x="129.492" y="-153.5" font-family="Helvetica,sans-Serif" font-size="10.00">RuleSet</text>
</a>
</g>
</g>
<!-- Node1&#45;&gt;Node9 -->
<g id="edge8" class="edge"><title>Node1&#45;&gt;Node9</title>
<path fill="none" stroke="midnightblue" d="M77.9551,-156.5C86.6796,-156.5 95.5773,-156.5 103.426,-156.5"/>
<polygon fill="midnightblue" stroke="midnightblue" points="77.8661,-153 67.8661,-156.5 77.866,-160 77.8661,-153"/>
</g>
<!-- Node11 -->
<g id="node11" class="node"><title>Node11</title>
<g id="a_node11"><a xlink:href="class_sabberworm_1_1_c_s_s_1_1_value_1_1_value.html" target="_top" xlink:title="Value">
<polygon fill="white" stroke="black" points="109.073,-92.5 109.073,-110.5 149.912,-110.5 149.912,-92.5 109.073,-92.5"/>
<text text-anchor="middle" x="129.492" y="-98.5" font-family="Helvetica,sans-Serif" font-size="10.00">Value</text>
</a>
</g>
</g>
<!-- Node1&#45;&gt;Node11 -->
<g id="edge11" class="edge"><title>Node1&#45;&gt;Node11</title>
<path fill="none" stroke="midnightblue" d="M59.1453,-142.231C76.1499,-132.243 98.3595,-119.199 113.006,-110.596"/>
<polygon fill="midnightblue" stroke="midnightblue" points="57.1649,-139.335 50.3148,-147.418 60.7101,-145.371 57.1649,-139.335"/>
</g>
<!-- Node3 -->
<g id="node3" class="node"><title>Node3</title>
<g id="a_node3"><a xlink:href="class_sabberworm_1_1_c_s_s_1_1_c_s_s_list_1_1_at_rule_block_list.html" target="_top" xlink:title="A BlockList constructed by an unknown &#45;rule. ">
<polygon fill="white" stroke="black" points="193.783,-351.5 193.783,-369.5 279.812,-369.5 279.812,-351.5 193.783,-351.5"/>
<text text-anchor="middle" x="236.797" y="-357.5" font-family="Helvetica,sans-Serif" font-size="10.00">AtRuleBlockList</text>
</a>
</g>
</g>
<!-- Node2&#45;&gt;Node3 -->
<g id="edge2" class="edge"><title>Node2&#45;&gt;Node3</title>
<path fill="none" stroke="midnightblue" d="M138.434,-268.057C148.15,-288.774 166.424,-322.066 191.28,-342.5 195.659,-346.1 200.853,-349.057 206.12,-351.46"/>
<polygon fill="midnightblue" stroke="midnightblue" points="141.546,-266.441 134.252,-258.756 135.161,-269.312 141.546,-266.441"/>
</g>
<!-- Node4 -->
<g id="node4" class="node"><title>Node4</title>
<g id="a_node4"><a xlink:href="class_sabberworm_1_1_c_s_s_1_1_c_s_s_list_1_1_key_frame.html" target="_top" xlink:title="KeyFrame">
<polygon fill="white" stroke="black" points="205.736,-314.5 205.736,-332.5 267.859,-332.5 267.859,-314.5 205.736,-314.5"/>
<text text-anchor="middle" x="236.797" y="-320.5" font-family="Helvetica,sans-Serif" font-size="10.00">KeyFrame</text>
</a>
</g>
</g>
<!-- Node2&#45;&gt;Node4 -->
<g id="edge3" class="edge"><title>Node2&#45;&gt;Node4</title>
<path fill="none" stroke="midnightblue" d="M145.434,-266.186C157.007,-278.338 173.943,-294.525 191.28,-305.5 196.634,-308.889 202.732,-311.852 208.661,-314.343"/>
<polygon fill="midnightblue" stroke="midnightblue" points="147.704,-263.486 138.339,-258.531 142.57,-268.245 147.704,-263.486"/>
</g>
<!-- Node5 -->
<g id="node5" class="node"><title>Node5</title>
<g id="a_node5"><a xlink:href="class_sabberworm_1_1_c_s_s_1_1_property_1_1_charset.html" target="_top" xlink:title="Class representing an &#160;rule. ">
<polygon fill="white" stroke="black" points="211.29,-277.5 211.29,-295.5 262.305,-295.5 262.305,-277.5 211.29,-277.5"/>
<text text-anchor="middle" x="236.797" y="-283.5" font-family="Helvetica,sans-Serif" font-size="10.00">Charset</text>
</a>
</g>
</g>
<!-- Node2&#45;&gt;Node5 -->
<g id="edge4" class="edge"><title>Node2&#45;&gt;Node5</title>
<path fill="none" stroke="midnightblue" d="M162.368,-260.7C178.032,-266.204 196.618,-272.734 211.172,-277.848"/>
<polygon fill="midnightblue" stroke="midnightblue" points="163.162,-257.269 152.568,-257.256 160.842,-263.874 163.162,-257.269"/>
</g>
<!-- Node6 -->
<g id="node6" class="node"><title>Node6</title>
<g id="a_node6"><a xlink:href="class_sabberworm_1_1_c_s_s_1_1_property_1_1_c_s_s_namespace.html" target="_top" xlink:title="CSSNamespace">
<polygon fill="white" stroke="black" points="191.837,-240.5 191.837,-258.5 281.758,-258.5 281.758,-240.5 191.837,-240.5"/>
<text text-anchor="middle" x="236.797" y="-246.5" font-family="Helvetica,sans-Serif" font-size="10.00">CSSNamespace</text>
</a>
</g>
</g>
<!-- Node2&#45;&gt;Node6 -->
<g id="edge5" class="edge"><title>Node2&#45;&gt;Node6</title>
<path fill="none" stroke="midnightblue" d="M162.74,-249.5C171.852,-249.5 181.929,-249.5 191.613,-249.5"/>
<polygon fill="midnightblue" stroke="midnightblue" points="162.568,-246 152.568,-249.5 162.568,-253 162.568,-246"/>
</g>
<!-- Node7 -->
<g id="node7" class="node"><title>Node7</title>
<g id="a_node7"><a xlink:href="class_sabberworm_1_1_c_s_s_1_1_property_1_1_import.html" target="_top" xlink:title="Class representing an &#160;rule. ">
<polygon fill="white" stroke="black" points="214.627,-203.5 214.627,-221.5 258.967,-221.5 258.967,-203.5 214.627,-203.5"/>
<text text-anchor="middle" x="236.797" y="-209.5" font-family="Helvetica,sans-Serif" font-size="10.00">Import</text>
</a>
</g>
</g>
<!-- Node2&#45;&gt;Node7 -->
<g id="edge6" class="edge"><title>Node2&#45;&gt;Node7</title>
<path fill="none" stroke="midnightblue" d="M162.068,-238.405C179.002,-232.456 199.419,-225.282 214.47,-219.993"/>
<polygon fill="midnightblue" stroke="midnightblue" points="160.842,-235.126 152.568,-241.744 163.162,-241.731 160.842,-235.126"/>
</g>
<!-- Node8 -->
<g id="node8" class="node"><title>Node8</title>
<g id="a_node8"><a xlink:href="class_sabberworm_1_1_c_s_s_1_1_rule_set_1_1_at_rule_set.html" target="_top" xlink:title="A RuleSet constructed by an unknown &#45;rule. ">
<polygon fill="white" stroke="black" points="206.285,-166.5 206.285,-184.5 267.31,-184.5 267.31,-166.5 206.285,-166.5"/>
<text text-anchor="middle" x="236.797" y="-172.5" font-family="Helvetica,sans-Serif" font-size="10.00">AtRuleSet</text>
</a>
</g>
</g>
<!-- Node2&#45;&gt;Node8 -->
<g id="edge7" class="edge"><title>Node2&#45;&gt;Node8</title>
<path fill="none" stroke="midnightblue" d="M145.948,-232.819C157.566,-220.988 174.334,-205.348 191.28,-194.5 197.225,-190.694 204.062,-187.341 210.565,-184.552"/>
<polygon fill="midnightblue" stroke="midnightblue" points="143.176,-230.652 138.788,-240.296 148.232,-235.494 143.176,-230.652"/>
</g>
<!-- Node9&#45;&gt;Node8 -->
<g id="edge9" class="edge"><title>Node9&#45;&gt;Node8</title>
<path fill="none" stroke="midnightblue" d="M165.572,-162.829C178.729,-165.203 193.539,-167.875 206.155,-170.152"/>
<polygon fill="midnightblue" stroke="midnightblue" points="165.911,-159.334 155.448,-161.003 164.668,-166.223 165.911,-159.334"/>
</g>
<!-- Node10 -->
<g id="node10" class="node"><title>Node10</title>
<g id="a_node10"><a xlink:href="class_sabberworm_1_1_c_s_s_1_1_rule_set_1_1_declaration_block.html" target="_top" xlink:title="Declaration blocks are the parts of a css file which denote the rules belonging to a selector...">
<polygon fill="white" stroke="black" points="191.28,-129.5 191.28,-147.5 282.314,-147.5 282.314,-129.5 191.28,-129.5"/>
<text text-anchor="middle" x="236.797" y="-135.5" font-family="Helvetica,sans-Serif" font-size="10.00">DeclarationBlock</text>
</a>
</g>
</g>
<!-- Node9&#45;&gt;Node10 -->
<g id="edge10" class="edge"><title>Node9&#45;&gt;Node10</title>
<path fill="none" stroke="midnightblue" d="M165.475,-150.52C173.723,-149.11 182.626,-147.589 191.234,-146.117"/>
<polygon fill="midnightblue" stroke="midnightblue" points="164.715,-147.099 155.448,-152.234 165.895,-153.999 164.715,-147.099"/>
</g>
<!-- Node12 -->
<g id="node12" class="node"><title>Node12</title>
<g id="a_node12"><a xlink:href="class_sabberworm_1_1_c_s_s_1_1_value_1_1_primitive_value.html" target="_top" xlink:title="PrimitiveValue">
<polygon fill="white" stroke="black" points="197.21,-92.5 197.21,-110.5 276.384,-110.5 276.384,-92.5 197.21,-92.5"/>
<text text-anchor="middle" x="236.797" y="-98.5" font-family="Helvetica,sans-Serif" font-size="10.00">PrimitiveValue</text>
</a>
</g>
</g>
<!-- Node11&#45;&gt;Node12 -->
<g id="edge12" class="edge"><title>Node11&#45;&gt;Node12</title>
<path fill="none" stroke="midnightblue" d="M160.529,-101.5C171.841,-101.5 184.873,-101.5 196.88,-101.5"/>
<polygon fill="midnightblue" stroke="midnightblue" points="160.299,-98.0001 150.299,-101.5 160.299,-105 160.299,-98.0001"/>
</g>
<!-- Node16 -->
<g id="node16" class="node"><title>Node16</title>
<g id="a_node16"><a xlink:href="class_sabberworm_1_1_c_s_s_1_1_value_1_1_value_list.html" target="_top" xlink:title="ValueList">
<polygon fill="white" stroke="black" points="208.597,-37.5 208.597,-55.5 264.998,-55.5 264.998,-37.5 208.597,-37.5"/>
<text text-anchor="middle" x="236.797" y="-43.5" font-family="Helvetica,sans-Serif" font-size="10.00">ValueList</text>
</a>
</g>
</g>
<!-- Node11&#45;&gt;Node16 -->
<g id="edge16" class="edge"><title>Node11&#45;&gt;Node16</title>
<path fill="none" stroke="midnightblue" d="M156.755,-87.7829C176.007,-77.7282 201.606,-64.3579 218.383,-55.5956"/>
<polygon fill="midnightblue" stroke="midnightblue" points="155.125,-84.686 147.881,-92.4179 158.365,-90.8907 155.125,-84.686"/>
</g>
<!-- Node13 -->
<g id="node13" class="node"><title>Node13</title>
<g id="a_node13"><a xlink:href="class_sabberworm_1_1_c_s_s_1_1_value_1_1_c_s_s_string.html" target="_top" xlink:title="CSSString">
<polygon fill="white" stroke="black" points="325.456,-148.5 325.456,-166.5 388.14,-166.5 388.14,-148.5 325.456,-148.5"/>
<text text-anchor="middle" x="356.798" y="-154.5" font-family="Helvetica,sans-Serif" font-size="10.00">CSSString</text>
</a>
</g>
</g>
<!-- Node12&#45;&gt;Node13 -->
<g id="edge13" class="edge"><title>Node12&#45;&gt;Node13</title>
<path fill="none" stroke="midnightblue" d="M269.473,-114.639C273.813,-116.55 278.192,-118.536 282.314,-120.5 298.648,-128.28 302.157,-131.36 318.314,-139.5 324.246,-142.488 330.755,-145.653 336.661,-148.482"/>
<polygon fill="midnightblue" stroke="midnightblue" points="270.717,-111.364 260.149,-110.616 267.943,-117.791 270.717,-111.364"/>
</g>
<!-- Node14 -->
<g id="node14" class="node"><title>Node14</title>
<g id="a_node14"><a xlink:href="class_sabberworm_1_1_c_s_s_1_1_value_1_1_size.html" target="_top" xlink:title="Size">
<polygon fill="white" stroke="black" points="339.071,-111.5 339.071,-129.5 374.524,-129.5 374.524,-111.5 339.071,-111.5"/>
<text text-anchor="middle" x="356.798" y="-117.5" font-family="Helvetica,sans-Serif" font-size="10.00">Size</text>
</a>
</g>
</g>
<!-- Node12&#45;&gt;Node14 -->
<g id="edge14" class="edge"><title>Node12&#45;&gt;Node14</title>
<path fill="none" stroke="midnightblue" d="M286.312,-109.312C304.973,-112.316 325.081,-115.554 338.84,-117.77"/>
<polygon fill="midnightblue" stroke="midnightblue" points="286.864,-105.856 276.435,-107.721 285.752,-112.767 286.864,-105.856"/>
</g>
<!-- Node15 -->
<g id="node15" class="node"><title>Node15</title>
<g id="a_node15"><a xlink:href="class_sabberworm_1_1_c_s_s_1_1_value_1_1_u_r_l.html" target="_top" xlink:title="URL">
<polygon fill="white" stroke="black" points="338.795,-74.5 338.795,-92.5 374.8,-92.5 374.8,-74.5 338.795,-74.5"/>
<text text-anchor="middle" x="356.798" y="-80.5" font-family="Helvetica,sans-Serif" font-size="10.00">URL</text>
</a>
</g>
</g>
<!-- Node12&#45;&gt;Node15 -->
<g id="edge15" class="edge"><title>Node12&#45;&gt;Node15</title>
<path fill="none" stroke="midnightblue" d="M286.504,-94.0702C304.971,-91.2532 324.827,-88.2244 338.529,-86.1342"/>
<polygon fill="midnightblue" stroke="midnightblue" points="285.793,-90.6381 276.435,-95.6061 286.849,-97.558 285.793,-90.6381"/>
</g>
<!-- Node17 -->
<g id="node17" class="node"><title>Node17</title>
<g id="a_node17"><a xlink:href="class_sabberworm_1_1_c_s_s_1_1_value_1_1_c_s_s_function.html" target="_top" xlink:title="CSSFunction">
<polygon fill="white" stroke="black" points="319.34,-37.5 319.34,-55.5 394.256,-55.5 394.256,-37.5 319.34,-37.5"/>
<text text-anchor="middle" x="356.798" y="-43.5" font-family="Helvetica,sans-Serif" font-size="10.00">CSSFunction</text>
</a>
</g>
</g>
<!-- Node16&#45;&gt;Node17 -->
<g id="edge17" class="edge"><title>Node16&#45;&gt;Node17</title>
<path fill="none" stroke="midnightblue" d="M275.444,-46.5C289.439,-46.5 305.288,-46.5 319.189,-46.5"/>
<polygon fill="midnightblue" stroke="midnightblue" points="275.166,-43.0001 265.166,-46.5 275.166,-50.0001 275.166,-43.0001"/>
</g>
<!-- Node19 -->
<g id="node19" class="node"><title>Node19</title>
<g id="a_node19"><a xlink:href="class_sabberworm_1_1_c_s_s_1_1_value_1_1_rule_value_list.html" target="_top" xlink:title="RuleValueList">
<polygon fill="white" stroke="black" points="318.314,-0.5 318.314,-18.5 395.281,-18.5 395.281,-0.5 318.314,-0.5"/>
<text text-anchor="middle" x="356.798" y="-6.5" font-family="Helvetica,sans-Serif" font-size="10.00">RuleValueList</text>
</a>
</g>
</g>
<!-- Node16&#45;&gt;Node19 -->
<g id="edge19" class="edge"><title>Node16&#45;&gt;Node19</title>
<path fill="none" stroke="midnightblue" d="M275.179,-34.7787C291.914,-29.5314 311.341,-23.4397 326.932,-18.5512"/>
<polygon fill="midnightblue" stroke="midnightblue" points="273.66,-31.5868 265.166,-37.9185 275.755,-38.2661 273.66,-31.5868"/>
</g>
<!-- Node18 -->
<g id="node18" class="node"><title>Node18</title>
<g id="a_node18"><a xlink:href="class_sabberworm_1_1_c_s_s_1_1_value_1_1_color.html" target="_top" xlink:title="Color">
<polygon fill="white" stroke="black" points="431.281,-37.5 431.281,-55.5 471.178,-55.5 471.178,-37.5 431.281,-37.5"/>
<text text-anchor="middle" x="451.229" y="-43.5" font-family="Helvetica,sans-Serif" font-size="10.00">Color</text>
</a>
</g>
</g>
<!-- Node17&#45;&gt;Node18 -->
<g id="edge18" class="edge"><title>Node17&#45;&gt;Node18</title>
<path fill="none" stroke="midnightblue" d="M404.521,-46.5C413.971,-46.5 423.394,-46.5 431.207,-46.5"/>
<polygon fill="midnightblue" stroke="midnightblue" points="404.329,-43.0001 394.329,-46.5 404.329,-50.0001 404.329,-43.0001"/>
</g>
</g>
</svg>
