<?xml version="1.0" encoding="UTF-8" standalone="no"?>
<!DOCTYPE svg PUBLIC "-//W3C//DTD SVG 1.1//EN"
 "http://www.w3.org/Graphics/SVG/1.1/DTD/svg11.dtd">
<!-- Generated by graphviz version 2.38.0 (20140413.2041)
 -->
<!-- Title: Renderable Pages: 1 -->
<svg width="482pt" height="389pt"
 viewBox="0.00 0.00 482.00 389.00" xmlns="http://www.w3.org/2000/svg" xmlns:xlink="http://www.w3.org/1999/xlink">
<g id="graph0" class="graph" transform="scale(1 1) rotate(0) translate(4 385)">
<title>Renderable</title>
<polygon fill="white" stroke="none" points="-4,4 -4,-385 478,-385 478,4 -4,4"/>
<!-- Node1 -->
<g id="node1" class="node"><title>Node1</title>
<polygon fill="#bfbfbf" stroke="black" points="0,-152.5 0,-171.5 68,-171.5 68,-152.5 0,-152.5"/>
<text text-anchor="middle" x="34" y="-159.5" font-family="Helvetica,sans-Serif" font-size="10.00">Renderable</text>
</g>
<!-- Node2 -->
<g id="node2" class="node"><title>Node2</title>
<g id="a_node2"><a xlink:href="interface_sabberworm_1_1_c_s_s_1_1_property_1_1_at_rule.html" target="_top" target="_top" target="_top" xlink:title="AtRule">
<polygon fill="white" stroke="black" points="106.5,-247.5 106.5,-266.5 153.5,-266.5 153.5,-247.5 106.5,-247.5"/>
<text text-anchor="middle" x="130" y="-254.5" font-family="Helvetica,sans-Serif" font-size="10.00">AtRule</text>
</a>
</g>
</g>
<!-- Node1&#45;&gt;Node2 -->
<g id="edge1" class="edge"><title>Node1&#45;&gt;Node2</title>
<path fill="none" stroke="midnightblue" d="M51.8537,-179.033C71.6011,-198.99 103.633,-231.363 119.487,-247.386"/>
<polygon fill="midnightblue" stroke="midnightblue" points="54.2271,-176.456 44.7056,-171.809 49.2512,-181.379 54.2271,-176.456"/>
</g>
<!-- Node9 -->
<g id="node9" class="node"><title>Node9</title>
<g id="a_node9"><a xlink:href="class_sabberworm_1_1_c_s_s_1_1_rule_set_1_1_rule_set.html" target="_top" target="_top" target="_top" xlink:title="RuleSet is a generic superclass denoting rules. ">
<polygon fill="white" stroke="black" points="104,-152.5 104,-171.5 156,-171.5 156,-152.5 104,-152.5"/>
<text text-anchor="middle" x="130" y="-159.5" font-family="Helvetica,sans-Serif" font-size="10.00">RuleSet</text>
</a>
</g>
</g>
<!-- Node1&#45;&gt;Node9 -->
<g id="edge8" class="edge"><title>Node1&#45;&gt;Node9</title>
<path fill="none" stroke="midnightblue" d="M78.2687,-162C87.0267,-162 95.9586,-162 103.838,-162"/>
<polygon fill="midnightblue" stroke="midnightblue" points="78.1409,-158.5 68.1409,-162 78.1408,-165.5 78.1409,-158.5"/>
</g>
<!-- Node11 -->
<g id="node11" class="node"><title>Node11</title>
<g id="a_node11"><a xlink:href="class_sabberworm_1_1_c_s_s_1_1_value_1_1_value.html" target="_top" target="_top" target="_top" xlink:title="Value">
<polygon fill="white" stroke="black" points="109,-95.5 109,-114.5 151,-114.5 151,-95.5 109,-95.5"/>
<text text-anchor="middle" x="130" y="-102.5" font-family="Helvetica,sans-Serif" font-size="10.00">Value</text>
</a>
</g>
</g>
<!-- Node1&#45;&gt;Node11 -->
<g id="edge11" class="edge"><title>Node1&#45;&gt;Node11</title>
<path fill="none" stroke="midnightblue" d="M59.7707,-146.979C76.7258,-136.698 98.6955,-123.376 113.29,-114.526"/>
<polygon fill="midnightblue" stroke="midnightblue" points="57.6818,-144.153 50.9458,-152.331 61.3114,-150.138 57.6818,-144.153"/>
</g>
<!-- Node3 -->
<g id="node3" class="node"><title>Node3</title>
<g id="a_node3"><a xlink:href="class_sabberworm_1_1_c_s_s_1_1_c_s_s_list_1_1_at_rule_block_list.html" target="_top" target="_top" target="_top" xlink:title="A BlockList constructed by an unknown @&#45;rule. ">
<polygon fill="white" stroke="black" points="194.5,-361.5 194.5,-380.5 281.5,-380.5 281.5,-361.5 194.5,-361.5"/>
<text text-anchor="middle" x="238" y="-368.5" font-family="Helvetica,sans-Serif" font-size="10.00">AtRuleBlockList</text>
</a>
</g>
</g>
<!-- Node2&#45;&gt;Node3 -->
<g id="edge2" class="edge"><title>Node2&#45;&gt;Node3</title>
<path fill="none" stroke="midnightblue" d="M138.962,-275.926C148.692,-297.029 167.002,-330.955 192,-352 196.411,-355.714 201.654,-358.795 206.976,-361.318"/>
<polygon fill="midnightblue" stroke="midnightblue" points="142.13,-274.436 134.882,-266.708 135.729,-277.269 142.13,-274.436"/>
</g>
<!-- Node4 -->
<g id="node4" class="node"><title>Node4</title>
<g id="a_node4"><a xlink:href="class_sabberworm_1_1_c_s_s_1_1_c_s_s_list_1_1_key_frame.html" target="_top" target="_top" target="_top" xlink:title="KeyFrame">
<polygon fill="white" stroke="black" points="206.5,-323.5 206.5,-342.5 269.5,-342.5 269.5,-323.5 206.5,-323.5"/>
<text text-anchor="middle" x="238" y="-330.5" font-family="Helvetica,sans-Serif" font-size="10.00">KeyFrame</text>
</a>
</g>
</g>
<!-- Node2&#45;&gt;Node4 -->
<g id="edge3" class="edge"><title>Node2&#45;&gt;Node4</title>
<path fill="none" stroke="midnightblue" d="M146.064,-273.988C157.679,-286.317 174.644,-302.74 192,-314 197.549,-317.6 203.894,-320.77 210.035,-323.438"/>
<polygon fill="midnightblue" stroke="midnightblue" points="148.596,-271.571 139.254,-266.573 143.441,-276.306 148.596,-271.571"/>
</g>
<!-- Node5 -->
<g id="node5" class="node"><title>Node5</title>
<g id="a_node5"><a xlink:href="class_sabberworm_1_1_c_s_s_1_1_property_1_1_charset.html" target="_top" target="_top" target="_top" xlink:title="Class representing an &#160;rule. ">
<polygon fill="white" stroke="black" points="212,-285.5 212,-304.5 264,-304.5 264,-285.5 212,-285.5"/>
<text text-anchor="middle" x="238" y="-292.5" font-family="Helvetica,sans-Serif" font-size="10.00">Charset</text>
</a>
</g>
</g>
<!-- Node2&#45;&gt;Node5 -->
<g id="edge4" class="edge"><title>Node2&#45;&gt;Node5</title>
<path fill="none" stroke="midnightblue" d="M163.46,-268.636C178.964,-274.195 197.243,-280.748 211.699,-285.93"/>
<polygon fill="midnightblue" stroke="midnightblue" points="164.334,-265.232 153.74,-265.152 161.972,-271.821 164.334,-265.232"/>
</g>
<!-- Node6 -->
<g id="node6" class="node"><title>Node6</title>
<g id="a_node6"><a xlink:href="class_sabberworm_1_1_c_s_s_1_1_property_1_1_c_s_s_namespace.html" target="_top" target="_top" target="_top" xlink:title="CSSNamespace">
<polygon fill="white" stroke="black" points="193,-247.5 193,-266.5 283,-266.5 283,-247.5 193,-247.5"/>
<text text-anchor="middle" x="238" y="-254.5" font-family="Helvetica,sans-Serif" font-size="10.00">CSSNamespace</text>
</a>
</g>
</g>
<!-- Node2&#45;&gt;Node6 -->
<g id="edge5" class="edge"><title>Node2&#45;&gt;Node6</title>
<path fill="none" stroke="midnightblue" d="M163.98,-257C173.137,-257 183.229,-257 192.912,-257"/>
<polygon fill="midnightblue" stroke="midnightblue" points="163.74,-253.5 153.74,-257 163.74,-260.5 163.74,-253.5"/>
</g>
<!-- Node7 -->
<g id="node7" class="node"><title>Node7</title>
<g id="a_node7"><a xlink:href="class_sabberworm_1_1_c_s_s_1_1_property_1_1_import.html" target="_top" target="_top" target="_top" xlink:title="Class representing an &#160;rule. ">
<polygon fill="white" stroke="black" points="215.5,-209.5 215.5,-228.5 260.5,-228.5 260.5,-209.5 215.5,-209.5"/>
<text text-anchor="middle" x="238" y="-216.5" font-family="Helvetica,sans-Serif" font-size="10.00">Import</text>
</a>
</g>
</g>
<!-- Node2&#45;&gt;Node7 -->
<g id="edge6" class="edge"><title>Node2&#45;&gt;Node7</title>
<path fill="none" stroke="midnightblue" d="M163.238,-245.443C180.138,-239.385 200.382,-232.127 215.384,-226.749"/>
<polygon fill="midnightblue" stroke="midnightblue" points="161.972,-242.179 153.74,-248.848 164.334,-248.768 161.972,-242.179"/>
</g>
<!-- Node8 -->
<g id="node8" class="node"><title>Node8</title>
<g id="a_node8"><a xlink:href="class_sabberworm_1_1_c_s_s_1_1_rule_set_1_1_at_rule_set.html" target="_top" target="_top" target="_top" xlink:title="A RuleSet constructed by an unknown @&#45;rule. ">
<polygon fill="white" stroke="black" points="207,-171.5 207,-190.5 269,-190.5 269,-171.5 207,-171.5"/>
<text text-anchor="middle" x="238" y="-178.5" font-family="Helvetica,sans-Serif" font-size="10.00">AtRuleSet</text>
</a>
</g>
</g>
<!-- Node2&#45;&gt;Node8 -->
<g id="edge7" class="edge"><title>Node2&#45;&gt;Node8</title>
<path fill="none" stroke="midnightblue" d="M146.064,-240.012C157.679,-227.683 174.644,-211.26 192,-200 197.549,-196.4 203.894,-193.23 210.035,-190.562"/>
<polygon fill="midnightblue" stroke="midnightblue" points="143.441,-237.694 139.254,-247.427 148.596,-242.429 143.441,-237.694"/>
</g>
<!-- Node9&#45;&gt;Node8 -->
<g id="edge9" class="edge"><title>Node9&#45;&gt;Node8</title>
<path fill="none" stroke="midnightblue" d="M166.226,-168.314C179.357,-170.668 194.133,-173.316 206.775,-175.582"/>
<polygon fill="midnightblue" stroke="midnightblue" points="166.581,-164.822 156.121,-166.503 165.346,-171.712 166.581,-164.822"/>
</g>
<!-- Node10 -->
<g id="node10" class="node"><title>Node10</title>
<g id="a_node10"><a xlink:href="class_sabberworm_1_1_c_s_s_1_1_rule_set_1_1_declaration_block.html" target="_top" target="_top" target="_top" xlink:title="Declaration blocks are the parts of a css file which denote the rules belonging to a selector...">
<polygon fill="white" stroke="black" points="192,-133.5 192,-152.5 284,-152.5 284,-133.5 192,-133.5"/>
<text text-anchor="middle" x="238" y="-140.5" font-family="Helvetica,sans-Serif" font-size="10.00">DeclarationBlock</text>
</a>
</g>
</g>
<!-- Node9&#45;&gt;Node10 -->
<g id="edge10" class="edge"><title>Node9&#45;&gt;Node10</title>
<path fill="none" stroke="midnightblue" d="M166.094,-155.71C174.296,-154.239 183.147,-152.653 191.722,-151.116"/>
<polygon fill="midnightblue" stroke="midnightblue" points="165.346,-152.288 156.121,-157.497 166.581,-159.178 165.346,-152.288"/>
</g>
<!-- Node12 -->
<g id="node12" class="node"><title>Node12</title>
<g id="a_node12"><a xlink:href="class_sabberworm_1_1_c_s_s_1_1_value_1_1_primitive_value.html" target="_top" target="_top" target="_top" xlink:title="PrimitiveValue">
<polygon fill="white" stroke="black" points="198,-95.5 198,-114.5 278,-114.5 278,-95.5 198,-95.5"/>
<text text-anchor="middle" x="238" y="-102.5" font-family="Helvetica,sans-Serif" font-size="10.00">PrimitiveValue</text>
</a>
</g>
</g>
<!-- Node11&#45;&gt;Node12 -->
<g id="edge12" class="edge"><title>Node11&#45;&gt;Node12</title>
<path fill="none" stroke="midnightblue" d="M161.645,-105C172.908,-105 185.82,-105 197.737,-105"/>
<polygon fill="midnightblue" stroke="midnightblue" points="161.438,-101.5 151.438,-105 161.438,-108.5 161.438,-101.5"/>
</g>
<!-- Node16 -->
<g id="node16" class="node"><title>Node16</title>
<g id="a_node16"><a xlink:href="class_sabberworm_1_1_c_s_s_1_1_value_1_1_value_list.html" target="_top" target="_top" target="_top" xlink:title="ValueList">
<polygon fill="white" stroke="black" points="209,-38.5 209,-57.5 267,-57.5 267,-38.5 209,-38.5"/>
<text text-anchor="middle" x="238" y="-45.5" font-family="Helvetica,sans-Serif" font-size="10.00">ValueList</text>
</a>
</g>
</g>
<!-- Node11&#45;&gt;Node16 -->
<g id="edge16" class="edge"><title>Node11&#45;&gt;Node16</title>
<path fill="none" stroke="midnightblue" d="M157.877,-90.5475C177.132,-80.1931 202.522,-66.54 219.284,-57.5265"/>
<polygon fill="midnightblue" stroke="midnightblue" points="156.131,-87.512 148.981,-95.3307 159.446,-93.6772 156.131,-87.512"/>
</g>
<!-- Node13 -->
<g id="node13" class="node"><title>Node13</title>
<g id="a_node13"><a xlink:href="class_sabberworm_1_1_c_s_s_1_1_value_1_1_size.html" target="_top" target="_top" target="_top" xlink:title="Size">
<polygon fill="white" stroke="black" points="341,-152.5 341,-171.5 377,-171.5 377,-152.5 341,-152.5"/>
<text text-anchor="middle" x="359" y="-159.5" font-family="Helvetica,sans-Serif" font-size="10.00">Size</text>
</a>
</g>
</g>
<!-- Node12&#45;&gt;Node13 -->
<g id="edge13" class="edge"><title>Node12&#45;&gt;Node13</title>
<path fill="none" stroke="midnightblue" d="M272.199,-118.634C276.198,-120.389 280.207,-122.202 284,-124 300.349,-131.748 303.908,-134.732 320,-143 326.823,-146.506 334.374,-150.299 340.935,-153.567"/>
<polygon fill="midnightblue" stroke="midnightblue" points="273.56,-115.41 262.991,-114.679 270.797,-121.842 273.56,-115.41"/>
</g>
<!-- Node14 -->
<g id="node14" class="node"><title>Node14</title>
<g id="a_node14"><a xlink:href="class_sabberworm_1_1_c_s_s_1_1_value_1_1_string.html" target="_top" target="_top" target="_top" xlink:title="String">
<polygon fill="white" stroke="black" points="337.5,-114.5 337.5,-133.5 380.5,-133.5 380.5,-114.5 337.5,-114.5"/>
<text text-anchor="middle" x="359" y="-121.5" font-family="Helvetica,sans-Serif" font-size="10.00">String</text>
</a>
</g>
</g>
<!-- Node12&#45;&gt;Node14 -->
<g id="edge14" class="edge"><title>Node12&#45;&gt;Node14</title>
<path fill="none" stroke="midnightblue" d="M288.252,-112.864C305.472,-115.613 323.872,-118.551 337.448,-120.719"/>
<polygon fill="midnightblue" stroke="midnightblue" points="288.722,-109.394 278.295,-111.274 287.618,-116.307 288.722,-109.394"/>
</g>
<!-- Node15 -->
<g id="node15" class="node"><title>Node15</title>
<g id="a_node15"><a xlink:href="class_sabberworm_1_1_c_s_s_1_1_value_1_1_u_r_l.html" target="_top" target="_top" target="_top" xlink:title="URL">
<polygon fill="white" stroke="black" points="340.5,-76.5 340.5,-95.5 377.5,-95.5 377.5,-76.5 340.5,-76.5"/>
<text text-anchor="middle" x="359" y="-83.5" font-family="Helvetica,sans-Serif" font-size="10.00">URL</text>
</a>
</g>
</g>
<!-- Node12&#45;&gt;Node15 -->
<g id="edge15" class="edge"><title>Node12&#45;&gt;Node15</title>
<path fill="none" stroke="midnightblue" d="M288.364,-97.1183C306.822,-94.1713 326.62,-91.0102 340.37,-88.8149"/>
<polygon fill="midnightblue" stroke="midnightblue" points="287.618,-93.6931 278.295,-98.726 288.722,-100.606 287.618,-93.6931"/>
</g>
<!-- Node17 -->
<g id="node17" class="node"><title>Node17</title>
<g id="a_node17"><a xlink:href="class_sabberworm_1_1_c_s_s_1_1_value_1_1_c_s_s_function.html" target="_top" target="_top" target="_top" xlink:title="CSSFunction">
<polygon fill="white" stroke="black" points="321.5,-38.5 321.5,-57.5 396.5,-57.5 396.5,-38.5 321.5,-38.5"/>
<text text-anchor="middle" x="359" y="-45.5" font-family="Helvetica,sans-Serif" font-size="10.00">CSSFunction</text>
</a>
</g>
</g>
<!-- Node16&#45;&gt;Node17 -->
<g id="edge17" class="edge"><title>Node16&#45;&gt;Node17</title>
<path fill="none" stroke="midnightblue" d="M277.56,-48C291.645,-48 307.525,-48 321.432,-48"/>
<polygon fill="midnightblue" stroke="midnightblue" points="277.201,-44.5001 267.201,-48 277.201,-51.5001 277.201,-44.5001"/>
</g>
<!-- Node19 -->
<g id="node19" class="node"><title>Node19</title>
<g id="a_node19"><a xlink:href="class_sabberworm_1_1_c_s_s_1_1_value_1_1_rule_value_list.html" target="_top" target="_top" target="_top" xlink:title="RuleValueList">
<polygon fill="white" stroke="black" points="320,-0.5 320,-19.5 398,-19.5 398,-0.5 320,-0.5"/>
<text text-anchor="middle" x="359" y="-7.5" font-family="Helvetica,sans-Serif" font-size="10.00">RuleValueList</text>
</a>
</g>
</g>
<!-- Node16&#45;&gt;Node19 -->
<g id="edge19" class="edge"><title>Node16&#45;&gt;Node19</title>
<path fill="none" stroke="midnightblue" d="M277.062,-35.8456C293.511,-30.5933 312.482,-24.5353 327.921,-19.6051"/>
<polygon fill="midnightblue" stroke="midnightblue" points="275.663,-32.6184 267.201,-38.9945 277.792,-39.2867 275.663,-32.6184"/>
</g>
<!-- Node18 -->
<g id="node18" class="node"><title>Node18</title>
<g id="a_node18"><a xlink:href="class_sabberworm_1_1_c_s_s_1_1_value_1_1_color.html" target="_top" target="_top" target="_top" xlink:title="Color">
<polygon fill="white" stroke="black" points="434,-38.5 434,-57.5 474,-57.5 474,-38.5 434,-38.5"/>
<text text-anchor="middle" x="454" y="-45.5" font-family="Helvetica,sans-Serif" font-size="10.00">Color</text>
</a>
</g>
</g>
<!-- Node17&#45;&gt;Node18 -->
<g id="edge18" class="edge"><title>Node17&#45;&gt;Node18</title>
<path fill="none" stroke="midnightblue" d="M407.01,-48C416.519,-48 425.999,-48 433.861,-48"/>
<polygon fill="midnightblue" stroke="midnightblue" points="406.756,-44.5001 396.756,-48 406.756,-51.5001 406.756,-44.5001"/>
</g>
</g>
</svg>
