<?xml version="1.0" encoding="UTF-8" standalone="no"?>
<!DOCTYPE svg PUBLIC "-//W3C//DTD SVG 1.1//EN"
 "http://www.w3.org/Graphics/SVG/1.1/DTD/svg11.dtd">
<!-- Generated by graphviz version 2.38.0 (20140413.2041)
 -->
<!-- Title: AtRule Pages: 1 -->
<svg width="499pt" height="140pt"
 viewBox="0.00 0.00 498.50 140.00" xmlns="http://www.w3.org/2000/svg" xmlns:xlink="http://www.w3.org/1999/xlink">
<g id="graph0" class="graph" transform="scale(1 1) rotate(0) translate(4 136)">
<title>AtRule</title>
<polygon fill="white" stroke="none" points="-4,4 -4,-136 494.5,-136 494.5,4 -4,4"/>
<!-- Node1 -->
<g id="node1" class="node"><title>Node1</title>
<polygon fill="#bfbfbf" stroke="black" points="233,-56.5 233,-75.5 280,-75.5 280,-56.5 233,-56.5"/>
<text text-anchor="middle" x="256.5" y="-63.5" font-family="Helvetica,sans-Serif" font-size="10.00">AtRule</text>
</g>
<!-- Node3 -->
<g id="node3" class="node"><title>Node3</title>
<g id="a_node3"><a xlink:href="class_sabberworm_1_1_c_s_s_1_1_c_s_s_list_1_1_at_rule_block_list.html" target="_top" target="_top" xlink:title="A BlockList constructed by an unknown @&#45;rule. ">
<polygon fill="white" stroke="black" points="0,-0.5 0,-19.5 87,-19.5 87,-0.5 0,-0.5"/>
<text text-anchor="middle" x="43.5" y="-7.5" font-family="Helvetica,sans-Serif" font-size="10.00">AtRuleBlockList</text>
</a>
</g>
</g>
<!-- Node1&#45;&gt;Node3 -->
<g id="edge2" class="edge"><title>Node1&#45;&gt;Node3</title>
<path fill="none" stroke="midnightblue" d="M223.143,-56.5434C183.393,-46.4659 117.345,-29.7212 77.37,-19.5868"/>
<polygon fill="midnightblue" stroke="midnightblue" points="222.338,-59.9499 232.891,-59.0147 224.058,-53.1645 222.338,-59.9499"/>
</g>
<!-- Node4 -->
<g id="node4" class="node"><title>Node4</title>
<g id="a_node4"><a xlink:href="class_sabberworm_1_1_c_s_s_1_1_c_s_s_list_1_1_key_frame.html" target="_top" target="_top" xlink:title="KeyFrame">
<polygon fill="white" stroke="black" points="105,-0.5 105,-19.5 168,-19.5 168,-0.5 105,-0.5"/>
<text text-anchor="middle" x="136.5" y="-7.5" font-family="Helvetica,sans-Serif" font-size="10.00">KeyFrame</text>
</a>
</g>
</g>
<!-- Node1&#45;&gt;Node4 -->
<g id="edge3" class="edge"><title>Node1&#45;&gt;Node4</title>
<path fill="none" stroke="midnightblue" d="M228.127,-52.2321C205.68,-42.1312 174.965,-28.3091 155.425,-19.5164"/>
<polygon fill="midnightblue" stroke="midnightblue" points="226.93,-55.5316 237.486,-56.4435 229.803,-49.1481 226.93,-55.5316"/>
</g>
<!-- Node5 -->
<g id="node5" class="node"><title>Node5</title>
<g id="a_node5"><a xlink:href="class_sabberworm_1_1_c_s_s_1_1_property_1_1_charset.html" target="_top" target="_top" xlink:title="Class representing an &#160;rule. ">
<polygon fill="white" stroke="black" points="186.5,-0.5 186.5,-19.5 238.5,-19.5 238.5,-0.5 186.5,-0.5"/>
<text text-anchor="middle" x="212.5" y="-7.5" font-family="Helvetica,sans-Serif" font-size="10.00">Charset</text>
</a>
</g>
</g>
<!-- Node1&#45;&gt;Node5 -->
<g id="edge4" class="edge"><title>Node1&#45;&gt;Node5</title>
<path fill="none" stroke="midnightblue" d="M242.765,-48.144C235.099,-38.7357 225.867,-27.4046 219.631,-19.7511"/>
<polygon fill="midnightblue" stroke="midnightblue" points="240.204,-50.5415 249.234,-56.083 245.631,-46.1198 240.204,-50.5415"/>
</g>
<!-- Node6 -->
<g id="node6" class="node"><title>Node6</title>
<g id="a_node6"><a xlink:href="class_sabberworm_1_1_c_s_s_1_1_property_1_1_c_s_s_namespace.html" target="_top" target="_top" xlink:title="CSSNamespace">
<polygon fill="white" stroke="black" points="256.5,-0.5 256.5,-19.5 346.5,-19.5 346.5,-0.5 256.5,-0.5"/>
<text text-anchor="middle" x="301.5" y="-7.5" font-family="Helvetica,sans-Serif" font-size="10.00">CSSNamespace</text>
</a>
</g>
</g>
<!-- Node1&#45;&gt;Node6 -->
<g id="edge5" class="edge"><title>Node1&#45;&gt;Node6</title>
<path fill="none" stroke="midnightblue" d="M270.547,-48.144C278.387,-38.7357 287.829,-27.4046 294.207,-19.7511"/>
<polygon fill="midnightblue" stroke="midnightblue" points="267.644,-46.1601 263.931,-56.083 273.021,-50.6414 267.644,-46.1601"/>
</g>
<!-- Node7 -->
<g id="node7" class="node"><title>Node7</title>
<g id="a_node7"><a xlink:href="class_sabberworm_1_1_c_s_s_1_1_property_1_1_import.html" target="_top" target="_top" xlink:title="Class representing an &#160;rule. ">
<polygon fill="white" stroke="black" points="365,-0.5 365,-19.5 410,-19.5 410,-0.5 365,-0.5"/>
<text text-anchor="middle" x="387.5" y="-7.5" font-family="Helvetica,sans-Serif" font-size="10.00">Import</text>
</a>
</g>
</g>
<!-- Node1&#45;&gt;Node7 -->
<g id="edge6" class="edge"><title>Node1&#45;&gt;Node7</title>
<path fill="none" stroke="midnightblue" d="M286.817,-52.503C311.376,-42.3795 345.318,-28.388 366.84,-19.5164"/>
<polygon fill="midnightblue" stroke="midnightblue" points="285.169,-49.3966 277.257,-56.4435 287.837,-55.8683 285.169,-49.3966"/>
</g>
<!-- Node8 -->
<g id="node8" class="node"><title>Node8</title>
<g id="a_node8"><a xlink:href="class_sabberworm_1_1_c_s_s_1_1_rule_set_1_1_at_rule_set.html" target="_top" target="_top" xlink:title="A RuleSet constructed by an unknown @&#45;rule. ">
<polygon fill="white" stroke="black" points="428.5,-0.5 428.5,-19.5 490.5,-19.5 490.5,-0.5 428.5,-0.5"/>
<text text-anchor="middle" x="459.5" y="-7.5" font-family="Helvetica,sans-Serif" font-size="10.00">AtRuleSet</text>
</a>
</g>
</g>
<!-- Node1&#45;&gt;Node8 -->
<g id="edge7" class="edge"><title>Node1&#45;&gt;Node8</title>
<path fill="none" stroke="midnightblue" d="M289.868,-56.1237C328.285,-45.9045 390.892,-29.2503 428.348,-19.2867"/>
<polygon fill="midnightblue" stroke="midnightblue" points="288.948,-52.7467 280.184,-58.6998 290.748,-59.5114 288.948,-52.7467"/>
</g>
<!-- Node2 -->
<g id="node2" class="node"><title>Node2</title>
<g id="a_node2"><a xlink:href="interface_sabberworm_1_1_c_s_s_1_1_renderable.html" target="_top" target="_top" xlink:title="Renderable">
<polygon fill="white" stroke="black" points="222.5,-112.5 222.5,-131.5 290.5,-131.5 290.5,-112.5 222.5,-112.5"/>
<text text-anchor="middle" x="256.5" y="-119.5" font-family="Helvetica,sans-Serif" font-size="10.00">Renderable</text>
</a>
</g>
</g>
<!-- Node2&#45;&gt;Node1 -->
<g id="edge1" class="edge"><title>Node2&#45;&gt;Node1</title>
<path fill="none" stroke="midnightblue" d="M256.5,-101.805C256.5,-92.9102 256.5,-82.7798 256.5,-75.7511"/>
<polygon fill="midnightblue" stroke="midnightblue" points="253,-102.083 256.5,-112.083 260,-102.083 253,-102.083"/>
</g>
</g>
</svg>
