<?xml version="1.0" encoding="UTF-8" standalone="no"?>
<!DOCTYPE svg PUBLIC "-//W3C//DTD SVG 1.1//EN"
 "http://www.w3.org/Graphics/SVG/1.1/DTD/svg11.dtd">
<!-- Generated by graphviz version 2.38.0 (20140413.2041)
 -->
<!-- Title: AtRule Pages: 1 -->
<svg width="493pt" height="137pt"
 viewBox="0.00 0.00 492.53 137.00" xmlns="http://www.w3.org/2000/svg" xmlns:xlink="http://www.w3.org/1999/xlink">
<g id="graph0" class="graph" transform="scale(1 1) rotate(0) translate(4 133)">
<title>AtRule</title>
<polygon fill="white" stroke="none" points="-4,4 -4,-133 488.527,-133 488.527,4 -4,4"/>
<!-- Node1 -->
<g id="node1" class="node"><title>Node1</title>
<polygon fill="#bfbfbf" stroke="black" points="231.007,-55.5 231.007,-73.5 277.022,-73.5 277.022,-55.5 231.007,-55.5"/>
<text text-anchor="middle" x="254.015" y="-61.5" font-family="Helvetica,sans-Serif" font-size="10.00">AtRule</text>
</g>
<!-- Node3 -->
<g id="node3" class="node"><title>Node3</title>
<g id="a_node3"><a xlink:href="class_sabberworm_1_1_c_s_s_1_1_c_s_s_list_1_1_at_rule_block_list.html" target="_top" xlink:title="A BlockList constructed by an unknown &#45;rule. ">
<polygon fill="white" stroke="black" points="0,-0.5 0,-18.5 86.0293,-18.5 86.0293,-0.5 0,-0.5"/>
<text text-anchor="middle" x="43.0146" y="-6.5" font-family="Helvetica,sans-Serif" font-size="10.00">AtRuleBlockList</text>
</a>
</g>
</g>
<!-- Node1&#45;&gt;Node3 -->
<g id="edge2" class="edge"><title>Node1&#45;&gt;Node3</title>
<path fill="none" stroke="midnightblue" d="M220.853,-55.1703C180.972,-45.1529 114.493,-28.4542 75.0986,-18.559"/>
<polygon fill="midnightblue" stroke="midnightblue" points="220.076,-58.5839 230.628,-57.6256 221.782,-51.7948 220.076,-58.5839"/>
</g>
<!-- Node4 -->
<g id="node4" class="node"><title>Node4</title>
<g id="a_node4"><a xlink:href="class_sabberworm_1_1_c_s_s_1_1_c_s_s_list_1_1_key_frame.html" target="_top" xlink:title="KeyFrame">
<polygon fill="white" stroke="black" points="103.953,-0.5 103.953,-18.5 166.076,-18.5 166.076,-0.5 103.953,-0.5"/>
<text text-anchor="middle" x="135.015" y="-6.5" font-family="Helvetica,sans-Serif" font-size="10.00">KeyFrame</text>
</a>
</g>
</g>
<!-- Node1&#45;&gt;Node4 -->
<g id="edge3" class="edge"><title>Node1&#45;&gt;Node4</title>
<path fill="none" stroke="midnightblue" d="M226.585,-51.2834C204.067,-41.2545 172.81,-27.3332 153.258,-18.6253"/>
<polygon fill="midnightblue" stroke="midnightblue" points="225.382,-54.5791 235.941,-55.4504 228.23,-48.1846 225.382,-54.5791"/>
</g>
<!-- Node5 -->
<g id="node5" class="node"><title>Node5</title>
<g id="a_node5"><a xlink:href="class_sabberworm_1_1_c_s_s_1_1_property_1_1_charset.html" target="_top" xlink:title="Class representing an &#160;rule. ">
<polygon fill="white" stroke="black" points="184.507,-0.5 184.507,-18.5 235.522,-18.5 235.522,-0.5 184.507,-0.5"/>
<text text-anchor="middle" x="210.015" y="-6.5" font-family="Helvetica,sans-Serif" font-size="10.00">Charset</text>
</a>
</g>
</g>
<!-- Node1&#45;&gt;Node5 -->
<g id="edge4" class="edge"><title>Node1&#45;&gt;Node5</title>
<path fill="none" stroke="midnightblue" d="M240.518,-47.2426C232.621,-37.7302 222.996,-26.1369 216.697,-18.5496"/>
<polygon fill="midnightblue" stroke="midnightblue" points="238.059,-49.7603 247.14,-55.2188 243.445,-45.289 238.059,-49.7603"/>
</g>
<!-- Node6 -->
<g id="node6" class="node"><title>Node6</title>
<g id="a_node6"><a xlink:href="class_sabberworm_1_1_c_s_s_1_1_property_1_1_c_s_s_namespace.html" target="_top" xlink:title="CSSNamespace">
<polygon fill="white" stroke="black" points="253.054,-0.5 253.054,-18.5 342.975,-18.5 342.975,-0.5 253.054,-0.5"/>
<text text-anchor="middle" x="298.015" y="-6.5" font-family="Helvetica,sans-Serif" font-size="10.00">CSSNamespace</text>
</a>
</g>
</g>
<!-- Node1&#45;&gt;Node6 -->
<g id="edge5" class="edge"><title>Node1&#45;&gt;Node6</title>
<path fill="none" stroke="midnightblue" d="M267.511,-47.2426C275.408,-37.7302 285.033,-26.1369 291.332,-18.5496"/>
<polygon fill="midnightblue" stroke="midnightblue" points="264.584,-45.289 260.89,-55.2188 269.97,-49.7603 264.584,-45.289"/>
</g>
<!-- Node7 -->
<g id="node7" class="node"><title>Node7</title>
<g id="a_node7"><a xlink:href="class_sabberworm_1_1_c_s_s_1_1_property_1_1_import.html" target="_top" xlink:title="Class representing an &#160;rule. ">
<polygon fill="white" stroke="black" points="360.845,-0.5 360.845,-18.5 405.185,-18.5 405.185,-0.5 360.845,-0.5"/>
<text text-anchor="middle" x="383.015" y="-6.5" font-family="Helvetica,sans-Serif" font-size="10.00">Import</text>
</a>
</g>
</g>
<!-- Node1&#45;&gt;Node7 -->
<g id="edge6" class="edge"><title>Node1&#45;&gt;Node7</title>
<path fill="none" stroke="midnightblue" d="M283.095,-51.5523C307.551,-41.5046 341.853,-27.4113 363.238,-18.6253"/>
<polygon fill="midnightblue" stroke="midnightblue" points="281.527,-48.4127 273.607,-55.4504 284.187,-54.8875 281.527,-48.4127"/>
</g>
<!-- Node8 -->
<g id="node8" class="node"><title>Node8</title>
<g id="a_node8"><a xlink:href="class_sabberworm_1_1_c_s_s_1_1_rule_set_1_1_at_rule_set.html" target="_top" xlink:title="A RuleSet constructed by an unknown &#45;rule. ">
<polygon fill="white" stroke="black" points="423.502,-0.5 423.502,-18.5 484.527,-18.5 484.527,-0.5 423.502,-0.5"/>
<text text-anchor="middle" x="454.015" y="-6.5" font-family="Helvetica,sans-Serif" font-size="10.00">AtRuleSet</text>
</a>
</g>
</g>
<!-- Node1&#45;&gt;Node8 -->
<g id="edge7" class="edge"><title>Node1&#45;&gt;Node8</title>
<path fill="none" stroke="midnightblue" d="M287.405,-54.6517C325.414,-44.5792 386.97,-28.2667 423.666,-18.5424"/>
<polygon fill="midnightblue" stroke="midnightblue" points="286.118,-51.3716 277.349,-57.3165 287.912,-58.1381 286.118,-51.3716"/>
</g>
<!-- Node2 -->
<g id="node2" class="node"><title>Node2</title>
<g id="a_node2"><a xlink:href="interface_sabberworm_1_1_c_s_s_1_1_renderable.html" target="_top" xlink:title="Renderable">
<polygon fill="white" stroke="black" points="220.163,-110.5 220.163,-128.5 287.867,-128.5 287.867,-110.5 220.163,-110.5"/>
<text text-anchor="middle" x="254.015" y="-116.5" font-family="Helvetica,sans-Serif" font-size="10.00">Renderable</text>
</a>
</g>
</g>
<!-- Node2&#45;&gt;Node1 -->
<g id="edge1" class="edge"><title>Node2&#45;&gt;Node1</title>
<path fill="none" stroke="midnightblue" d="M254.015,-100.175C254.015,-91.0945 254.015,-80.5949 254.015,-73.5496"/>
<polygon fill="midnightblue" stroke="midnightblue" points="250.515,-100.219 254.015,-110.219 257.515,-100.219 250.515,-100.219"/>
</g>
</g>
</svg>
